<svg viewBox="0 0 330 200" xmlns="http://www.w3.org/2000/svg"><g><g><g><g><g><line x1="61.91500186920166" y1="177.89999961853027" x2="56.91500186920166" y2="177.89999961853027" style="visibility: inherit;" fill="rgb(0, 0, 0)" stroke="rgb(204, 204, 204)" stroke-width="1px"></line><line x1="61.91500186920166" y1="161.72727238048205" x2="56.91500186920166" y2="161.72727238048205" style="visibility: inherit;" fill="rgb(0, 0, 0)" stroke="rgb(204, 204, 204)" stroke-width="1px"></line><line x1="61.91500186920166" y1="145.55454514243385" x2="56.91500186920166" y2="145.55454514243385" style="visibility: inherit;" fill="rgb(0, 0, 0)" stroke="rgb(204, 204, 204)" stroke-width="1px"></line><line x1="61.91500186920166" y1="129.38181790438566" x2="56.91500186920166" y2="129.38181790438566" style="visibility: inherit;" fill="rgb(0, 0, 0)" stroke="rgb(204, 204, 204)" stroke-width="1px"></line><line x1="61.91500186920166" y1="113.20909066633745" x2="56.91500186920166" y2="113.20909066633745" style="visibility: inherit;" fill="rgb(0, 0, 0)" stroke="rgb(204, 204, 204)" stroke-width="1px"></line><line x1="61.91500186920166" y1="97.03636342828923" x2="56.91500186920166" y2="97.03636342828923" style="visibility: inherit;" fill="rgb(0, 0, 0)" stroke="rgb(204, 204, 204)" stroke-width="1px"></line><line x1="61.91500186920166" y1="80.86363619024102" x2="56.91500186920166" y2="80.86363619024102" style="visibility: inherit;" fill="rgb(0, 0, 0)" stroke="rgb(204, 204, 204)" stroke-width="1px"></line><line x1="61.91500186920166" y1="64.69090895219284" x2="56.91500186920166" y2="64.69090895219284" style="visibility: inherit;" fill="rgb(0, 0, 0)" stroke="rgb(204, 204, 204)" stroke-width="1px"></line><line x1="61.91500186920166" y1="48.51818171414462" x2="56.91500186920166" y2="48.51818171414462" style="visibility: inherit;" fill="rgb(0, 0, 0)" stroke="rgb(204, 204, 204)" stroke-width="1px"></line><line x1="61.91500186920166" y1="32.34545447609642" x2="56.91500186920166" y2="32.34545447609642" style="visibility: inherit;" fill="rgb(0, 0, 0)" stroke="rgb(204, 204, 204)" stroke-width="1px"></line><line x1="61.91500186920166" y1="16.17272723804821" x2="56.91500186920166" y2="16.17272723804821" style="visibility: inherit;" fill="rgb(0, 0, 0)" stroke="rgb(204, 204, 204)" stroke-width="1px"></line><line x1="61.91500186920166" y1="0" x2="56.91500186920166" y2="0" style="visibility: inherit;" fill="rgb(0, 0, 0)" stroke="rgb(204, 204, 204)" stroke-width="1px"></line></g><g transform="translate(51.91500186920166, 0)"><text style="text-anchor: end; visibility: hidden; font-family: Roboto, sans-serif; font-size: 12px; font-weight: 200;" x="0" y="177.89999961853027" dx="0em" dy="0.3em" fill="rgb(50, 49, 63)" stroke="none" stroke-width="1px">-5e-3</text><text style="text-anchor: end; visibility: inherit; font-family: Roboto, sans-serif; font-size: 12px; font-weight: 200;" x="0" y="161.72727238048205" dx="0em" dy="0.3em" fill="rgb(50, 49, 63)" stroke="none" stroke-width="1px">0</text><text style="text-anchor: end; visibility: hidden; font-family: Roboto, sans-serif; font-size: 12px; font-weight: 200;" x="0" y="145.55454514243385" dx="0em" dy="0.3em" fill="rgb(50, 49, 63)" stroke="none" stroke-width="1px">5e-3</text><text style="text-anchor: end; visibility: inherit; font-family: Roboto, sans-serif; font-size: 12px; font-weight: 200;" x="0" y="129.38181790438566" dx="0em" dy="0.3em" fill="rgb(50, 49, 63)" stroke="none" stroke-width="1px">0.01</text><text style="text-anchor: end; visibility: hidden; font-family: Roboto, sans-serif; font-size: 12px; font-weight: 200;" x="0" y="113.20909066633745" dx="0em" dy="0.3em" fill="rgb(50, 49, 63)" stroke="none" stroke-width="1px">0.015</text><text style="text-anchor: end; visibility: inherit; font-family: Roboto, sans-serif; font-size: 12px; font-weight: 200;" x="0" y="97.03636342828923" dx="0em" dy="0.3em" fill="rgb(50, 49, 63)" stroke="none" stroke-width="1px">0.02</text><text style="text-anchor: end; visibility: hidden; font-family: Roboto, sans-serif; font-size: 12px; font-weight: 200;" x="0" y="80.86363619024102" dx="0em" dy="0.3em" fill="rgb(50, 49, 63)" stroke="none" stroke-width="1px">0.025</text><text style="text-anchor: end; visibility: inherit; font-family: Roboto, sans-serif; font-size: 12px; font-weight: 200;" x="0" y="64.69090895219284" dx="0em" dy="0.3em" fill="rgb(50, 49, 63)" stroke="none" stroke-width="1px">0.03</text><text style="text-anchor: end; visibility: hidden; font-family: Roboto, sans-serif; font-size: 12px; font-weight: 200;" x="0" y="48.51818171414462" dx="0em" dy="0.3em" fill="rgb(50, 49, 63)" stroke="none" stroke-width="1px">0.035</text><text style="text-anchor: end; visibility: inherit; font-family: Roboto, sans-serif; font-size: 12px; font-weight: 200;" x="0" y="32.34545447609642" dx="0em" dy="0.3em" fill="rgb(50, 49, 63)" stroke="none" stroke-width="1px">0.04</text><text style="text-anchor: end; visibility: hidden; font-family: Roboto, sans-serif; font-size: 12px; font-weight: 200;" x="0" y="16.17272723804821" dx="0em" dy="0.3em" fill="rgb(50, 49, 63)" stroke="none" stroke-width="1px">0.045</text><text style="text-anchor: end; visibility: hidden; font-family: Roboto, sans-serif; font-size: 12px; font-weight: 200;" x="0" y="0" dx="0em" dy="0.3em" fill="rgb(50, 49, 63)" stroke="none" stroke-width="1px">0.05</text></g><line x1="61.91500186920166" y1="0" x2="61.91500186920166" y2="177.89999961853027" fill="rgb(0, 0, 0)" stroke="rgb(204, 204, 204)" stroke-width="1px"></line></g></g><g transform="translate(61, 0)" clip-path="url(#clip_0)"><clipPath id="clip_0"><rect width="268" height="177"></rect></clipPath><g><g><g><line x1="0" y1="0" x2="0" y2="177.89999961853027" fill="rgb(0, 0, 0)" stroke="rgb(60, 60, 60)" stroke-width="1px" opacity="0.25"></line><line x1="19.148928437914165" y1="0" x2="19.148928437914165" y2="177.89999961853027" fill="rgb(0, 0, 0)" stroke="rgb(60, 60, 60)" stroke-width="1px" opacity="0.25"></line><line x1="38.29785687582833" y1="0" x2="38.29785687582833" y2="177.89999961853027" fill="rgb(0, 0, 0)" stroke="rgb(60, 60, 60)" stroke-width="1px" opacity="0.25"></line><line x1="57.446785313742495" y1="0" x2="57.446785313742495" y2="177.89999961853027" fill="rgb(0, 0, 0)" stroke="rgb(60, 60, 60)" stroke-width="1px" opacity="0.25"></line><line x1="76.59571375165666" y1="0" x2="76.59571375165666" y2="177.89999961853027" fill="rgb(0, 0, 0)" stroke="rgb(60, 60, 60)" stroke-width="1px" opacity="0.25"></line><line x1="95.74464218957084" y1="0" x2="95.74464218957084" y2="177.89999961853027" fill="rgb(0, 0, 0)" stroke="rgb(60, 60, 60)" stroke-width="1px" opacity="0.25"></line><line x1="114.89357062748499" y1="0" x2="114.89357062748499" y2="177.89999961853027" fill="rgb(0, 0, 0)" stroke="rgb(60, 60, 60)" stroke-width="1px" opacity="0.25"></line><line x1="134.04249906539917" y1="0" x2="134.04249906539917" y2="177.89999961853027" fill="rgb(0, 0, 0)" stroke="rgb(60, 60, 60)" stroke-width="1px" opacity="0.25"></line><line x1="153.19142750331332" y1="0" x2="153.19142750331332" y2="177.89999961853027" fill="rgb(0, 0, 0)" stroke="rgb(60, 60, 60)" stroke-width="1px" opacity="0.25"></line><line x1="172.34035594122753" y1="0" x2="172.34035594122753" y2="177.89999961853027" fill="rgb(0, 0, 0)" stroke="rgb(60, 60, 60)" stroke-width="1px" opacity="0.25"></line><line x1="191.48928437914168" y1="0" x2="191.48928437914168" y2="177.89999961853027" fill="rgb(0, 0, 0)" stroke="rgb(60, 60, 60)" stroke-width="1px" opacity="0.25"></line><line x1="210.63821281705583" y1="0" x2="210.63821281705583" y2="177.89999961853027" fill="rgb(0, 0, 0)" stroke="rgb(60, 60, 60)" stroke-width="1px" opacity="0.25"></line><line x1="229.78714125496998" y1="0" x2="229.78714125496998" y2="177.89999961853027" fill="rgb(0, 0, 0)" stroke="rgb(60, 60, 60)" stroke-width="1px" opacity="0.25"></line><line x1="248.9360696928842" y1="0" x2="248.9360696928842" y2="177.89999961853027" fill="rgb(0, 0, 0)" stroke="rgb(60, 60, 60)" stroke-width="1px" opacity="0.25"></line><line x1="268.08499813079834" y1="0" x2="268.08499813079834" y2="177.89999961853027" fill="rgb(0, 0, 0)" stroke="rgb(60, 60, 60)" stroke-width="1px" opacity="0.25"></line></g><g><line x1="0" y1="177.89999961853027" x2="268.08499813079834" y2="177.89999961853027" fill="rgb(0, 0, 0)" stroke="rgb(60, 60, 60)" stroke-width="1px" opacity="0.25"></line><line x1="0" y1="161.72727238048205" x2="268.08499813079834" y2="161.72727238048205" fill="rgb(0, 0, 0)" stroke="rgb(60, 60, 60)" stroke-width="1px" opacity="0.25"></line><line x1="0" y1="145.55454514243385" x2="268.08499813079834" y2="145.55454514243385" fill="rgb(0, 0, 0)" stroke="rgb(60, 60, 60)" stroke-width="1px" opacity="0.25"></line><line x1="0" y1="129.38181790438566" x2="268.08499813079834" y2="129.38181790438566" fill="rgb(0, 0, 0)" stroke="rgb(60, 60, 60)" stroke-width="1px" opacity="0.25"></line><line x1="0" y1="113.20909066633745" x2="268.08499813079834" y2="113.20909066633745" fill="rgb(0, 0, 0)" stroke="rgb(60, 60, 60)" stroke-width="1px" opacity="0.25"></line><line x1="0" y1="97.03636342828923" x2="268.08499813079834" y2="97.03636342828923" fill="rgb(0, 0, 0)" stroke="rgb(60, 60, 60)" stroke-width="1px" opacity="0.25"></line><line x1="0" y1="80.86363619024102" x2="268.08499813079834" y2="80.86363619024102" fill="rgb(0, 0, 0)" stroke="rgb(60, 60, 60)" stroke-width="1px" opacity="0.25"></line><line x1="0" y1="64.69090895219284" x2="268.08499813079834" y2="64.69090895219284" fill="rgb(0, 0, 0)" stroke="rgb(60, 60, 60)" stroke-width="1px" opacity="0.25"></line><line x1="0" y1="48.51818171414462" x2="268.08499813079834" y2="48.51818171414462" fill="rgb(0, 0, 0)" stroke="rgb(60, 60, 60)" stroke-width="1px" opacity="0.25"></line><line x1="0" y1="32.34545447609642" x2="268.08499813079834" y2="32.34545447609642" fill="rgb(0, 0, 0)" stroke="rgb(60, 60, 60)" stroke-width="1px" opacity="0.25"></line><line x1="0" y1="16.17272723804821" x2="268.08499813079834" y2="16.17272723804821" fill="rgb(0, 0, 0)" stroke="rgb(60, 60, 60)" stroke-width="1px" opacity="0.25"></line><line x1="0" y1="0" x2="268.08499813079834" y2="0" fill="rgb(0, 0, 0)" stroke="rgb(60, 60, 60)" stroke-width="1px" opacity="0.25"></line></g></g></g><g><g><line x1="0" y1="161.72727238048205" x2="268.08499813079834" y2="161.72727238048205" fill="rgb(0, 0, 0)" stroke="rgb(153, 153, 153)" stroke-width="1.5px"></line></g></g><g><g><line x1="19.148928437914165" y1="0" x2="19.148928437914165" y2="177.89999961853027" fill="rgb(0, 0, 0)" stroke="rgb(153, 153, 153)" stroke-width="1.5px"></line></g></g><g><g><g><g><g><path style="fill: none;" stroke="rgb(255, 112, 67)" stroke-width="2px" d="M19.627651648862024,116.44468604560377L19.72339629105159,116.1751379115998L20.106374859809875,115.21246293055998L20.202119501999448,114.58955622274537L20.489353428568158,113.71066467867259L20.58509807075773,113.04825622407586L20.872331997326445,112.13872171262607L20.96807663951601,111.43411546099185L21.063821281705582,110.84473477928768L21.44679985046387,109.80068980584191L22.308501630170003,107.62006122953575L22.595735556738717,105.79809811056946L22.978714125497,104.01651375053056L23.17020340987614,102.60376130415587L23.361692694255286,101.41163238540989L23.457437336444855,100.52415317691619L23.648926620823996,99.64674589219064L23.840415905203137,98.7753399256211L24.22339447396142,97.56246530496092L24.319139116150993,96.66226951695226L24.41488375834056,95.94965972344504L24.510628400530134,95.34958957087636L24.606373042719706,94.81703916112461L25.18084089585713,93.46243945787579L25.372330180236272,92.30466115141428L25.46807482242584,91.43748396916408L25.563819464615413,90.74466882916964L25.659564106804982,90.15646808232734L25.946798033373696,89.28601164253342L26.04254267556327,88.59122834498352L26.138287317752837,88.00184884107374L26.234031959942406,87.47570916430746L26.712755170890265,86.29747011008338L27.191478381838117,84.7279690451452L27.478712308406827,83.26873480381542L27.5744569505964,82.22068226256813L28.148924803733824,80.55678349383318L28.914881941250393,78.17835296810935L29.202115867819106,76.23376344484873L29.29786051000868,74.89449772270987L29.96807300533567,72.88335903437984L30.255306931904382,71.1591421999154L30.446796216283527,69.77959048814313L31.117008711610524,67.74428020590148L31.212753353800093,66.35058202603965L31.499987280368803,64.99682949593328L31.595731922558375,64.0120683771166L32.26594441788537,62.213632450599086L32.45743370226451,60.78954687326059L32.648922986643655,59.590071505417725L32.74466762883323,58.697874273992795L32.8404122710228,57.9900487442638L33.51062476634979,56.35777417120162L33.98934797729765,54.51585419359051L34.180837261676785,53.06567818557564L34.27658190386636,52.02306538989093L34.37232654605593,51.224985701755706L34.65956047262464,50.22860185670078L34.94679439919336,49.11323551749404L35.138283683572496,48.09899169252084L35.23402832576207,47.31793820666063L35.52126225233078,46.33177490281901L36.095730105468206,44.70500485616635L36.19147474765778,43.55643081745017L36.38296403203692,42.52226719261956L36.670197958605634,41.38423780539564L36.86168724298477,40.3563961516121L36.95743188517434,39.56717914861736L37.14892116955348,38.7486249253713L37.34041045393263,37.91246836997442L37.4361550961222,37.238262426011715L38.10636759144919,35.62616442425839L38.87232472896576,34.31474917445308L38.96806937115533,33.528218134558365L39.0638140133449,33.05666099924481L39.44679258210318,32.775654657380834L40.404239003998896,32.61525905393498L40.49998364618847,32.520110977585624L40.6914729305676,32.46533565896498L40.882962214946744,32.43498160876232L41.07445149932589,32.41946829369451L41.3616854258946,32.41458010555442L41.45743006808417,32.413213643371265L41.553174710273744,32.41400841524531L41.84040863684246,32.419623236668585L42.797855058738165,32.443259591667626L42.98934434311731,32.46207327889334L43.56381219625473,32.48840905765374L43.85104612282344,32.51238498764434L43.94679076501301,32.529599796596884L44.042535407202585,32.54279649171309L44.13828004939216,32.55363051701057L44.3297693337713,32.566112363942246L44.71274790252958,32.586137897556505L44.90423718690872,32.60470821142713L45.09572647128786,32.62259336753572L45.287215755667006,32.640269862616115L45.765938966614854,32.669065867187676L46.34040681975228,32.709758293022354L47.01061931507928,32.76367604003094L47.10636395726885,32.80042720974343L47.5850871682167,32.84522759559584L47.680831810406275,32.87680235936159L47.96806573697499,32.91011518543425L48.063810379164565,32.934990207264555L48.15955502135413,32.954841105335916L48.54253359011241,32.98696126814411L48.638278232301985,33.011405063066064L48.82976751668112,33.03655932994258L49.11700144324984,33.06773572388018L49.49998001200812,33.10855984413901L49.595724654197696,33.13869835866574L49.69146929638726,33.16247852808465L49.78721393857683,33.18249188892192L49.97870322295597,33.20613501924552L50.26593714952469,33.23811577740156L50.36168179171426,33.26333868237975L50.457426433903834,33.284545434237735L50.744660360472544,33.31578734256096L51.031894287041254,33.353474491414595L51.60636214017868,33.415257687945136L51.79785142455783,33.46576052310446L52.08508535112654,33.51657067876067L52.18082999331611,33.5539877140247L52.37231927769525,33.5904395945247L52.46806391988481,33.61938626014433L52.946787130832675,33.67283082411921L53.04253177302225,33.71225265102576L53.42551034178053,33.765803266238876L53.61699962615967,33.813164356027535L53.90423355272838,33.86478375966679L54.28721212148667,33.9273446876765L54.67019069024495,33.9972320663415L54.86167997462409,34.0556242755204L55.24465854338237,34.12412862769491L55.340403185571944,34.17371899187417L55.436147827761516,34.21200434189107L55.627637112140654,34.25218241036922L56.10636032308851,34.3201209519906L56.202104965278075,34.36978633679262L56.585083534036364,34.4356814116702L56.68082817622594,34.4843568889932L56.77657281841551,34.52274880626653L57.73401924031121,34.64021442472723L58.21274245125907,34.75964899509204L58.88295494658606,34.901795199001725L58.97869958877563,34.997339558551964L59.45742279972349,35.10662895891619L59.55316744191306,35.18273396769287L59.744656726292206,35.24959948567614L59.93614601067134,35.31109964357091L60.31912457942963,35.39132535476965L61.180826359135764,35.53961240952999L61.3723156435149,35.651348785956024L61.468060285704475,35.729837751548786L61.755294212273185,35.81155210131781L62.32976206541062,35.93105171332507L63.09571920292718,36.09925448339956L63.19146384511675,36.21244747924245L63.28720848730632,36.29267316933286L63.47869777168547,36.36557296400578L63.57444241387504,36.42176250899521L63.86167634044374,36.493090332202925L63.957420982633316,36.54851502870073L64.43614419358117,36.64558945807698L64.53188883577074,36.716732029781255L65.58507989985603,36.90426847407526L65.87231382642473,37.057233687823924L65.9680584686143,37.16258068906679L66.15954775299345,37.253064411400885L66.35103703737259,37.3348085007772L66.63827096394131,37.425368307900165L67.69146202802658,37.63532745441901L68.07444059678487,37.81921823962769L68.17018523897444,37.94414239158837L68.36167452335357,38.04840638034011L68.64890844992229,38.155259179563416L68.84039773430143,38.24911414302069L69.31912094524928,38.38056855625362L69.41486558743887,38.47459962712951L69.98933344057627,38.62287975860229L70.18082272495542,38.74281536288005L70.27656736714499,38.83033037594427L70.37231200933456,38.89843159306684L70.46805665152414,38.95492791125918L70.56380129371371,39.00450466872822L70.65954593590328,39.04997306839805L70.85103522028243,39.10882893448115L71.04252450466156,39.17589079495139L71.52124771560942,39.296248249696745L71.61699235779898,39.384618854080315L71.71273699998856,39.453835907033294L71.90422628436771,39.527890475203414L72.28720485312597,39.63788279282307L72.47869413750512,39.73690860386581L72.67018342188426,39.82953284534988L73.05316199064255,39.95202616418145L73.14890663283212,40.04236270547679L73.24465127502168,40.113443739036896L73.62762984377997,40.22403294095588L74.01060841253826,40.35900182265365L74.10635305472782,40.45724302847172L74.39358698129655,40.56821801447296L74.58507626567568,40.66970352768907L74.68082090786525,40.74810534453028L74.77656555005481,40.81270032218137L74.8723101922444,40.86905457495316L74.96805483443396,40.92050295158387L75.06379947662354,40.969051181164716L75.25528876100267,41.03366384217413L75.35103340319225,41.09023595843828L75.82975661414011,41.21382840676956L75.92550125632967,41.30603902753898L76.21273518289838,41.415776667576345L76.30847982508796,41.499838278211946L76.59571375165666,41.60518295654497L76.7872030360358,41.70519894509107L77.1701816047941,41.83932816553553L77.36167088917324,41.957111323724426L77.55316017355239,42.065250719402556L77.74464945793152,42.167767732416785L78.03188338450023,42.286031654079856L78.41486195325851,42.433230367651085L78.5106065954481,42.54071331267583L78.70209587982723,42.64364618981414L78.98932980639594,42.76338387142254L79.37230837515423,42.9130863099932L79.85103158610208,43.10114110154918L80.52124408142907,43.353176015534444L80.61698872361865,43.52444753289672L80.80847800799779,43.667422437767456L80.90422265018735,43.77337362602048L80.99996729237694,43.85714914308935L81.0957119345665,43.92765299638587L81.28720121894564,44.010567350226935L81.57443514551434,44.12152321622492L81.95741371427263,44.27025587012219L82.0531583564622,44.380134052925534L82.4361369252205,44.52900573218062L82.7233708517892,44.68094338913366L83.10634942054749,44.856144858445006L83.39358334711619,45.02469976364456L83.48932798930578,45.147049679026495L83.58507263149534,45.24171997915269L83.68081727368492,45.319825888760214L83.77656191587448,45.38802208314641L83.96805120025363,45.47173041307754L84.06379584244318,45.54340855586568L84.15954048463277,45.60790714515446L84.35102976901192,45.68970538231903L84.44677441120147,45.76038688474484L84.54251905339105,45.82444172496219L84.63826369558062,45.88455430679262L84.82975297995976,45.96410170749866L85.0212422643389,46.05546423467606L85.11698690652847,46.132149402766615L85.78719940185547,46.332323351828L86.07443332842418,46.51906694400394L86.17017797061376,46.65340007789665L86.26592261280332,46.75632549560587L86.45741189718247,46.86283785764146L86.74464582375117,46.99416531302821L86.93613510813032,47.118099665686834L87.12762439250946,47.2377427521579L87.51060296126774,47.400532159988565L87.89358153002603,47.58980702182546L88.18081545659473,47.772454824760075L88.27656009878432,47.905145039472416L88.37230474097387,48.007894440189574L88.46804938316346,48.092717911296134L88.56379402535302,48.16682438342277L89.04251723630087,48.32789003702312L89.6169850894383,48.565635308317596L89.80847437381745,48.75560856165376L89.90421901600702,48.89330616734247L89.99996365819658,48.999676943229176L90.2871975847653,49.13497293935559L90.57443151133401,49.28793735776603L90.67017615352357,49.40371885339795L90.9574100800923,49.545403538011286L91.05315472228186,49.6545521491176L91.14889936447145,49.74422249475448L91.34038864885058,49.84648345704905L91.53187793322971,49.95644338478751L92.10634578636714,50.16905840642514L92.39357971293586,50.370419297039426L92.48932435512542,50.51590381506045L92.77655828169415,50.67740091045945L92.87230292388371,50.799102107104005L92.96804756607328,50.89695950343403L93.15953685045241,51.005453334581524L93.255281492642,51.09549234827618L93.82974934577942,51.29988056423145L94.2127279145377,51.523431477727016L94.30847255672728,51.6828758691504L94.49996184110641,51.82927622731937L94.69145112548556,51.96798030144002L94.8829404098647,52.10220156088441L94.97868505205426,52.20828433244429L95.07442969424385,52.297512930363304L95.1701743364334,52.376672402732645L95.26591897862299,52.44981449901367L95.5531529051917,52.57084624883801L95.74464218957084,52.6950617748951L95.93613147394998,52.8213177025962L96.22336540051869,52.97491180942924L96.41485468489783,53.11912263528101L96.5105993270874,53.231729329999496L96.60634396927698,53.325402465127816L96.98932253803525,53.4863657492306L97.1808118224144,53.63552344491007L97.27655646460397,53.75135371348559L97.4680457489831,53.87361957393277L97.75527967555183,54.026371631569454L98.1382582443101,54.22432944048488L98.42549217087883,54.423166626117606L98.71272609744753,54.62281580883105L98.8084707396371,54.76944705369954L98.99996002401625,54.911210487916016L99.19144930839539,55.05017855179734L99.38293859277452,55.18759470953362L99.86166180372238,55.4056701157808L100.14889573029109,55.618264806721186L100.24464037248067,55.77313088181198L100.34038501467023,55.893388706482824L100.62761894123894,56.047750734066945L101.39357607875552,56.36091938945147L101.48932072094509,56.576525070770145L101.58506536313466,56.73362670658749L101.77655464751379,56.88344607955151L102.15953321627208,57.084811155052044L102.35102250065123,57.26154526060092L102.44676714284078,57.39558904261346L102.82974571159907,57.5883129576042L103.02123499597822,57.76027205395358L103.11697963816778,57.89165326407545L103.40421356473651,58.055277581472865L103.59570284911565,58.210123948344574L103.78719213349478,58.359824041108645L104.0744260600635,58.535042169130165L104.26591534444263,58.69724486978611L104.36165998663222,58.823148190660135L104.55314927101135,58.955935521566765L104.64889391320092,59.0642763778608L104.93612783976963,59.21544531988165L105.22336176633836,59.39256174545069L105.31910640852792,59.52769767232291L105.98931890385491,59.8115839858015L106.0850635460445,60.01099873859338L106.18080818823405,60.159759474063115L106.27655283042363,60.27815189838115L106.46804211480277,60.40754607631384L106.56378675699234,60.51440291345508L106.75527604137147,60.63703479407595L106.85102068356106,60.73991860017551L106.94676532575062,60.83097284095552L107.23399925231934,60.97375318124762L107.32974389450891,61.08885619905429L107.42548853669847,61.18737692261125L107.52123317888805,61.275977188708254L107.7127224632672,61.388192539789195L108.2871903164046,61.63332595460716L108.38293495859419,61.810134827876276L108.6701688851629,62.005551220422056L109.3403813804899,62.332148757386115L109.6276153070586,62.618211933802684L110.2978278023856,63.00097847503987L110.39357244457518,63.26090463724714L110.48931708676474,63.447145851429674L110.68080637114389,63.61953632130439L110.77655101333346,63.75333323766037L110.87229565552303,63.86399812114662L111.15952958209174,64.02169943778166L111.25527422428131,64.1468033584016L111.44676350866045,64.28290908962433L111.6382527930396,64.42571471409912L111.73399743522916,64.54200171563065L112.11697600398745,64.73443664612421L112.21272064617702,64.8806217274748L112.5956992149353,65.09147026091836L112.69144385712488,65.2488240002467L112.78718849931444,65.3741073722716L112.88293314150403,65.48016780330765L113.17016706807273,65.63661506099369L113.2659117102623,65.7614678104685L113.36165635245187,65.86738554433397L113.64889027902058,66.02409903264432L113.74463492121015,66.149224786929L114.51059205872673,66.4739225934178L114.89357062748499,66.79409107231875L115.08505991186414,67.04900201291588L115.27654919624328,67.26484518780026L115.37229383843287,67.42583193197004L115.65952776500157,67.61699904201791L115.75527240719114,67.76326931447953L115.94676169157029,67.91423173892618L116.04250633375986,68.03644185805508L116.13825097594942,68.14142228331077L116.23399561813899,68.2360914014082L116.52122954470771,68.38804872753406L117.28718668222427,68.73390631785344L117.47867596660342,69.00530314155067L117.67016525098256,69.23210062284758L117.86165453536171,69.43222525597385L117.95739917755127,69.58434961718939L118.05314381974084,69.70769791450006L118.24463310411998,69.84591209222882L118.43612238849913,69.99312532570558L118.53186703068869,70.11363057311165L118.62761167287826,70.21813030826853L118.91484559944698,70.3775259461652L119.10633488382612,70.53772760694473L119.77654737915312,70.86044172210352L119.87229202134267,71.0865198199483L120.1595259479114,71.31962160156662L120.35101523229055,71.5245482128034L120.92548308542797,71.84315146215984L121.02122772761753,72.06698475354551L121.21271701199667,72.26668525010028L121.40420629637582,72.45198077740528L121.78718486513411,72.69432062585827L122.1701634338924,72.97117625789866L122.36165271827153,73.20312153527006L122.55314200265066,73.40819048764051L122.84037592921939,73.6302146738886L122.93612057140895,73.79645719618425L123.03186521359852,73.9292475895775L123.1276098557881,74.04198839494671L123.70207770892551,74.30836486370124L123.79782235111509,74.50136817079834L124.37229020425251,74.81660583844292L124.56377948863165,75.0723563327548L124.7552687730108,75.2924795910192L124.85101341520037,75.45791171613386L124.94675805738994,75.59054844075199L125.80845983709608,75.97122157962308L125.99994912147521,76.26670570180522L126.28718304804394,76.54472618495288L126.6701616168022,76.84606044118375L126.86165090118135,77.09420873536303L126.95739554337094,77.27679327140835L127.34037411212921,77.52127082663594L127.43611875431878,77.7017252170349L127.62760803869793,77.87757694443393L127.72335268088749,78.01689921677054L127.81909732307707,78.13431827561467L128.1063312496458,78.30632632474469L128.20207589183534,78.4434098679963L129.15952231373106,78.86520625779173L129.3510115981102,79.18635239943212L129.44675624029978,79.41309472265326L129.7339901668685,79.65137632902126L129.82973480905804,79.82844812956205L129.92547945124764,79.96880850615145L130.21271337781633,80.15545614839698L130.3084580200059,80.30161022849232L130.40420266219547,80.42348504076666L131.84037229503903,81.0107407374738L132.12760622160775,81.46623167956744L132.3190955059869,81.8083416290749L132.41484014817647,82.04803095541199L132.6063294325556,82.26072500341768L132.70207407474518,82.4227985277919L132.98930800131387,82.62347176730857L133.27654192788262,82.84740364280108L133.37228657007216,83.0162945713162L133.46803121226174,83.15217057134149L133.5637758544513,83.26824484404537L133.75526513883045,83.40702049198329L133.9467544232096,83.55945793377224L134.13824370758874,83.72013101065832L134.3297329919679,83.88578402738914L134.42547763415746,84.01981608723423L134.61696691853658,84.16954715176851L134.80845620291575,84.32872894813032L134.99994548729487,84.4936197423751L135.09569012948444,84.62725953668077L135.19143477167404,84.7421559607954L135.2871794138636,84.84581841241624L135.38292405605316,84.94274530038906L136.34037047794888,85.34870650709706L136.72334904670714,85.73163709539534L137.10632761546543,86.10088185847627L137.202072257655,86.35731718831941L137.29781689984458,86.54607890784065L137.48930618422372,86.72915626217734L137.77654011079244,86.94378376712255L138.06377403736116,87.17741125023338L138.25526332174027,87.38752373908328L138.44675260611945,87.5835561504665L138.542497248309,87.73616769602968L138.73398653268814,87.8977405101515L139.11696510144643,88.13476826991706L139.21270974363597,88.31202522299276L139.30845438582557,88.453426921827L139.49994367020471,88.60837504472597L139.59568831239426,88.7364059049991L139.882922238963,88.91844893955074L139.97866688115255,89.06276325598118L140.07441152334212,89.18444275146307L140.17015616553172,89.29254858414826L140.36164544991084,89.42762522402066L140.8403686608587,89.68430166052548L141.12760258742742,89.94374893399011L141.60632579837528,90.2752525942035L141.7978150827544,90.54451975581456L142.1807936515127,90.84686541200284L142.37228293589183,91.09869319945439L142.75526150465012,91.39068126780977L142.85100614683967,91.60110479004763L142.94675078902927,91.76259440446327L143.04249543121884,91.89472849403388L143.23398471559796,92.04449681939121L143.52121864216667,92.24011974607996L143.61696328435625,92.39275551233183L143.80845256873542,92.55486581240855L143.90419721092496,92.68740364238985L143.99994185311454,92.80220040023801L144.57440970625194,93.08277824235897L144.76589899063111,93.32171644598516L144.8616436328207,93.50037752726182L145.0531329171998,93.67818013392639L145.1488775593894,93.82016467687437L145.4361114859581,94.0112860288084L145.53185612814767,94.16127386853887L146.0105793390955,94.42786340454478L146.1063239812851,94.62314420433914L146.20206862347467,94.77564217233078L146.48930255004336,94.97312700754654L146.68079183442254,95.16228170475426L146.77653647661208,95.31111124096634L146.87228111880165,95.4357432706569L146.96802576099125,95.5458567964345L147.0637704031808,95.64726403971267L147.15951504537037,95.74344751349116L147.7339828985078,96.01320923409698L148.21270610945564,96.35178359483587L148.30845075164524,96.5902721589391L148.4041953938348,96.76871165498511L148.88291860478265,97.05249750083642L149.26589717354094,97.3641423890627L149.45738645792008,97.62180998754584L149.55313110010962,97.8117496744473L149.9361096688679,98.06706999783461L150.3190882376262,98.36159942372016L150.98930073295318,98.78560180673897L151.18079001733236,99.11064052346279L151.46802394390104,99.41160401935893L151.65951322828022,99.66280012441594L151.75525787046976,99.84882317632358L152.0424917970385,100.06634353439183L152.13823643922805,100.23214908848543L152.3297257236072,100.40221668952273L152.42547036579677,100.53954576954946L152.7127042923655,100.72778949638528L154.3403632095882,101.4399802431421L154.43610785177776,101.90251332280002L154.53185249396734,102.21524457242616L154.62759713615688,102.43808990418489L155.01057570491517,102.71258246246177L155.2978096314839,102.98282062580414L155.39355427367346,103.18013877677858L155.68078820024218,103.4040144575598L155.77653284243175,103.573491019756L155.87227748462132,103.71032329095291L156.2552560533796,103.93295738078054L156.35100069556916,104.1016576593906L156.44674533775873,104.23799283142182L156.6382346221379,104.39001189475009L156.82972390651702,104.55141237376678L157.0212131908962,104.71842001287908L157.2127024752753,104.88876784880722L157.7871703284127,105.2012641222212L157.9786596127919,105.45880633184L158.45738282373975,105.78832348029155L158.5531274659293,106.02101381847497L159.41482924563545,106.47511107401559L159.51057388782502,106.78247476880367L160.56376495191031,107.35034083785595L160.94674352066858,107.8302504687182L161.04248816285815,108.15297145279486L161.32972208942684,108.45088146143561L161.4254667316164,108.66436893324119L161.71270065818513,108.8966303879323L161.9041899425643,109.10538825656792L161.99993458475387,109.26532901611486L162.09567922694342,109.39597228043608L162.7658917222704,109.71683516782672L162.86163636446,109.94395218135705L162.95738100664957,110.11481203087459L163.05312564883914,110.25191035221198L163.34035957540786,110.43784910201869L163.53184885978698,110.61848559803857L163.62759350197655,110.76138724924937L163.72333814416615,110.88163594395388L163.8190827863557,110.98828322505803L164.29780599730356,111.22460647501974L164.4892952816827,111.43525918788278L164.96801849263053,111.73360492888332L165.06376313482014,111.94696945720199L165.35099706138882,112.17798953754779L166.02120955671583,112.5565324296832L166.21269884109498,112.85210121593371L167.17014526299067,113.37092874047343L167.36163454736985,113.75037068053338L167.4573791895594,114.01208927784414L167.64886847393853,114.2371875390317L167.74461311612808,114.40626257519462L167.93610240050725,114.57569517219629L168.03184704269682,114.71132984113709L168.60631489583423,114.99627814085193L168.70205953802383,115.20112824437855L169.27652739116124,115.52702862800975L169.3722720333508,115.7563511749958L170.23397381305693,116.19733487493173L170.61695238181522,116.59638681313167L170.80844166619437,116.90295605309092L171.19142023495266,117.22099421179536L171.76588808809007,117.61249872119258L172.05312201465878,117.94753136555462L172.24461129903793,118.21522150392497L172.53184522560665,118.47572332829327L172.72333450998576,118.69853591967315L172.81907915217536,118.86545391867689L173.20205772093362,119.09836141497776L173.29780236312322,119.27125200958866L173.48929164750234,119.4412303615329L173.5850362896919,119.57631647600877L173.7765255740711,119.72351092305746L174.06375950063978,119.91091523781326L174.15950414282935,120.05635209827534L174.25524878501892,120.17659161669211L174.6382273537772,120.38046660191276L174.82971663815636,120.56855239842973L174.9254612803459,120.71425716738543L175.02120592253547,120.83451765529738L175.21269520691465,120.97229256790392L175.40418449129376,121.1205038376026L175.5956737756729,121.27490341886983L175.88290770224162,121.46561503112532L176.17014162881034,121.67795239705539L176.2658862709999,121.8379526556985L176.36163091318946,121.9665325755383L176.64886483975818,122.14130655496864L176.84035412413735,122.31116177724381L176.93609876632692,122.44554140882754L177.2233326928956,122.62345180111211L177.3190773350852,122.76258982705266L177.6063112616539,122.94312631315661L177.9892898304122,123.18057796586406L178.08503447260173,123.35528048810203L178.1807791147913,123.49231545762713L178.8509916101183,123.79947032525241L179.04248089449746,124.0478479489622L179.13822553668706,124.22888554574139L179.2339701788766,124.36949864200687L179.5212041054453,124.54971641319024L179.6169487476349,124.68975567667697L179.80843803201404,124.83753377829437L180.19141660077233,125.05346391405169L180.28716124296187,125.21478118098518L180.38290588515144,125.34331385715527L180.67013981172016,125.51552545513458L181.05311838047845,125.74534330801735L181.14886302266802,125.91480282121783L181.34035230704714,126.07954985916547L181.43609694923674,126.20990061049062L181.5318415914263,126.31959431044902L181.6275862336159,126.41686727042163L181.81907551799503,126.53808548325863L182.10630944456372,126.70492756410694L182.2020540867533,126.83635821174707L182.2977987289429,126.946521515107L182.39354337113244,127.0439003126572L182.77652193989073,127.22723275518838L182.8722665820803,127.36839976980606L183.35098979302816,127.60859912972778L183.54247907740728,127.81475621824559L183.63822371959688,127.96943607118156L183.73396836178645,128.09320548352684L184.11694693054474,128.29107696070164L184.40418085711343,128.50226140706843L184.59567014149258,128.6904938236841L184.88290406806126,128.89554177982666L184.97864871025084,129.04922358380404L185.07439335244044,129.1720615972408L185.17013799463,129.27636923711157L185.26588263681955,129.3695357585633L185.45737192119873,129.48652483884408L185.64886120557784,129.61771105745606L185.93609513214656,129.78772758509066L186.03183977433613,129.92012303038206L186.22332905871528,130.0602566473293L186.31907370090482,130.1746476385595L186.41481834309442,130.27356895511787L186.7020522696631,130.42363129025395L186.8935415540423,130.57401680706764L186.98928619623183,130.69438421871638L187.0850308384214,130.79671546306258L187.18077548061098,130.888205727634L187.85098797593798,131.15298500090003L187.94673261812756,131.34173321445977L188.23396654469627,131.5444710612121L188.71268975564413,131.81474102168607L189.09566832440242,132.09533149080445L189.67013617753983,132.44053926136567L189.7658808197294,132.67704571900236L189.95737010410852,132.8776312467631L190.3403486728668,133.115020530016L190.4360933150564,133.28664671622155L190.53183795724598,133.41878853503297L190.7233272416251,133.55632028818852L190.81907188381467,133.6679210998245L190.91481652600424,133.76393683738306L191.2977950947625,133.93749255087238L191.6807736635208,134.1571264139514L191.87226294789997,134.34649548437312L191.96800759008954,134.48886611683542L192.7339647276061,134.8032686448796L192.82970936979567,135.02040510491696L193.11694329636435,135.23599950099495L193.40417722293307,135.45040959185062L193.78715579169136,135.69205578503846L193.9786450760705,135.89336824830607L194.3616236448288,136.12646060182234L194.84034685577663,136.40602835442363L194.9360914979662,136.60162230688897L195.3190700667245,136.83009425635328L195.4148147089141,136.9948813116388L195.70204863548278,137.1766874697245L195.79779327767235,137.3133545539751L195.89353791986196,137.42290867235374L196.18077184643064,137.57112019511104L196.46800577299936,137.7422574539522L196.56375041518893,137.87228100127848L196.75523969956805,138.00488533411848L196.94672898394722,138.13891402717272L197.04247362613677,138.246518802362L197.13821826832634,138.33823729533717L197.80843076365335,138.5824950333062L197.9999200480325,138.78283315842094L198.09566469022204,138.92988078113538L198.6701325433595,139.17852113630548L198.76587718554904,139.35432838403088L198.86162182773862,139.48640443827546L198.9573664699282,139.5922104474175L199.0531111121178,139.682222498003L199.2446003964969,139.78919142655067L199.53183432306562,139.9325725311152L200.2020468183926,140.20227476830325L200.29779146058218,140.39020522891335L200.39353610277178,140.52904008960056L201.25523788247787,140.8455644285359L201.54247180904662,141.11262431899073L201.63821645123616,141.29850967852826L202.02119501999445,141.5123048208139L202.11693966218402,141.66606323924012L202.21268430437362,141.78376889681772L202.3084289465632,141.87980674902377L202.5956628731319,142.01347401458315L202.69140751532146,142.1189550807877L202.78715215751103,142.20749008596013L202.8828967997006,142.28582552301825L203.2658753684589,142.43334472176576L203.36162001064847,142.5468995703539L203.457364652838,142.64004146742718L203.74459857940673,142.77074932836027L203.93608786378587,142.8988859603932L204.12757714816502,143.0253406819661L204.31906643254416,143.15064889158617L204.41481107473373,143.25050059604857L204.5105557169233,143.3350428510351L204.70204500130245,143.43492583694444L204.79778964349202,143.5193838365415L205.27651285443986,143.69217250564805L205.56374678100858,143.8686971118421L205.75523606538772,144.0230031525946L206.04246999195644,144.187906191019L206.32970391852515,144.3588499205391L206.42544856071473,144.48534730759314L206.61693784509384,144.6089983869605L206.80842712947302,144.73079829122867L207.38289498261042,144.94584987817655L207.4786396248,145.09841735460688L207.67012890917914,145.2369224424013L207.8616181935583,145.3668497189321L208.72331997326444,145.65369770814078L208.81906461545398,145.8488351344119L208.91480925764355,145.98890766413396L209.01055389983316,146.09590631202636L210.15948960610797,146.4326823822579L210.35097889048714,146.67966117839595L210.54246817486626,146.872608579894L210.7339574592454,147.03298833179153L211.1169360280037,147.2179875466293L211.21268067019327,147.35108608003503L211.30842531238284,147.45300685075705L211.4041699545724,147.53618240508243L211.49991459676198,147.60807287326432L211.59565923895153,147.67315614089785L211.6914038811411,147.73411532445377L211.88289316552027,147.81439782154672L211.97863780770982,147.884362071381L212.0743824498994,147.9481004289597L212.26587173427856,148.0297449725797L212.7445949452264,148.18657158732884L213.03182887179508,148.3449095068641L213.22331815617426,148.48254923921976L213.31906279836383,148.58639282704917L213.51055208274295,148.6911040051814L213.79778600931166,148.81724604690882L214.08501993588038,148.95589927647447L214.27650922025953,149.08087508169749L214.56374314682824,149.21824416275285L214.85097707339693,149.36270187898882L214.94672171558653,149.46997473296577L215.23395564215522,149.59589995789608L215.4254449265344,149.7122978849553L215.52118956872394,149.80250050030207L216.28714670624052,150.01809843504716L216.3828913484301,150.16746468747107L216.5743806328092,150.29697561222562L217.05310384375707,150.47371498783042L217.53182705470493,150.67779372534508L217.62757169689453,150.81972701209162L217.72331633908408,150.92433145718567L217.91480562346322,151.02586408032911L218.01055026565277,151.10610793229404L218.20203955003194,151.19278049597983L218.39352883441106,151.2831500267418L218.6807627609798,151.39461467365706L218.77650740316935,151.4804920988836L219.15948597192764,151.60761064499513L219.6382091828755,151.77745310279744L219.82969846725462,151.91650002731794L220.40416632039208,152.11036054651737L220.49991096258162,152.24493835956343L220.5956556047712,152.3439049777258L220.69140024696077,152.4214645127284L220.78714488915037,152.48613672044078L221.07437881571906,152.57910278921545L221.2658681000982,152.67078216689845L221.55310202666692,152.77932806605875L221.64884666885646,152.86221885526228L221.93608059542518,152.9649945544779L222.12756987980435,153.06180871781058L222.31905916418347,153.15487937360632L222.41480380637304,153.22814883237146L222.51054844856262,153.28949570048601L222.8935270173209,153.39542737465734L223.2765055860792,153.52743304501567L223.37225022826874,153.6236423782722L223.4679948704583,153.69833233807603L223.8509734392166,153.81057779926343L223.9467180814062,153.89467645877858L224.13820736578532,153.9785155139611L224.2339520079749,154.04544230265253L224.42544129235404,154.11871886725362L224.5211859345436,154.17918013437549L224.61693057673318,154.2319106518181L224.8084198611123,154.29632724443988L224.9041645033019,154.35130292996172L224.99990914549147,154.4005709938293L225.09565378768104,154.44637110606953L225.38288771424976,154.52231022956664L225.57437699862888,154.59996696488L225.67012164081845,154.66254151438153L226.24458949395589,154.7950703922538L226.34033413614546,154.890270300417L226.43607877833503,154.9630264357148L226.81905734709332,155.06879079090447L227.01054663147244,155.16304401735425L227.2020359158516,155.25021765450194L227.5850144846099,155.36324123146275L228.25522697993688,155.53563132518872L228.5424609065056,155.6832275428085L228.7339501908847,155.80100982112927L228.9254394752639,155.9007246483818L229.02118411745346,155.97501007725924L229.21267340183257,156.0483632093913L229.40416268621175,156.12097953281022L229.59565197059086,156.19297634033535L229.69139661278044,156.25032248708445L229.78714125496998,156.29883335253055L230.07437518153873,156.36998446295135L230.17011982372827,156.42660102655483L230.45735375029702,156.50208326387227L230.55309839248656,156.56112122356805L230.84033231905528,156.6375226509608L231.127566245624,156.72394271404292L231.51054481438229,156.82927277633885L232.08501266751972,156.97134507077112L232.1807573097093,157.06957658304458L232.46799123627798,157.16721314877103L232.56373587846758,157.23860428695247L232.7552251628467,157.3069216584985L232.94671444722584,157.37321447761244L233.04245908941542,157.4255741905381L233.23394837379456,157.48202385855677L233.3296930159841,157.52834197197132L233.52118230036328,157.58089375637272L233.61692694255285,157.6247374307629L233.7126715847424,157.66330999872665L233.80841622693197,157.69867667481998L233.99990551131114,157.7442040792267L234.19139479569026,157.79564762817063L234.28713943787983,157.83850855253834L234.67011800663812,157.9117510708031L234.76586264882766,157.96746484389274L234.95735193320684,158.024292115711L235.24458585977553,158.09314530868957L235.4360751441547,158.15740120863666L235.72330907072342,158.2300283649945L236.29777692386082,158.34051198561062L236.87224477699826,158.47205898797588L237.25522334575652,158.5935715282488L237.54245727232527,158.69793375903663L238.0211804832731,158.81205479159183L238.21266976765224,158.90080473889708L238.49990369422096,158.98412438530622L239.07437154735837,159.0930016155418L239.17011618954794,159.16798000116518L239.3616054739271,159.2321322556238L239.6488394004958,159.29902140144236L239.93607332706452,159.3671347108562L240.0318179692541,159.41723519125316L240.12756261144364,159.45648324002283L240.9892643911498,159.56061375760328L241.08500903333936,159.63181102312475L241.18075367552893,159.68320202168098L241.2764983177185,159.7226629443282L241.46798760209765,159.7634519174817L241.6594768864768,159.80484952092448L241.94671081304548,159.85472199856355L242.04245545523506,159.89289706545432L242.42543402399335,159.9483364582344L242.6169233083725,159.99758655171627L242.71266795056206,160.03505810381358L242.80841259275164,160.06541629066047L242.9041572349412,160.09145863642462L243.67011437245776,160.1680115957542L244.5318161521639,160.27887482393152L244.72330543654306,160.35930167575464L245.01053936311177,160.42806797354208L245.4892625740596,160.50256079458984L245.77649650062835,160.56662689275188L245.8722411428179,160.6114287514188L246.15947506938664,160.65710957198831L246.2552197115762,160.69069055788265L246.54245363814488,160.72906973613735L246.82968756471362,160.769899051584L247.02117684909274,160.80602599344826L247.2126661334719,160.8391433111486L247.49990006004063,160.87581452567176L247.78713398660932,160.91419086274945L247.8828786287989,160.94257788017487L247.97862327098846,160.96492504656163L248.1701125553676,160.98881824860175L248.9360696928842,161.04318589065585L249.1275589772633,161.08533667158022L249.31904826164248,161.11996608575205L249.5105375460216,161.14989141097004L249.98926075696946,161.18987602404385L250.4679839679173,161.2346977809074L250.85096253667558,161.27739222760897L251.23394110543387,161.3180437346429L251.32968574762344,161.34607305009789L251.42543038981302,161.366481228673L251.8084089585713,161.3926072989519L251.90415360076085,161.41163446782795L251.99989824295042,161.42635294889968L252.09564288514002,161.43843685149872L252.3828768117087,161.45516185694305L252.86160002265657,161.48002502939886L253.1488339492253,161.50326237702043L253.3403232336044,161.52250893452128L253.7233018023627,161.54409140723953L253.81904644455227,161.55942844791713L253.91479108674187,161.57097042155848L254.01053572893142,161.58018753775255L254.20202501331056,161.5901566947806L254.3935142976897,161.6003827432259L254.68074822425842,161.61252583075645L254.96798215082714,161.6253857413546L255.0637267930167,161.6348630527976L255.25521607739586,161.64392718841793L255.44670536177497,161.65255062696568L256.116917857102,161.6673535891252L256.40415178367067,161.67963933604457L256.49989642586024,161.68804878606934L256.6913857102394,161.69502548077023L256.88287499461853,161.70094818507508L257.0743642789977,161.70604724389082L257.17010892118725,161.70980690658985L257.3615982055664,161.7133166361104L257.6488321321351,161.71694323230867L257.84032141651426,161.7198919080705L258.127555343083,161.7224585091703L258.3190446274621,161.7242868895538L258.4147892696517,161.7254564083023" fill="none"></path></g></g></g></g><g opacity="0.2"><g><g><g><path style="fill: none;" stroke="rgb(255, 112, 67)" stroke-width="2px" d="M19.627651648862024,116.44468604560377L19.72339629105159,116.01340903119744L20.106374859809875,114.28829494876172L20.202119501999448,113.8570179343554L20.489353428568158,112.56318387873121L20.58509807075773,112.13190686432486L20.872331997326445,110.83807280870067L20.96807663951601,110.40679278188915L21.063821281705582,109.97551275507763L21.44679985046387,108.2504046974523L22.308501630170003,104.36889650576933L22.595735556738717,103.07506847495554L22.978714125497,101.34995439251982L23.17020340987614,100.48740036370715L23.361692694255286,99.6248403100841L23.457437336444855,99.19356028327257L23.648926620823996,98.33100625445991L23.840415905203137,97.46845222564724L24.22339447396142,95.74333814321153L24.319139116150993,95.31205811640001L24.41488375834056,94.88078411439886L24.510628400530134,94.44950408758734L24.606373042719706,94.01822406077581L25.18084089585713,91.43055594952743L25.372330180236272,90.56800192071476L25.46807482242584,90.13672189390323L25.563819464615413,89.7054478919021L25.659564106804982,89.27416786509058L25.946798033373696,87.980327784656L26.04254267556327,87.54905378265485L26.138287317752837,87.11777978065372L26.234031959942406,86.68649975384218L26.712755170890265,84.53011166940533L27.191478381838117,82.3737175601581L27.478712308406827,81.0798835045339L27.5744569505964,80.64860347772238L28.148924803733824,78.060935366474L28.914881941250393,74.61070720160257L29.202115867819106,73.31687917078877L29.29786051000868,72.88559914397723L29.96807300533567,69.86665100591733L30.255306931904382,68.57281695029315L30.446796216283527,67.71026292148048L31.117008711610524,64.69131478342057L31.212753353800093,64.26003475660904L31.499987280368803,62.96620070098484L31.595731922558375,62.53492669898371L32.26594441788537,59.5159785609238L32.45743370226451,58.65341850730076L32.648922986643655,57.7908584536777L32.74466762883323,57.359578426866165L32.8404122710228,56.92831044967542L33.51062476634979,53.90936231161551L33.98934797729765,51.752974227178655L34.180837261676785,50.8904141735556L34.27658190386636,50.459146196364856L34.37232654605593,50.02786616955334L34.65956047262464,48.73402608911874L34.94679439919336,47.440186008684165L35.138283683572496,46.57762595506113L35.23402832576207,46.146357977870366L35.52126225233078,44.85252994705657L36.095730105468206,42.26484978618742L36.19147474765778,41.83356975937588L36.38296403203692,40.9710217553736L36.670197958605634,39.6771937245598L36.86168724298477,38.81463367093674L36.95743188517434,38.38335364412522L37.14892116955348,37.520793590502166L37.34041045393263,36.65823353687913L37.4361550961222,36.22695351006759L38.10636759144919,33.208017421628455L38.87232472896576,32.34762629974507L38.96806937115533,32.34842157471628L39.0638140133449,32.34932529627447L39.44679258210318,32.354145144584834L40.404239003998896,32.374665648766225L40.49998364618847,32.37738886306159L40.6914729305676,32.38317268103401L40.882962214946744,32.38945053345828L41.07445149932589,32.39619832109278L41.3616854258946,32.40724782334429L41.45743006808417,32.411163950096466L41.553174710273744,32.415200573056396L41.84040863684246,32.42804546880352L42.797855058738165,32.478714124166245L42.98934434311731,32.490293809731895L43.56381219625473,32.527912725794295L43.85104612282344,32.54834888263025L43.94679076501301,32.55542201002571L44.042535407202585,32.56259153438738L44.13828004939216,32.56988155495681L44.3297693337713,32.584835134339734L44.71274790252958,32.616176197977886L44.90423718690872,32.63256368223311L45.09572647128786,32.64942110169862L45.287215755667006,32.666784605236714L45.765938966614854,32.71225987404502L46.34040681975228,32.77079693177442L47.01061931507928,32.84455266054379L47.10636395726885,32.8555539643122L47.5850871682167,32.9124281743745L47.680831810406275,32.92416450501024L47.96806573697499,32.96008442454324L48.063810379164565,32.97230274001002L48.15955502135413,32.984617452443004L48.54253359011241,33.03514151235642L48.638278232301985,33.04807075544898L48.82976751668112,33.07429073025736L49.11700144324984,33.11450031478658L49.49998001200812,33.16979602452726L49.595724654197696,33.18390613045585L49.69146929638726,33.19814878221298L49.78721393857683,33.21251193017787L49.97870322295597,33.241599714730945L50.26593714952469,33.286086914635604L50.36168179171426,33.301173039847065L50.457426433903834,33.31635556202472L50.744660360472544,33.36265020504577L51.031894287041254,33.410005214695104L51.60636214017868,33.50793248274097L51.79785142455783,33.54151477584344L52.08508535112654,33.59278591224495L52.18082999331611,33.61011326692072L52.37231927769525,33.645117415274754L52.46806391988481,33.662806258573795L52.946787130832675,33.75299767008151L53.04253177302225,33.77138539138557L53.42551034178053,33.846129189058566L53.61699962615967,33.88420599071044L53.90423355272838,33.9422128651257L54.28721212148667,34.021186079691034L54.67019069024495,34.10206313433898L54.86167997462409,34.14321258928872L55.24465854338237,34.226885155956666L55.340403185571944,34.24810453814305L55.436147827761516,34.26943236691642L55.627637112140654,34.312449513086435L56.10636032308851,34.422028764422606L56.202104965278075,34.44428441399572L56.585083534036364,34.534524023986535L56.68082817622594,34.557370104977686L56.77657281841551,34.580336682176565L57.73401924031121,34.81641285241828L58.21274245125907,34.93880085063924L58.88295494658606,35.11501450486621L58.97869958877563,35.140656097877354L59.45742279972349,35.27056305946249L59.55316744191306,35.296891480857866L59.744656726292206,35.34989776265111L59.93614601067134,35.40334988041308L60.31912457942963,35.51166392156776L61.180826359135764,35.762042991670484L61.3723156435149,35.818953350595145L61.468060285704475,35.84757119993794L61.755294212273185,35.93412362597133L62.32976206541062,36.11030113133596L63.09571920292718,36.35155863851132L63.19146384511675,36.3822369730068L63.28720848730632,36.413011704468495L63.47869777168547,36.474922656015146L63.57444241387504,36.50604682647932L63.86167634044374,36.600082067014554L63.957420982633316,36.63165207344746L64.43614419358117,36.79120110214133L64.53188883577074,36.82344588733769L65.58507989985603,37.185573140516226L65.87231382642473,37.28668150844693L65.9680584686143,37.32060119093113L66.15954775299345,37.38878999490203L66.35103703737259,37.45742463484163L66.63827096394131,37.56120801858458L67.69146202802658,37.95026617419731L68.07444059678487,38.09505441744069L68.17018523897444,38.13152861952939L68.36167452335357,38.20480236346772L68.64890844992229,38.31553837839837L68.84039773430143,38.38989658820654L69.31912094524928,38.57775017610306L69.41486558743887,38.6156462334433L69.98933344057627,38.84529995581146L70.18082272495542,38.922718769296694L70.27656736714499,38.96160289554059L70.37231200933456,39.00058341875067L70.46805665152414,39.039672388547736L70.56380129371371,39.07886980493177L70.65954593590328,39.118175667902804L70.85103522028243,39.19711273360582L71.04252450466156,39.27648358565676L71.52124771560942,39.47678443181479L71.61699235779898,39.51717476065567L71.71273699998856,39.55766148646274L71.90422628436771,39.6389723274586L72.28720485312597,39.8028712692526L72.47869413750512,39.88544732042994L72.67018342188426,39.96846920757598L73.05316199064255,40.135766142428785L73.14890663283212,40.17786751741981L73.24465127502168,40.22006528937708L73.62762984377997,40.38991674383437L74.01060841253826,40.56145514520027L74.10635305472782,40.60460483719882L74.39358698129655,40.73468049347483L74.58507626567568,40.821931797513216L74.68082090786525,40.865708069792106L74.77656555005481,40.90959278865799L74.8723101922444,40.95358595411085L74.96805483443396,40.997675516529924L75.06379947662354,41.041873525535976L75.25528876100267,41.13058283368827L75.35103340319225,41.17509413283449L75.82975661414011,41.39921707926649L75.92550125632967,41.44435495869307L76.21273518289838,41.58038312763238L76.30847982508796,41.62593069416532L76.59571375165666,41.76319997404454L76.7872030360358,41.85522292791021L77.1701816047941,42.04052199620222L77.36167088917324,42.13378606100778L77.55316017355239,42.22745981291975L77.74464945793152,42.32154325193808L78.03188338450023,42.46342753657447L78.41486195325851,42.654028438007884L78.5106065954481,42.70193773021292L78.70209587982723,42.798045505521614L78.98932980639594,42.94299039383509L79.37230837515423,43.13763996784921L79.85103158610208,43.383223288883116L80.52124408142907,43.7312283865123L80.61698872361865,43.78135480894011L80.80847800799779,43.88188479507356L80.90422265018735,43.93230040839998L80.99996729237694,43.98281241869262L81.0957119345665,44.033408776330695L81.28720121894564,44.13493888098855L81.57443514551434,44.287957015221885L81.95741371427263,44.4933548509681L82.0531583564622,44.544951327130576L82.4361369252205,44.752313251063285L82.7233708517892,44.90884987456319L83.10634942054749,45.11894706241203L83.39358334711619,45.27753212144384L83.48932798930578,45.33057455209943L83.58507263149534,45.383725429341986L83.68081727368492,45.436984753171515L83.77656191587448,45.49031637472571L83.96805120025363,45.59729290797428L84.06379584244318,45.650925770047884L84.15954048463277,45.704655029087675L84.35102976901192,45.8124027380659L84.44677441120147,45.866409138383545L84.54251905339105,45.92052398528819L84.63826369558062,45.974723179538245L84.82975297995976,46.08342280855778L85.0212422643389,46.19250802544213L85.11698690652847,46.247177154902445L85.78719940185547,46.63258427542006L86.07443332842418,46.79918233226787L86.17017797061376,46.854899778735685L86.26592261280332,46.91071362216973L86.45741189718247,47.022606400694855L86.74464582375117,47.19115649610835L86.93613510813032,47.30400119467478L87.12762439250946,47.4172073818645L87.51060296126774,47.64471627173454L87.89358153002603,47.8737193145808L88.18081545659473,48.046426529161984L88.27656009878432,48.10418036154093L88.37230474097387,48.16201854126533L88.46804938316346,48.21995311795591L88.56379402535302,48.27798409161273L89.04251723630087,48.569488517423636L89.6169850894383,48.9222532152593L89.80847437381745,49.04056844165801L89.90421901600702,49.0998525758755L89.99996365819658,49.15923310705921L90.2871975847653,49.337916933545245L90.57443151133401,49.51738398538171L90.67017615352357,49.57739109684577L90.9574100800923,49.75793056493131L91.05315472228186,49.81827506577707L91.14889936447145,49.87872801320984L91.34038864885058,49.99987490049088L91.53187793322971,50.12138327639519L92.10634578636714,50.48798093888162L92.39357971293586,50.67246063296086L92.48932435512542,50.73413059209201L92.77655828169415,50.91964655355797L92.87230292388371,50.98165390207084L92.96804756607328,51.04374559792912L93.15953685045241,51.16819408130276L93.255281492642,51.23055086881811L93.82974934577942,51.606462888164316L94.2127279145377,51.85875784797041L94.30847255672728,51.92204245628551L94.49996184110641,52.04887676457278L94.69145112548556,52.17603641262102L94.8829404098647,52.30353345005097L94.97868505205426,52.36740848978408L95.07442969424385,52.43135582724186L95.1701743364334,52.49541161128661L95.26591897862299,52.55952764343526L95.5531529051917,52.75239387357455L95.74464218957084,52.8813850639807L95.93613147394998,53.01070159414782L96.22336540051869,53.20530296967884L96.41485468489783,53.33543887405871L96.5105993270874,53.40063937207718L96.60634396927698,53.465912167820306L96.98932253803525,53.72781067538482L97.1808118224144,53.85925998842926L97.27655646460397,53.92509911634887L97.4680457489831,54.057018364603564L97.75527967555183,54.255499718024424L98.1382582443101,54.521266153857994L98.42549217087883,54.72142240456671L98.71272609744753,54.9222895829012L98.8084707396371,54.98939392100226L98.99996002401625,55.12385563924071L99.19144930839539,55.2586306476193L99.38293859277452,55.39371894613809L99.86166180372238,55.73278322515152L100.14889573029109,55.937156843131824L100.24464037248067,56.005429994448136L100.34038501467023,56.073775443489126L100.62761894123894,56.27929377544312L101.39357607875552,56.830672372528184L101.48932072094509,56.89993359274814L101.58506536313466,56.96927916031354L101.77655464751379,57.108175138997495L102.15953321627208,57.386858768302844L102.35102250065123,57.52664641892424L102.44676714284078,57.59665471563228L102.82974571159907,57.877398830090314L103.02123499597822,58.018210698477645L103.11697963816778,58.088725079258296L103.40421356473651,58.300714057568975L103.59570284911565,58.44239349865217L103.78719213349478,58.584374180254756L104.0744260600635,58.79786936116241L104.26591534444263,58.94054892077001L104.36165998663222,59.01200317197119L104.55314927101135,59.155116517926714L104.64889391320092,59.22678766230186L104.93612783976963,59.44219873291289L105.22336176633836,59.65823638380426L105.31910640852792,59.7304015626312L105.98931890385491,60.23741345601934L106.0850635460445,60.31012086778121L106.18080818823405,60.38290057726773L106.27655283042363,60.45574053485814L106.46804211480277,60.60163734321292L106.56378675699234,60.674688169166885L106.75527604137147,60.82098261500727L106.85102068356106,60.89424430932482L106.94676532575062,60.967554202125484L107.23399925231934,61.187923691685796L107.32974389450891,61.26151072576432L107.42548853669847,61.33515800794669L107.52123317888805,61.40887758785374L107.7127224632672,61.556515566410624L108.2871903164046,62.00102607683411L108.38293495859419,62.07534813777996L108.6701688851629,62.29867580924075L109.3403813804899,62.82204506283221L109.6276153070586,63.04730669842754L110.2978278023856,63.575128286895676L110.39357244457518,63.65079388055805L110.48931708676474,63.72650767270349L110.68080637114389,63.87812202611643L110.77655101333346,63.95402861219431L110.87229565552303,64.02999544637606L111.15952958209174,64.25825141273421L111.25527422428131,64.33445923933148L111.44676350866045,64.48706768645843L111.6382527930396,64.63992315081128L111.73399743522916,64.71643221792796L112.11697600398745,65.0230890418646L112.21272064617702,65.09989934950066L112.5956992149353,65.40774306108372L112.69144385712488,65.48485460923918L112.78718849931444,65.56203243030892L112.88293314150403,65.63925844986174L113.17016706807273,65.87128594752275L113.2659117102623,65.94874693468071L113.36165635245187,66.02626214513218L113.64889027902058,66.25916926510982L113.74463492121015,66.33691341835602L114.51059205872673,66.96096930315102L114.89357062748499,67.27434379067022L115.08505991186414,67.43136842381155L115.27654919624328,67.58860995012684L115.37229383843287,67.66731204822473L115.65952776500157,67.90374970708972L115.75527240719114,67.98267472317195L115.94676169157029,68.14067537559613L116.04250633375986,68.21975703674846L116.13825097594942,68.29889292119428L116.23399561813899,68.37809507855437L116.52122954470771,68.61598471672285L117.28718668222427,69.25269270333256L117.47867596660342,69.41239837709652L117.67016525098256,69.5722968447929L117.86165453536171,69.73241220566325L117.95739917755127,69.8125361590127L118.05314381974084,69.89272036046601L118.24463310411998,70.05323335882197L118.43612238849913,70.21394517592073L118.53186703068869,70.29438844422074L118.62761167287826,70.37487991100384L118.91484559944698,70.61661940301023L119.10633488382612,70.778030098114L119.77654737915312,71.34451289484167L119.87229202134267,71.42563696671552L120.1595259479114,71.66927427399412L120.35101523229055,71.83193812965857L120.92548308542797,72.32105633619449L121.02122772761753,72.40273469062402L121.21271701199667,72.5662359949324L121.40420629637582,72.7299240683628L121.78718486513411,73.05783039853777L122.1701634338924,73.38645970595928L122.36165271827153,73.55103945132711L122.55314200265066,73.71579391619619L122.84037592921939,73.96325095326075L122.93612057140895,74.0458209796277L123.03186521359852,74.12843317966737L123.1276098557881,74.21109960300053L123.70207770892551,74.70792956683303L123.79782235111509,74.79087313144404L124.37229020425251,75.28946233990982L124.56377948863165,75.45598207422258L124.7552687730108,75.6226644784158L124.85101341520037,75.7060599038059L124.94675805738994,75.7895035276791L125.80845983709608,76.5422312879297L125.99994912147521,76.70993188507849L126.28718304804394,76.9617569096743L126.6701616168022,77.29806182553008L126.86165090118135,77.46643117663193L126.95739554337094,77.55067007547635L127.34037411212921,77.88798715947729L127.43611875431878,77.97240680263334L127.62760803869793,78.14135453553244L127.72335268088749,78.22588262527549L127.81909732307707,78.31044686388086L128.1063312496458,78.56433839843976L128.20207589183534,78.64903518287366L129.15952231373106,79.49790084248488L129.3510115981102,79.66807161189273L129.44675624029978,79.75320820748496L129.7339901668685,80.00879873857326L129.82973480905804,80.09405583037325L129.92547945124764,80.17934907103556L130.21271337781633,80.43542761176529L130.3084580200059,80.52084134863536L130.40420266219547,80.60629725917813L131.84037229503903,81.89162428253454L132.12760622160775,82.14946809270793L132.3190955059869,82.32150655333605L132.41484014817647,82.40756494491764L132.6063294325556,82.57976607542622L132.70207407474518,82.66590881435324L132.98930800131387,82.92448162658359L133.27654192788262,83.18330145603984L133.37228657007216,83.26963096408888L133.46803121226174,83.35598457137947L133.5637758544513,83.44235625310122L133.75526513883045,83.61518396389016L133.9467544232096,83.7881140964557L134.13824370758874,83.96114062598744L134.3297329919679,84.13426355248538L134.42547763415746,84.22086417700189L134.61696691853658,84.39414374856992L134.80845620291575,84.567501642673L134.99994548729487,84.74095593374228L135.09569012948444,84.82771922813926L135.19143477167404,84.91450059696739L135.2871794138636,85.00131208984746L135.38292405605316,85.08813563234831L136.34037047794888,85.95764831715907L136.72334904670714,86.30603297784269L137.10632761546543,86.65474900309766L137.202072257655,86.7419701830841L137.29781689984458,86.82922148712251L137.48930618422372,87.0037722936824L137.77654011079244,87.26572502454039L138.06377403736116,87.52785247489963L138.25526332174027,87.70269247235815L138.44675260611945,87.87760476754133L138.542497248309,87.96508501437447L138.73398653268814,88.14009973133423L139.11696510144643,88.49030990956541L139.21270974363597,88.5779106526063L139.30845438582557,88.66552947007837L139.49994367020471,88.84079722907443L139.59568831239426,88.92845219540881L139.882922238963,89.19151349137819L139.97866688115255,89.27923473062685L140.07441152334212,89.36696199468588L140.17015616553172,89.45470733317609L140.36164544991084,89.63024018382923L140.8403686608587,90.06931631528278L141.12760258742742,90.33291984418706L141.60632579837528,90.77250808452358L141.7978150827544,90.94842049823116L142.1807936515127,91.30038389628523L142.37228293589183,91.47643488063173L142.75526150465012,91.82866337034287L142.85100614683967,91.91674007340441L142.94675078902927,92.00482882608674L143.04249543121884,92.09292962838983L143.23398471559796,92.26914930742718L143.52121864216667,92.53355413611308L143.61696328435625,92.62170916170967L143.80845256873542,92.79803126252362L143.90419721092496,92.88621038736176L143.99994185311454,92.97439553701028L144.57440970625194,93.50364500554039L144.76589899063111,93.68012375142443L144.8616436328207,93.76836914917683L145.0531329171998,93.94488404392321L145.1488775593894,94.03314149129639L145.4361114859581,94.29796805670944L145.53185612814767,94.38625562813456L146.0105793390955,94.82774770855367L146.1063239812851,94.91606540403075L146.20206862347467,95.0043891243182L146.48930255004336,95.26935426037016L146.68079183442254,95.44601375056584L146.77653647661208,95.53435554528446L146.87228111880165,95.62269131519268L146.96802576099125,95.71102708510091L147.0637704031808,95.79937490462991L147.15951504537037,95.88772272415892L147.7339828985078,96.41785181500566L148.21270610945564,96.85964513594416L148.30845075164524,96.94800500509396L148.4041953938348,97.03637089905412L148.88291860478265,97.47817626961341L149.26589717354094,97.83160972140215L149.45738645792008,98.00831138527053L149.55313110010962,98.09665920479954L149.9361096688679,98.45005048291556L150.3190882376262,98.80339356254846L150.98930073295318,99.42160538126714L151.18079001733236,99.59819859854855L151.46802394390104,99.86304926320315L151.65951322828022,100.03959428200146L151.75525787046976,100.12785775418503L152.0424917970385,100.3926240714942L152.13823643922805,100.48085741962583L152.3297257236072,100.65731809107871L152.42547036579677,100.74553938958957L152.7127042923655,101.01015508663903L154.3403632095882,102.5082663632773L154.43610785177776,102.59631294228691L154.53185249396734,102.68434144686535L154.62759713615688,102.77235790182301L155.01057570491517,103.12432129987708L155.2978096314839,103.38817787081767L155.39355427367346,103.47611600324029L155.68078820024218,103.73982797873157L155.77653284243175,103.82770586305031L155.87227748462132,103.91557169774828L156.2552560533796,104.266908515522L156.35100069556916,104.3547080773057L156.44674533775873,104.44249558946862L156.6382346221379,104.61804048974253L156.82972390651702,104.79351309229179L157.0212131908962,104.96893147154753L157.2127024752753,105.14428960269942L157.7871703284127,105.67000853234218L157.9786596127919,105.84511964626816L158.45738282373975,106.2825992029689L158.5531274659293,106.37004932575009L159.41482924563545,107.15625695732656L159.51057388782502,107.24352031098573L160.56376495191031,108.20213994143438L160.94674352066858,108.55011491501162L161.04248816285815,108.63705292890984L161.32972208942684,108.89774647439674L161.4254667316164,108.98460014094954L161.71270065818513,109.24502256996898L161.9041899425643,109.41852505952137L161.99993458475387,109.50524015543525L162.09567922694342,109.59193717691795L162.7658917222704,110.19812949891264L162.86163636446,110.28462770165254L162.95738100664957,110.37110180515089L163.05312564883914,110.45755783421808L163.34035957540786,110.71675722672877L163.53184885978698,110.88944034206841L163.62759350197655,110.9757397260655L163.72333814416615,111.06200898601065L163.8190827863557,111.14825414671427L164.29780599730356,111.57909134996227L164.4892952816827,111.75123825717738L164.96801849263053,112.18112354038409L165.06376313482014,112.26701624968L165.35099706138882,112.52451965806648L166.02120955671583,113.12434676788631L166.21269884109498,113.29545439530949L167.17014526299067,114.14917002728302L167.36163454736985,114.31953359062328L167.4573791895594,114.40466717381031L167.64886847393853,114.57483493081297L167.74461311612808,114.65987512943899L167.93610240050725,114.82984406769883L168.03184704269682,114.91478184454826L168.60631489583423,115.4237005904242L168.70205953802383,115.50840339966848L169.27652739116124,116.0158792034565L169.3722720333508,116.1003349954749L170.23397381305693,116.8588104248356L170.61695238181522,117.19496472043167L170.80844166619437,117.36280991302976L171.19142023495266,117.69805144985206L171.76588808809007,118.1997554852884L172.05312201465878,118.45008033209764L172.24461129903793,118.61675671148048L172.53184522560665,118.86647606484573L172.72333450998576,119.03275480674296L172.81907915217536,119.1158309171825L173.20205772093362,119.44772265942909L173.29780236312322,119.53058790150506L173.48929164750234,119.69619788944921L173.5850362896919,119.77894564772262L173.7765255740711,119.94430259363048L174.06375950063978,120.19202170994693L174.15950414282935,120.27450738896844L174.25524878501892,120.35695089431725L174.6382273537772,120.68627907974377L174.82971663815636,120.85068109320515L174.9254612803459,120.93281432081898L175.02120592253547,121.01490838716528L175.21269520691465,121.17895493681377L175.40418449129376,121.34282074215064L175.5956737756729,121.50650279077065L175.88290770224162,121.75168244950856L176.17014162881034,121.9964584459505L176.2658862709999,122.0779530436632L176.36163091318946,122.159402455298L176.64886483975818,122.40346752411413L176.84035412413735,122.56594461065656L176.93609876632692,122.64711085620311L177.2233326928956,122.89031738953898L177.3190773350852,122.97129686596351L177.6063112616539,123.21393104231251L177.9892898304122,123.53675544492523L178.08503447260173,123.61733427145896L178.1807791147913,123.69786791191478L178.8509916101183,124.26020262669036L179.04248089449746,124.42041438452692L179.13822553668706,124.50044194091015L179.2339701788766,124.58041828640509L179.5212041054453,124.82004306996531L179.6169487476349,124.89981457190704L179.80843803201404,125.05920093072045L180.19141660077233,125.3773591176877L180.28716124296187,125.4567570813854L180.38290588515144,125.53611287141037L180.67013981172016,125.77384285210358L181.05311838047845,126.09007008734149L181.14886302266802,126.16899209101854L181.34035230704714,126.32667041608694L181.43609694923674,126.40542673747832L181.5318415914263,126.48413486038659L181.6275862336159,126.5627767103806L181.81907551799503,126.7199128025141L182.10630944456372,126.95519068537942L182.2020540867533,127.03350418320727L182.2977987289429,127.11176647014685L182.39354337113244,127.18996850898253L182.77652193989073,127.50223141898515L182.8722665820803,127.58015029173261L183.35098979302816,127.96889816961036L183.54247907740728,128.1239918510223L183.63822371959688,128.2014558505855L183.73396836178645,128.27885960204478L184.11694693054474,128.5878841764639L184.40418085711343,128.81903807661863L184.59567014149258,128.9728424486076L184.88290406806126,129.20311371404048L184.97864871025084,129.27974628977015L185.07439335244044,129.35631861739586L185.17013799463,129.43283069691773L185.26588263681955,129.5092855407409L185.45737192119873,129.66200845926525L185.64886120557784,129.81449038537403L185.93609513214656,130.04275237654258L186.03183977433613,130.11871619831913L186.22332905871528,130.27045707275025L186.31907370090482,130.34623412540475L186.41481834309442,130.4219509299554L186.7020522696631,130.6487247929581L186.8935415540423,130.79959508228814L186.98928619623183,130.87493533618957L187.0850308384214,130.95021232958186L187.18077548061098,131.02544112449112L187.85098797593798,131.55015391079908L187.94673261812756,131.62485553479934L188.23396654469627,131.84857783134055L188.71268975564413,132.22014596239703L189.09566832440242,132.51621719448204L189.67013617753983,132.95835091720747L189.7658808197294,133.03180540545745L189.95737010410852,133.1785095384042L190.3403486728668,133.47110445489534L190.4360933150564,133.54408599552985L190.53183795724598,133.6170012632501L190.7233272416251,133.76261791792186L190.81907188381467,133.8353223172785L190.91481652600424,133.9079604437209L191.2977950947625,134.19782612110632L191.6807736635208,134.48657720856994L191.87226294789997,134.63054909000576L191.96800759008954,134.70242206552888L192.7339647276061,135.27487243694583L192.82970936979567,135.34610979497305L193.11694329636435,135.55939109511192L193.40417722293307,135.7720247281341L193.78715579169136,136.0545250748202L193.9786450760705,136.19533694320754L194.3616236448288,136.47609913209672L194.84034685577663,136.82537998332558L194.9360914979662,136.89501323558696L195.3190700667245,137.17280218054972L195.4148147089141,137.2420618945671L195.70204863548278,137.44939670685304L195.79779327767235,137.518355180351L195.89353791986196,137.58723984992173L196.18077184643064,137.79343747924693L196.46800577299936,137.99896334221393L196.56375041518893,138.06731632226789L196.75523969956805,138.20379183337852L196.94672898394722,138.33995706675412L197.04247362613677,138.40792596514586L197.13821826832634,138.47581503479998L197.80843076365335,138.94888164025977L197.9999200480325,139.083340346093L198.09566469022204,139.15045221520705L198.6701325433595,139.55148166906062L198.76587718554904,139.618039255619L198.86162182773862,139.6845185196423L198.9573664699282,139.7509194611306L199.0531111121178,139.81724057388124L199.2446003964969,139.94964481937217L199.53183432306562,140.147644187962L200.2020468183926,140.60682812408533L200.29779146058218,140.67210091982847L200.39353610277178,140.73729238063135L201.25523788247787,141.3203509369389L201.54247180904662,141.513214154673L201.63821645123616,141.5773377178346L202.02119501999445,141.8329975342424L202.11693966218402,141.89670086687946L202.21268430437362,141.96032738318405L202.3084289465632,142.02386352733288L202.5956628731319,142.21397491292225L202.69140751532146,142.27717668009453L202.78715215751103,142.34029259371877L202.8828967997006,142.40332867860536L203.2658753684589,142.65462351988705L203.36162001064847,142.7172318432361L203.457364652838,142.77975431303713L203.74459857940673,142.96681111975985L203.93608786378587,143.0910909084426L204.12757714816502,143.21502276432548L204.31906643254416,143.33861120601625L204.41481107473373,143.4002781527422L204.5105557169233,143.4618562335149L204.70204500130245,143.58475031580844L204.79778964349202,143.64607083593708L205.27651285443986,143.95135550930783L205.56374678100858,144.1334840211332L205.75523606538772,144.25446221372337L206.04246999195644,144.4352607486556L206.32970391852515,144.61526551481919L206.42544856071473,144.6750933881742L206.61693784509384,144.79447500601157L206.80842712947302,144.91349814763086L207.38289498261042,145.2684272585984L207.4786396248,145.3272685692524L207.67012890917914,145.44468007409287L207.8616181935583,145.5617406337283L208.72331997326444,146.08396969195383L208.81906461545398,146.14154127381855L208.91480925764355,146.19901645871707L209.01055389983316,146.25640428386495L210.15948960610797,146.93784648760524L210.35097889048714,147.05012937260298L210.54246817486626,147.1620296821411L210.7339574592454,147.2735579596378L211.1169360280037,147.495486368886L211.21268067019327,147.55073388014355L211.30842531238284,147.6058880068401L211.4041699545724,147.66094573657045L211.49991459676198,147.71590857553718L211.59565923895153,147.7707810423481L211.6914038811411,147.8255540997876L211.88289316552027,147.9348215671862L211.97863780770982,147.9893084461323L212.0743824498994,148.04370796532774L212.26587173427856,148.15221178800968L212.7445949452264,148.42181150945257L213.03182887179508,148.58241638616695L213.22331815617426,148.68900883775328L213.31906279836383,148.74215820879323L213.51055208274295,148.84817077237975L213.79778600931166,149.00645910949996L214.08501993588038,149.16387912082297L214.27650922025953,149.26833878953198L214.56374314682824,149.42429778433595L214.85097707339693,149.57938845334274L214.94672171558653,149.63088401393122L215.23395564215522,149.78478779529155L215.4254449265344,149.88689477554408L215.52118956872394,149.9378044233223L216.28714670624052,150.3414953371648L216.3828913484301,150.3915140661069L216.5743806328092,150.49124199935744L217.05310384375707,150.73882405123757L217.53182705470493,150.9839118316171L217.62757169689453,151.0326269422115L217.72331633908408,151.08123812482674L217.91480562346322,151.17816301504428L218.01055026565277,151.2264737102414L218.20203955003194,151.3227893415085L218.39352883441106,151.41870432288476L218.6807627609798,151.56181164402994L218.77650740316935,151.60930823672336L219.15948597192764,151.79828846416245L219.6382091828755,152.03221678950086L219.82969846725462,152.12507041409873L220.40416632039208,152.40115132531648L220.49991096258162,152.44680507913253L220.5956556047712,152.49235490496937L220.69140024696077,152.53780381523222L220.78714488915037,152.5831450320094L221.07437881571906,152.71855189237746L221.2658681000982,152.80830123342295L221.55310202666692,152.9421469147992L221.64884666885646,152.98655503906755L221.93608059542518,153.1191581033013L222.12756987980435,153.20702996280963L222.31905916418347,153.29448535729992L222.41480380637304,153.33805302051914L222.51054844856262,153.38151600265786L222.8935270173209,153.55432488591433L223.2765055860792,153.7254415505531L223.37225022826874,153.76795637815704L223.4679948704583,153.81036727778175L223.8509734392166,153.97894599104458L223.9467180814062,154.02082444805126L224.13820736578532,154.10427409673485L224.2339520079749,154.1458324856897L224.42544129235404,154.2286337141553L224.5211859345436,154.26987203505826L224.61693057673318,154.31100642798205L224.8084198611123,154.39295213337255L224.9041645033019,154.43376645824443L224.99990914549147,154.4744730896307L225.09565378768104,154.5150712744299L225.38288771424976,154.63621891481228L225.57437699862888,154.71645206785L225.67012164081845,154.75640333863385L226.24458949395589,154.9938637090622L226.34033413614546,155.03307016266183L226.43607877833503,155.07216063866147L226.81905734709332,155.227437323689L227.01054663147244,155.30442385702892L227.2020359158516,155.38097811022348L227.5850144846099,155.53277659690394L228.25522697993688,155.79421646577762L228.5424609065056,155.90462186923827L228.7339501908847,155.9776832386104L228.9254394752639,156.0502968892606L229.02118411745346,156.08643822057536L229.21267340183257,156.15839290758942L229.40416268621175,156.22990401793862L229.59565197059086,156.300971551623L229.69139661278044,156.33634170720808L229.78714125496998,156.37159965069972L230.07437518153873,156.47671112858256L230.17011982372827,156.51152587196003L230.45735375029702,156.61530661984844L230.55309839248656,156.64967816311173L230.84033231905528,156.75212479204984L231.127566245624,156.85357280866617L231.51054481438229,156.98726786978273L232.08501266751972,157.18445351241954L232.1807573097093,157.21692385145477L232.46799123627798,157.31366799736068L232.56373587846758,157.34569099422464L232.7552251628467,157.40939771581756L232.94671444722584,157.47265370628332L233.04245908941542,157.5041137599266L233.23394837379456,157.56669836058475L233.3296930159841,157.5978191420931L233.52118230036328,157.65972143297483L233.61692694255285,157.69050294234822L233.7126715847424,157.72116885067226L233.80841622693197,157.75172668896L233.99990551131114,157.8124951858368L234.19139479569026,157.87281295158647L234.28713943787983,157.90279993908996L234.67011800663812,158.02161484820022L234.76586264882766,158.0510355035272L234.95735193320684,158.10953302343842L235.24458585977553,158.19642509815742L235.4360751441547,158.2537850585573L235.72330907072342,158.3389690995313L236.29777692386082,158.50623741653473L236.87224477699826,158.66937949152376L237.25522334575652,158.77584033865818L237.54245727232527,158.85447710521842L238.0211804832731,158.98323634042464L238.21266976765224,159.0339296598549L238.49990369422096,159.10910385492L239.07437154735837,159.25631746089516L239.17011618954794,159.28044757960024L239.3616054739271,159.32836063731176L239.6488394004958,159.3993551201702L239.93607332706452,159.46930467497697L240.0318179692541,159.49238591184857L240.12756261144364,159.51535531317734L240.9892643911498,159.716809533974L241.08500903333936,159.73860692140698L241.18075367552893,159.7602885195153L241.2764983177185,159.781854328299L241.46798760209765,159.82463537721196L241.6594768864768,159.86694592608865L241.94671081304548,159.9295307150221L242.04245545523506,159.9501596657905L242.42543402399335,160.03149554740452L242.6169233083725,160.07146169193902L242.71266795056206,160.09126543195956L242.80841259275164,160.11095357093077L242.9041572349412,160.13052215507088L243.67011437245776,160.28284103474854L244.5318161521639,160.4451696661975L244.72330543654306,160.4799419534893L245.01053936311177,160.53121742022324L245.4892625740596,160.6143000261615L245.77649650062835,160.66272603999496L245.8722411428179,160.67863153941917L246.15947506938664,160.72563080284263L246.2552197115762,160.74106203672412L246.54245363814488,160.7866385035194L246.82968756471362,160.83114302475394L247.02117684909274,160.86021640624466L247.2126661334719,160.88881928769916L247.49990006004063,160.93082134745646L247.78713398660932,160.97175536836602L247.8828786287989,160.985158406313L247.97862327098846,160.9984457961418L248.1701125553676,161.02465805166187L248.9360696928842,161.124737353737L249.1275589772633,161.14856284296684L249.31904826164248,161.17191020700977L249.5105375460216,161.194779398797L249.98926075696946,161.24985294365464L250.4679839679173,161.30193041620268L250.85096253667558,161.34143389766132L251.23394110543387,161.37902099519386L251.32968574762344,161.38811702328033L251.42543038981302,161.39709349653566L251.8084089585713,161.4317964043703L251.90415360076085,161.44017522114203L251.99989824295042,161.4484306705073L252.09564288514002,161.45656270539726L252.3828768117087,161.4802493651096L252.86160002265657,161.51731978808252L253.1488339492253,161.53811839845278L253.3403232336044,161.55137877077254L253.7233018023627,161.57646511631697L253.81904644455227,161.5824340089335L253.91479108674187,161.58828338202053L254.01053572893142,161.59401321204362L254.20202501331056,161.60511043032272L254.3935142976897,161.61572181589383L254.68074822425842,161.63074046205222L254.96798215082714,161.64467560725183L255.0637267930167,161.64907901996213L255.25521607739586,161.65752339184846L255.44670536177497,161.66548578478734L256.116917857102,161.68955803236452L256.40415178367067,161.6980679564236L256.49989642586024,161.7006629611065L256.6913857102394,161.70549052282158L256.88287499461853,161.70983224153235L257.0743642789977,161.71369583211444L257.17010892118725,161.71544640063834L257.3615982055664,161.71858123039124L257.6488321321351,161.72238312660608L257.84032141651426,161.72431492171327L258.127555343083,161.72630841082L258.3190446274621,161.72702946012907L258.4147892696517,161.72721068642508" fill="none"></path></g></g></g></g></g></g><g transform="translate(61, 177)" clip-path="url(#clip_1)"><clipPath id="clip_1"><rect width="268" height="22"></rect></clipPath><g><g><line x1="0" y1="0" x2="0" y2="5" style="visibility: inherit;" fill="rgb(0, 0, 0)" stroke="rgb(204, 204, 204)" stroke-width="1px"></line><line x1="19.148928437914165" y1="0" x2="19.148928437914165" y2="5" style="visibility: inherit;" fill="rgb(0, 0, 0)" stroke="rgb(204, 204, 204)" stroke-width="1px"></line><line x1="38.29785687582833" y1="0" x2="38.29785687582833" y2="5" style="visibility: inherit;" fill="rgb(0, 0, 0)" stroke="rgb(204, 204, 204)" stroke-width="1px"></line><line x1="57.446785313742495" y1="0" x2="57.446785313742495" y2="5" style="visibility: inherit;" fill="rgb(0, 0, 0)" stroke="rgb(204, 204, 204)" stroke-width="1px"></line><line x1="76.59571375165666" y1="0" x2="76.59571375165666" y2="5" style="visibility: inherit;" fill="rgb(0, 0, 0)" stroke="rgb(204, 204, 204)" stroke-width="1px"></line><line x1="95.74464218957084" y1="0" x2="95.74464218957084" y2="5" style="visibility: inherit;" fill="rgb(0, 0, 0)" stroke="rgb(204, 204, 204)" stroke-width="1px"></line><line x1="114.89357062748499" y1="0" x2="114.89357062748499" y2="5" style="visibility: inherit;" fill="rgb(0, 0, 0)" stroke="rgb(204, 204, 204)" stroke-width="1px"></line><line x1="134.04249906539917" y1="0" x2="134.04249906539917" y2="5" style="visibility: inherit;" fill="rgb(0, 0, 0)" stroke="rgb(204, 204, 204)" stroke-width="1px"></line><line x1="153.19142750331332" y1="0" x2="153.19142750331332" y2="5" style="visibility: inherit;" fill="rgb(0, 0, 0)" stroke="rgb(204, 204, 204)" stroke-width="1px"></line><line x1="172.34035594122753" y1="0" x2="172.34035594122753" y2="5" style="visibility: inherit;" fill="rgb(0, 0, 0)" stroke="rgb(204, 204, 204)" stroke-width="1px"></line><line x1="191.48928437914168" y1="0" x2="191.48928437914168" y2="5" style="visibility: inherit;" fill="rgb(0, 0, 0)" stroke="rgb(204, 204, 204)" stroke-width="1px"></line><line x1="210.63821281705583" y1="0" x2="210.63821281705583" y2="5" style="visibility: inherit;" fill="rgb(0, 0, 0)" stroke="rgb(204, 204, 204)" stroke-width="1px"></line><line x1="229.78714125496998" y1="0" x2="229.78714125496998" y2="5" style="visibility: inherit;" fill="rgb(0, 0, 0)" stroke="rgb(204, 204, 204)" stroke-width="1px"></line><line x1="248.9360696928842" y1="0" x2="248.9360696928842" y2="5" style="visibility: inherit;" fill="rgb(0, 0, 0)" stroke="rgb(204, 204, 204)" stroke-width="1px"></line><line x1="268.08499813079834" y1="0" x2="268.08499813079834" y2="5" style="visibility: inherit;" fill="rgb(0, 0, 0)" stroke="rgb(204, 204, 204)" stroke-width="1px"></line></g><g transform="translate(0, 8)"><text style="text-anchor: middle; visibility: hidden; font-family: Roboto, sans-serif; font-size: 12px; font-weight: 200;" x="0" y="0" dx="0em" dy="0.95em" fill="rgb(50, 49, 63)" stroke="none" stroke-width="1px">-200</text><text style="text-anchor: middle; visibility: inherit; font-family: Roboto, sans-serif; font-size: 12px; font-weight: 200;" x="19.148928437914165" y="0" dx="0em" dy="0.95em" fill="rgb(50, 49, 63)" stroke="none" stroke-width="1px">0</text><text style="text-anchor: middle; visibility: hidden; font-family: Roboto, sans-serif; font-size: 12px; font-weight: 200;" x="38.29785687582833" y="0" dx="0em" dy="0.95em" fill="rgb(50, 49, 63)" stroke="none" stroke-width="1px">200</text><text style="text-anchor: middle; visibility: inherit; font-family: Roboto, sans-serif; font-size: 12px; font-weight: 200;" x="57.446785313742495" y="0" dx="0em" dy="0.95em" fill="rgb(50, 49, 63)" stroke="none" stroke-width="1px">400</text><text style="text-anchor: middle; visibility: hidden; font-family: Roboto, sans-serif; font-size: 12px; font-weight: 200;" x="76.59571375165666" y="0" dx="0em" dy="0.95em" fill="rgb(50, 49, 63)" stroke="none" stroke-width="1px">600</text><text style="text-anchor: middle; visibility: inherit; font-family: Roboto, sans-serif; font-size: 12px; font-weight: 200;" x="95.74464218957084" y="0" dx="0em" dy="0.95em" fill="rgb(50, 49, 63)" stroke="none" stroke-width="1px">800</text><text style="text-anchor: middle; visibility: hidden; font-family: Roboto, sans-serif; font-size: 12px; font-weight: 200;" x="114.89357062748499" y="0" dx="0em" dy="0.95em" fill="rgb(50, 49, 63)" stroke="none" stroke-width="1px">1k</text><text style="text-anchor: middle; visibility: inherit; font-family: Roboto, sans-serif; font-size: 12px; font-weight: 200;" x="134.04249906539917" y="0" dx="0em" dy="0.95em" fill="rgb(50, 49, 63)" stroke="none" stroke-width="1px">1.2k</text><text style="text-anchor: middle; visibility: hidden; font-family: Roboto, sans-serif; font-size: 12px; font-weight: 200;" x="153.19142750331332" y="0" dx="0em" dy="0.95em" fill="rgb(50, 49, 63)" stroke="none" stroke-width="1px">1.4k</text><text style="text-anchor: middle; visibility: inherit; font-family: Roboto, sans-serif; font-size: 12px; font-weight: 200;" x="172.34035594122753" y="0" dx="0em" dy="0.95em" fill="rgb(50, 49, 63)" stroke="none" stroke-width="1px">1.6k</text><text style="text-anchor: middle; visibility: hidden; font-family: Roboto, sans-serif; font-size: 12px; font-weight: 200;" x="191.48928437914168" y="0" dx="0em" dy="0.95em" fill="rgb(50, 49, 63)" stroke="none" stroke-width="1px">1.8k</text><text style="text-anchor: middle; visibility: inherit; font-family: Roboto, sans-serif; font-size: 12px; font-weight: 200;" x="210.63821281705583" y="0" dx="0em" dy="0.95em" fill="rgb(50, 49, 63)" stroke="none" stroke-width="1px">2k</text><text style="text-anchor: middle; visibility: hidden; font-family: Roboto, sans-serif; font-size: 12px; font-weight: 200;" x="229.78714125496998" y="0" dx="0em" dy="0.95em" fill="rgb(50, 49, 63)" stroke="none" stroke-width="1px">2.2k</text><text style="text-anchor: middle; visibility: inherit; font-family: Roboto, sans-serif; font-size: 12px; font-weight: 200;" x="248.9360696928842" y="0" dx="0em" dy="0.95em" fill="rgb(50, 49, 63)" stroke="none" stroke-width="1px">2.4k</text><text style="text-anchor: middle; visibility: hidden; font-family: Roboto, sans-serif; font-size: 12px; font-weight: 200;" x="268.08499813079834" y="0" dx="0em" dy="0.95em" fill="rgb(50, 49, 63)" stroke="none" stroke-width="1px">2.6k</text></g><line x1="0" y1="0" x2="268.08499813079834" y2="0" fill="rgb(0, 0, 0)" stroke="rgb(204, 204, 204)" stroke-width="1px"></line></g></g></g></g></svg>