<svg viewBox="0 0 330 200" xmlns="http://www.w3.org/2000/svg"><g><g><g><g><g><line x1="51.53200149536133" y1="177.89999961853027" x2="46.53200149536133" y2="177.89999961853027" style="visibility: inherit;" fill="rgb(0, 0, 0)" stroke="rgb(204, 204, 204)" stroke-width="1px"></line><line x1="51.53200149536133" y1="158.13333299424912" x2="46.53200149536133" y2="158.13333299424912" style="visibility: inherit;" fill="rgb(0, 0, 0)" stroke="rgb(204, 204, 204)" stroke-width="1px"></line><line x1="51.53200149536133" y1="138.366666369968" x2="46.53200149536133" y2="138.366666369968" style="visibility: inherit;" fill="rgb(0, 0, 0)" stroke="rgb(204, 204, 204)" stroke-width="1px"></line><line x1="51.53200149536133" y1="118.59999974568684" x2="46.53200149536133" y2="118.59999974568684" style="visibility: inherit;" fill="rgb(0, 0, 0)" stroke="rgb(204, 204, 204)" stroke-width="1px"></line><line x1="51.53200149536133" y1="98.83333312140572" x2="46.53200149536133" y2="98.83333312140572" style="visibility: inherit;" fill="rgb(0, 0, 0)" stroke="rgb(204, 204, 204)" stroke-width="1px"></line><line x1="51.53200149536133" y1="79.06666649712456" x2="46.53200149536133" y2="79.06666649712456" style="visibility: inherit;" fill="rgb(0, 0, 0)" stroke="rgb(204, 204, 204)" stroke-width="1px"></line><line x1="51.53200149536133" y1="59.29999987284343" x2="46.53200149536133" y2="59.29999987284343" style="visibility: inherit;" fill="rgb(0, 0, 0)" stroke="rgb(204, 204, 204)" stroke-width="1px"></line><line x1="51.53200149536133" y1="39.5333332485623" x2="46.53200149536133" y2="39.5333332485623" style="visibility: inherit;" fill="rgb(0, 0, 0)" stroke="rgb(204, 204, 204)" stroke-width="1px"></line><line x1="51.53200149536133" y1="19.76666662428115" x2="46.53200149536133" y2="19.76666662428115" style="visibility: inherit;" fill="rgb(0, 0, 0)" stroke="rgb(204, 204, 204)" stroke-width="1px"></line><line x1="51.53200149536133" y1="0" x2="46.53200149536133" y2="0" style="visibility: inherit;" fill="rgb(0, 0, 0)" stroke="rgb(204, 204, 204)" stroke-width="1px"></line></g><g transform="translate(41.53200149536133, 0)"><text style="text-anchor: end; visibility: hidden; font-family: Roboto, sans-serif; font-size: 12px; font-weight: 200;" x="0" y="177.89999961853027" dx="0em" dy="0.3em" fill="rgb(50, 49, 63)" stroke="none" stroke-width="1px">-0.1</text><text style="text-anchor: end; visibility: inherit; font-family: Roboto, sans-serif; font-size: 12px; font-weight: 200;" x="0" y="158.13333299424912" dx="0em" dy="0.3em" fill="rgb(50, 49, 63)" stroke="none" stroke-width="1px">0</text><text style="text-anchor: end; visibility: hidden; font-family: Roboto, sans-serif; font-size: 12px; font-weight: 200;" x="0" y="138.366666369968" dx="0em" dy="0.3em" fill="rgb(50, 49, 63)" stroke="none" stroke-width="1px">0.1</text><text style="text-anchor: end; visibility: inherit; font-family: Roboto, sans-serif; font-size: 12px; font-weight: 200;" x="0" y="118.59999974568684" dx="0em" dy="0.3em" fill="rgb(50, 49, 63)" stroke="none" stroke-width="1px">0.2</text><text style="text-anchor: end; visibility: hidden; font-family: Roboto, sans-serif; font-size: 12px; font-weight: 200;" x="0" y="98.83333312140572" dx="0em" dy="0.3em" fill="rgb(50, 49, 63)" stroke="none" stroke-width="1px">0.3</text><text style="text-anchor: end; visibility: inherit; font-family: Roboto, sans-serif; font-size: 12px; font-weight: 200;" x="0" y="79.06666649712456" dx="0em" dy="0.3em" fill="rgb(50, 49, 63)" stroke="none" stroke-width="1px">0.4</text><text style="text-anchor: end; visibility: hidden; font-family: Roboto, sans-serif; font-size: 12px; font-weight: 200;" x="0" y="59.29999987284343" dx="0em" dy="0.3em" fill="rgb(50, 49, 63)" stroke="none" stroke-width="1px">0.5</text><text style="text-anchor: end; visibility: inherit; font-family: Roboto, sans-serif; font-size: 12px; font-weight: 200;" x="0" y="39.5333332485623" dx="0em" dy="0.3em" fill="rgb(50, 49, 63)" stroke="none" stroke-width="1px">0.6</text><text style="text-anchor: end; visibility: hidden; font-family: Roboto, sans-serif; font-size: 12px; font-weight: 200;" x="0" y="19.76666662428115" dx="0em" dy="0.3em" fill="rgb(50, 49, 63)" stroke="none" stroke-width="1px">0.7</text><text style="text-anchor: end; visibility: hidden; font-family: Roboto, sans-serif; font-size: 12px; font-weight: 200;" x="0" y="0" dx="0em" dy="0.3em" fill="rgb(50, 49, 63)" stroke="none" stroke-width="1px">0.8</text></g><line x1="51.53200149536133" y1="0" x2="51.53200149536133" y2="177.89999961853027" fill="rgb(0, 0, 0)" stroke="rgb(204, 204, 204)" stroke-width="1px"></line></g></g><g transform="translate(51, 0)" clip-path="url(#clip_0)"><clipPath id="clip_0"><rect width="278" height="177"></rect></clipPath><g><g><g><line x1="0" y1="0" x2="0" y2="177.89999961853027" fill="rgb(0, 0, 0)" stroke="rgb(60, 60, 60)" stroke-width="1px" opacity="0.25"></line><line x1="19.890571321759904" y1="0" x2="19.890571321759904" y2="177.89999961853027" fill="rgb(0, 0, 0)" stroke="rgb(60, 60, 60)" stroke-width="1px" opacity="0.25"></line><line x1="39.78114264351981" y1="0" x2="39.78114264351981" y2="177.89999961853027" fill="rgb(0, 0, 0)" stroke="rgb(60, 60, 60)" stroke-width="1px" opacity="0.25"></line><line x1="59.671713965279714" y1="0" x2="59.671713965279714" y2="177.89999961853027" fill="rgb(0, 0, 0)" stroke="rgb(60, 60, 60)" stroke-width="1px" opacity="0.25"></line><line x1="79.56228528703961" y1="0" x2="79.56228528703961" y2="177.89999961853027" fill="rgb(0, 0, 0)" stroke="rgb(60, 60, 60)" stroke-width="1px" opacity="0.25"></line><line x1="99.45285660879952" y1="0" x2="99.45285660879952" y2="177.89999961853027" fill="rgb(0, 0, 0)" stroke="rgb(60, 60, 60)" stroke-width="1px" opacity="0.25"></line><line x1="119.34342793055943" y1="0" x2="119.34342793055943" y2="177.89999961853027" fill="rgb(0, 0, 0)" stroke="rgb(60, 60, 60)" stroke-width="1px" opacity="0.25"></line><line x1="139.23399925231934" y1="0" x2="139.23399925231934" y2="177.89999961853027" fill="rgb(0, 0, 0)" stroke="rgb(60, 60, 60)" stroke-width="1px" opacity="0.25"></line><line x1="159.12457057407923" y1="0" x2="159.12457057407923" y2="177.89999961853027" fill="rgb(0, 0, 0)" stroke="rgb(60, 60, 60)" stroke-width="1px" opacity="0.25"></line><line x1="179.01514189583915" y1="0" x2="179.01514189583915" y2="177.89999961853027" fill="rgb(0, 0, 0)" stroke="rgb(60, 60, 60)" stroke-width="1px" opacity="0.25"></line><line x1="198.90571321759904" y1="0" x2="198.90571321759904" y2="177.89999961853027" fill="rgb(0, 0, 0)" stroke="rgb(60, 60, 60)" stroke-width="1px" opacity="0.25"></line><line x1="218.79628453935896" y1="0" x2="218.79628453935896" y2="177.89999961853027" fill="rgb(0, 0, 0)" stroke="rgb(60, 60, 60)" stroke-width="1px" opacity="0.25"></line><line x1="238.68685586111886" y1="0" x2="238.68685586111886" y2="177.89999961853027" fill="rgb(0, 0, 0)" stroke="rgb(60, 60, 60)" stroke-width="1px" opacity="0.25"></line><line x1="258.57742718287875" y1="0" x2="258.57742718287875" y2="177.89999961853027" fill="rgb(0, 0, 0)" stroke="rgb(60, 60, 60)" stroke-width="1px" opacity="0.25"></line><line x1="278.4679985046387" y1="0" x2="278.4679985046387" y2="177.89999961853027" fill="rgb(0, 0, 0)" stroke="rgb(60, 60, 60)" stroke-width="1px" opacity="0.25"></line></g><g><line x1="0" y1="177.89999961853027" x2="278.4679985046387" y2="177.89999961853027" fill="rgb(0, 0, 0)" stroke="rgb(60, 60, 60)" stroke-width="1px" opacity="0.25"></line><line x1="0" y1="158.13333299424912" x2="278.4679985046387" y2="158.13333299424912" fill="rgb(0, 0, 0)" stroke="rgb(60, 60, 60)" stroke-width="1px" opacity="0.25"></line><line x1="0" y1="138.366666369968" x2="278.4679985046387" y2="138.366666369968" fill="rgb(0, 0, 0)" stroke="rgb(60, 60, 60)" stroke-width="1px" opacity="0.25"></line><line x1="0" y1="118.59999974568684" x2="278.4679985046387" y2="118.59999974568684" fill="rgb(0, 0, 0)" stroke="rgb(60, 60, 60)" stroke-width="1px" opacity="0.25"></line><line x1="0" y1="98.83333312140572" x2="278.4679985046387" y2="98.83333312140572" fill="rgb(0, 0, 0)" stroke="rgb(60, 60, 60)" stroke-width="1px" opacity="0.25"></line><line x1="0" y1="79.06666649712456" x2="278.4679985046387" y2="79.06666649712456" fill="rgb(0, 0, 0)" stroke="rgb(60, 60, 60)" stroke-width="1px" opacity="0.25"></line><line x1="0" y1="59.29999987284343" x2="278.4679985046387" y2="59.29999987284343" fill="rgb(0, 0, 0)" stroke="rgb(60, 60, 60)" stroke-width="1px" opacity="0.25"></line><line x1="0" y1="39.5333332485623" x2="278.4679985046387" y2="39.5333332485623" fill="rgb(0, 0, 0)" stroke="rgb(60, 60, 60)" stroke-width="1px" opacity="0.25"></line><line x1="0" y1="19.76666662428115" x2="278.4679985046387" y2="19.76666662428115" fill="rgb(0, 0, 0)" stroke="rgb(60, 60, 60)" stroke-width="1px" opacity="0.25"></line><line x1="0" y1="0" x2="278.4679985046387" y2="0" fill="rgb(0, 0, 0)" stroke="rgb(60, 60, 60)" stroke-width="1px" opacity="0.25"></line></g></g></g><g><g><line x1="0" y1="158.13333299424912" x2="278.4679985046387" y2="158.13333299424912" fill="rgb(0, 0, 0)" stroke="rgb(153, 153, 153)" stroke-width="1.5px"></line></g></g><g><g><line x1="19.890571321759904" y1="0" x2="19.890571321759904" y2="177.89999961853027" fill="rgb(0, 0, 0)" stroke="rgb(153, 153, 153)" stroke-width="1.5px"></line></g></g><g><g><g><g><g><path style="fill: none;" stroke="rgb(255, 112, 67)" stroke-width="2px" d="M20.387835604803904,-4.082190020072993L20.4872884614127,3.9947256787392593L20.8850998878479,6.798441140687099L20.9845527444567,14.316389882428021L21.282911314283098,15.50871745799756L21.3823641708919,18.5350697453291L21.6807227407183,9.348944750541241L21.780175597327094,10.895064296193262L21.879628453935894,17.9370559981344L22.277439880371094,13.45527031634489L23.17251558985029,21.800225224673497L23.470874159676686,23.5174368127743L23.868685586111887,28.253086526775288L24.067591299329482,37.32504023160168L24.266497012547084,33.35361433747857L24.365949869155884,31.574492557472457L24.564855582373482,26.51959771003532L24.76376129559108,28.11367618815177L25.161572722026282,11.078823246307879L25.26102557863508,10.614404484404007L25.360478435243877,13.650764394436424L25.45993129185268,19.888608121158317L25.55938414846148,10.276620976604189L26.156101288114275,5.377012092055575L26.355007001331874,12.898109763622266L26.454459857940673,12.895762429529523L26.553912714549476,19.088155069081754L26.65336557115827,7.871254217510304L26.95172414098467,11.69644970699645L27.05117699759347,12.5320771488401L27.150629854202272,9.982806577945032L27.250082710811068,13.313880633370616L27.747346993855068,1.8529843133357498L28.244611276899064,9.39006270290397L28.542969846725462,10.927335073850866L28.64242270333426,9.30278264143648L29.239139842987058,10.845804581444797L30.034762695857456,10.00057925198633L30.333121265683857,20.127281327945823L30.432574122292657,21.36509469028063L31.12874411855425,15.174394061537852L31.42710268838065,21.15829423497525L31.62600840159825,27.132220699743183L32.322178397859844,28.742258744630032L32.42163125446864,24.838955482558763L32.71998982429504,35.16437718127605L32.81944268090384,33.91970206559226L33.51561267716544,32.5418751720782L33.714518390383034,14.353654848702574L33.91342410360064,28.148966393314293L34.01287696020944,29.329227869927532L34.11232981681824,24.320863433484966L34.808499813079834,23.772195847896118L35.30576409612383,24.930637835876226L35.50466980934143,28.175126018447827L35.60412266595023,37.12478646929335L35.703575522559035,36.07028790036217L36.001934092385426,33.141173959468894L36.30029266221183,34.8768831603292L36.49919837542942,25.070145417261525L36.59865123203822,34.720101569225406L36.89700980186463,37.27800708629612L37.49372694151742,41.90845542224908L37.59317979812622,43.824613365844804L37.792085511343814,32.06757265997809L38.09044408117022,28.548488043890327L38.28934979438782,33.009585506527884L38.38880265099662,33.83441499174086L38.587708364214215,31.531330329935802L38.786614077431814,41.19523858306068L38.88606693404062,32.69001060888569L39.582236930302216,32.343183681086956L40.3778597831726,35.60932929819267L40.4773126397814,36.00241687361285L40.57676549639021,39.802383155322374L40.9745769228254,39.01192761357463L41.9691054889134,48.66416972682611L42.0685583455222,38.6968268648109L42.2674640587398,41.927976855172396L42.466369771957396,48.300069147711085L42.665275485174995,50.29861735284583L42.96363405500139,49.40227802156224L43.06308691161019,43.45969146363519L43.16253976821899,43.54913375449086L43.460898338045396,42.740098978457006L44.45542690413339,50.19599707268729L44.65433261735099,50.63754366533527L45.251049757003784,51.54738189150367L45.54940832683018,49.08559023164144L45.64886118343898,43.42366758781187L45.74831404004778,47.580721381822954L45.84776689665658,50.44219867989799L46.046672609874186,53.681347390302435L46.444484036309376,52.53049828559991L46.64338974952698,48.37125152997935L46.84229546274457,52.48783872968635L47.04120117596217,49.95802572769165L47.53846545900617,53.93070454587963L48.135182598658965,55.19905827546189L48.83135259492057,48.96559061767682L48.930805451529366,42.31272530978447L49.42806973457336,48.67185743996876L49.52752259118216,31.563338828287197L49.82588116100857,41.67825275802196L49.92533401761737,47.69126088529532L50.02478687422616,48.74581602653369L50.42259830066136,48.99756173810579L50.52205115727016,49.50836564195148L50.720956870487754,46.93786596114891L51.01931544031416,45.12551669251749L51.417126866749356,42.45432468437664L51.516579723358156,39.075368133126986L51.616032579966955,52.38561781336395L51.715485436575754,47.050716274999154L51.914391149793346,49.03771097928355L52.21274971961975,54.01004885330605L52.31220257622855,55.132220667912556L52.41165543283735,52.689101523419595L52.71001400266375,49.82428127492256L53.008372572490146,51.060659195285425L53.60508971214295,57.10725041354007L53.80399542536055,52.37674502218758L54.10235399518694,50.564226325352884L54.201806851795745,59.173025666237095L54.40071256501334,52.722853645849796L54.500165421622135,50.50133306341875L54.99742970466614,52.27947984844816L55.09688256127494,51.313145542551716L55.494693987710136,47.3344080667991L55.693599700927734,47.192286912516614L55.99195827075413,42.19274272481105L56.38976969718934,50.29320270324008L56.78758112362453,52.51293486159119L56.98648683684213,48.92900872270505L57.38429826327733,56.002765844193114L57.48375111988613,57.94120104374381L57.58320397649493,53.75150786021158L57.78210968971252,57.306111254484236L58.279373972756524,56.85547379812471L58.378826829365316,57.85619992903448L58.77663825580052,58.275084346226734L58.87609111240932,60.45540804663678L58.97554396901812,61.816344902973455L59.97007253510611,57.31695450462504L60.46733681815011,56.60535688594359L61.163506814411704,50.62059738200608L61.26295967102051,46.217100259432286L61.76022395406451,51.831520816920694L61.85967681067331,48.84994845551969L62.058582523890905,49.503425253816864L62.2574882371085,47.74009701837862L62.6552996635437,51.49511362836185L63.550375373022895,52.810354199262825L63.749281086240494,63.44530194441368L63.84873394284929,63.25109500634617L64.14709251267568,65.97065099120744L64.7438096523285,62.83983505690305L65.53943250519889,61.1877172768663L65.63888536180768,57.6116780647855L65.73833821841649,63.808583240344966L65.93724393163409,62.00460792817879L66.03669678824289,60.47699128825612L66.33505535806928,61.5149291318439L66.43450821467809,51.75419772551781L66.93177249772208,44.863694058563595L67.03122535433089,53.812579406471905L68.12520677702767,63.353072464513474L68.42356534685408,57.09514292680918L68.52301820346288,57.99970685995954L68.72192391668047,59.4591628028119L68.92082962989807,56.5563636272333L69.21918819972447,60.941411808982096L70.31316962242127,52.260859535965L70.71098104885647,62.62478499790683L70.81043390546526,63.59626004508767L71.00933961868286,64.06259899909675L71.30769818850926,58.9021866723687L71.50660390172686,63.0825049714323L72.00386818477085,62.3460164829974L72.10332104137966,58.29185015759281L72.70003818103245,58.48233923243258L72.89894389425005,57.50739108758275L72.99839675085884,59.51613788270401L73.09784960746765,70.19197745278488L73.19730246407644,69.61519551552419L73.29675532068525,67.29340412394994L73.39620817729404,72.21480313493439L73.59511389051166,67.75087988357394L73.79401960372925,68.03819937702734L74.29128388677324,67.5963513181502L74.39073674338204,63.44470660026066L74.49018959999086,62.331100674109L74.68909531320845,69.33418541078613L75.08690673964364,67.44133163787053L75.28581245286124,73.12647248157064L75.48471816607884,73.5792660516242L75.88252959251405,70.03777425628896L75.98198244912284,75.52574604127311L76.08143530573163,74.29574026354811L76.47924673216683,64.55384564619519L76.87705815860204,68.39351092229622L76.97651101521083,64.92491215699677L77.27486958503724,70.79898858057133L77.47377529825482,68.99031576503893L77.57322815486363,66.7607267085546L77.67268101147242,72.07541424146946L77.77213386808124,76.3902913494168L77.87158672469003,70.75605320453765L77.97103958129884,69.12892079228331L78.16994529451642,72.4202211535517L78.26939815112523,61.34964063441807L78.76666243416922,62.12328209143553L78.86611529077801,67.08433102848521L79.16447386060443,73.45345261020012L79.26392671721322,77.64768448736444L79.56228528703961,72.65388949169193L79.76119100025721,65.67746508941029L80.15900242669242,69.64553056049184L80.35790813991002,70.06974835145368L80.55681385312762,71.74038451987764L80.7557195663452,72.23349804944202L81.05407813617163,73.19522692596483L81.45188956260681,75.17971715403858L81.55134241921562,79.5951794298471L81.75024813243321,61.115977804942446L82.0486067022596,60.91242514006452L82.44641812869482,65.2278171310881L82.9436824117388,70.42970144297391L83.63985240800041,77.75552974129906L83.7393052646092,75.85699203021778L83.9382109778268,73.18510944238963L84.03766383443559,76.23750543293636L84.1371166910444,78.27085097151074L84.23656954765319,74.10827705632435L84.4354752608708,76.26307243783076L84.7338338306972,77.91712939128921L85.13164525713239,75.44892040249447L85.23109811374118,79.56578118931358L85.6289095401764,71.66641217027102L85.92726811000279,66.32171021519439L86.32507953643798,70.11695645000071L86.62343810626439,74.20926806161846L86.7228909628732,70.57802098189354L86.82234381948199,70.60197940009645L86.92179667609079,70.7198957177144L87.02124953269958,74.32828542458984L87.22015524591718,79.36066607372943L87.31960810252598,76.15477388701973L87.41906095913478,72.45183262333586L87.6179666723524,64.53047941960384L87.71741952896119,68.5612474519098L87.81687238556998,72.45049333760521L87.91632524217879,77.13743977116073L88.11523095539638,65.18506269911683L88.31413666861397,68.03368401560043L88.41358952522278,67.93078920531126L89.10975952148438,77.14031609336169L89.40811809131077,74.43054635632379L89.50757094791958,74.11145442672074L89.60702380452837,77.5998555574486L89.80592951774598,76.9651360738178L90.10428808757237,72.19414854915942L90.30319380078997,72.28085034878255L90.50209951400757,74.24298288355683L90.89991094044277,81.69396633167818L91.29772236687796,82.610836613421L91.59608093670435,73.02515688887311L91.69553379331316,75.10908790405378L91.79498664992195,75.17338402476535L91.89443950653077,74.94845116458346L91.99389236313957,81.00863163405667L92.49115664618355,69.80453664645046L93.08787378583636,71.8911060511404L93.28677949905396,78.0407704005784L93.38623235566276,71.9550396386425L93.48568521227155,73.94168836256242L93.78404378209795,77.78757261965586L94.08240235192434,79.79685503056061L94.18185520853315,75.33052338243127L94.48021377835956,76.5258695821589L94.57966663496835,73.70106867518228L94.67911949157715,72.04895389529999L94.87802520479474,75.99895345686272L95.07693091801234,79.97738091757385L95.67364805766515,79.82514679644362L95.97200662749154,75.82114300748138L96.07145948410033,75.37341822030596L96.36981805392675,72.91848644462809L96.46927091053554,68.38291993053487L96.56872376714435,72.84962159830995L96.76762948036193,75.13671549756968L96.86708233697074,64.2050524369086L97.46379947662354,70.95645279696012L97.86161090305873,76.3002168938157L97.96106375966754,71.18588916921564L98.15996947288512,67.25490342478597L98.35887518610272,68.75258264075L98.55778089932033,79.84062069523985L98.65723375592913,79.00949604041477L98.75668661253793,80.30646965955273L98.85613946914673,74.9932198580693L98.95559232575553,80.13923327400094L99.25395089558192,74.20203974293236L99.45285660879952,77.2079479171083L99.65176232201713,83.67109959819126L99.95012089184353,79.1366497215974L100.14902660506112,75.77188247280985L100.24847946166992,78.96121546618127L100.34793231827872,74.93723813063116L100.74574374471392,81.66447036681089L100.94464945793152,83.12762272441113L101.04410231454032,86.0575167870573L101.24300802775791,88.27206830211517L101.54136659758431,85.48212550995319L101.93917802401951,77.115681780337L102.23753659384592,78.08408762445323L102.53589516367231,82.40507957442244L102.6353480202811,76.23547413745518L102.83425373349871,80.81849201150663L103.03315944671631,83.93247976349471L103.23206515993391,77.24865974569256L103.7293294429779,83.25749631031003L104.0276880128043,80.42868677103802L104.12714086941311,73.15310204963639L104.2265937260219,73.06733908838906L104.5249522958483,73.35705073973448L105.3205751487187,72.06789696261403L105.4200280053275,80.20364280907879L105.5194808619363,75.84037341036525L105.71838657515389,69.177723384151L106.1161980015891,68.34332719546762L106.3151037148067,74.93730568942622L106.41455657141549,76.80092493178364L106.81236799785069,81.0117947744249L107.01127371106828,80.01027425987603L107.11072656767708,80.17650893026422L107.4090851375035,78.40149090088354L107.6079908507211,84.19837644832995L107.80689656393868,87.25456668807242L108.10525513376508,81.35478901846969L108.30416084698268,85.2045585399375L108.40361370359149,85.33536447533152L108.60251941680909,85.87976606392354L108.70197227341788,88.33752244111568L109.00033084324427,77.88835117604688L109.29868941307069,86.10379587663775L109.39814226967948,79.87420965495257L110.09431226594107,83.2983932717842L110.19376512254988,80.88632344994771L110.29321797915867,85.06802130848064L110.39267083576746,88.02787728113154L110.59157654898507,91.47369157649243L110.69102940559388,91.7764096178915L110.88993511881147,87.6016113361412L110.98938797542027,85.11729169782825L111.08884083202906,83.80966499836512L111.38719940185547,87.96358631672413L111.48665225846426,86.56518060962544L111.58610511507307,82.69268510621689L111.68555797168187,85.23349482378326L111.88446368489947,81.98212941884276L112.48118082455225,82.73748362976444L112.58063368116107,78.83023294379967L112.87899225098747,87.41560448411084L113.57516224724905,81.9117027112076L113.87352081707546,76.89392172356607L114.56969081333705,78.66900819076966L114.66914366994585,75.27676889082007L114.76859652655466,77.446363371813L114.96750223977226,75.29494894971292L115.06695509638105,73.68419004107093L115.16640795298986,77.2280512766824L115.46476652281625,78.97840206995585L115.56421937942504,80.7394446315946L115.76312509264264,81.5769206629557L115.96203080586025,80.31487609572397L116.06148366246904,76.1250328626857L116.45929508890424,84.76769428572592L116.55874794551305,82.86594197834057L116.95655937194823,85.45110375501714L117.05601222855705,85.0547974498912L117.15546508516584,85.82028779945918L117.25491794177465,85.11146799326451L117.55327651160104,87.1911155410889L117.65272936820983,90.68215915568686L117.75218222481864,93.50937377696232L118.05054079464504,87.03168259874542L118.14999365125384,84.16188172811682L118.94561650412423,87.2539054649536L119.34342793055943,87.51124616578898L119.54233364377703,83.86360000392774L119.74123935699463,84.51299640170313L119.84069221360343,84.99465050000026L120.13905078342982,91.37044430796433L120.23850364003863,86.99194646269679L120.43740935325623,84.7266707691787L120.53686220986503,88.16946752767703L120.63631506647383,74.61801168494483L120.73576792308262,76.77826728935018L121.03412649290902,69.14992975440114L121.82974934577942,76.61955691859238L122.02865505899702,79.46958449662232L122.22756077221462,85.91421579893195L122.42646648543223,88.12102125655838L122.52591934204102,87.33753631535598L122.62537219864981,87.20850874206552L122.82427791186741,87.15728089743948L123.02318362508501,84.08016506413064L123.1226364816938,88.65419635594705L123.22208933830261,85.56571503663743L123.52044790812901,78.78016121494457L123.71935362134661,81.65576669059173L124.4155236176082,84.6974691083274L124.514976474217,87.38764604735313L124.81333504404341,88.09752574668755L125.01224075726101,92.70702641787621L125.6089578969138,77.41568224197401L125.7084107535226,76.92876585007158L125.9073164667402,78.58450008560017L126.1062221799578,85.17535685687854L126.504033606393,90.97626847850803L126.9018450328282,87.79317230034513L127.10075074604579,82.32524259040085L127.29965645926339,79.40312903456217L127.5980150290898,85.39232577255268L127.69746788569859,78.14946240318909L127.79692074230738,79.37526410209927L127.8963735989162,80.03489356196903L128.49309073856898,86.23556587145231L128.5925435951778,87.85326694600268L129.18926073483058,85.507204516059L129.38816644804817,84.43793240554737L129.58707216126578,91.06129436513261L129.68652501787457,91.81496395257429L129.7859778744834,87.82424367076584L130.68105358396258,83.82056611741837L130.87995929718016,86.29397718238971L131.17831786700657,85.42945783468899L131.57612929344177,90.35994205235842L131.77503500665938,87.17329015356054L131.87448786326817,89.87822956862635L132.27229928970337,96.7956791965193L132.37175214631216,101.40004951215681L132.57065785952977,97.16371941520384L132.67011071613857,91.61089485388572L132.7695635727474,92.38107761089955L133.06792214257376,89.6637604031689L133.16737499918256,86.98995046534024L134.16190356527056,94.74423415229904L134.36080927848815,92.15896090226839L134.46026213509697,84.95576948456205L134.75862070492335,89.24055365303487L134.85807356153214,91.51243139775717L134.95752641814096,94.9884422317319L135.25588498796736,90.01602459910491L135.35533784457616,88.73150285684082L135.45479070118495,82.04660672409949L136.94658355031694,85.7880377402566L137.24494212014335,91.59467963619635L137.44384783336093,91.30616307477251L137.54330068996975,89.7946465978512L137.74220640318734,94.00959971620838L137.84165925979613,84.90579121522848L138.14001782962254,80.26781156776289L138.43837639944894,81.64165389303213L138.53782925605773,84.06526785896395L138.63728211266653,79.92580669560992L138.73673496927535,84.88266843172498L138.93564068249293,91.09572717962294L139.13454639571054,92.05618932543196L139.33345210892813,97.40923212006832L139.53235782214574,96.86743533658642L139.63181067875453,94.20903699555811L139.83071639197212,94.99557436894821L140.02962210518973,85.02323660359218L140.22852781840731,91.05155400376596L140.3279806750161,90.23292480111023L140.42743353162496,86.03613586381132L140.52688638823375,87.82819835740126L140.62633924484254,86.55100541960418L141.62086781093052,88.69618072286073L142.01867923736572,88.29258551253803L142.41649066380091,93.47677920272051L142.51594352040973,89.07947554195306L142.61539637701853,90.28245760969106L142.81430209023614,92.19248898124438L143.11266066006252,91.17156612632527L143.41101922988892,88.2593104772917L143.6099249431065,92.08953739277308L143.80883065632412,93.49975551672384L143.9082835129329,87.45436809516589L144.1071892261505,83.90115394562568L144.5050006525857,76.23682148210536L144.60445350919449,83.25550217225222L144.70390636580333,89.47388093338272L144.90281207902092,93.74438267223526L145.0022649356297,102.1848638213441L145.30062350545612,99.32484183167641L145.4000763620649,96.99250113885408L145.4995292186737,99.71248440455373L145.59898207528252,89.56529270616805L145.7978877885001,91.30528041537482L146.2951520715441,93.86032140627165L146.5935106413705,95.64686316703964L147.09077492441452,98.79920162811355L147.2896806376321,99.97715233532622L147.6874920640673,92.39674990758273L147.88639777728488,86.4616078104029L148.28420920372008,91.12822533091159L148.38366206032887,95.79785077679293L148.4831149169377,98.29933257156297L148.5825677735465,98.77825207393973L148.78147348676407,94.04786641738262L149.0798320565905,92.82210627863108L149.1792849131993,95.54616229851312L149.3781906264169,92.88130171415466L149.4776434830257,90.84369990756853L149.5770963396345,90.87561616687033L150.17381347928728,91.99744117920025L150.3727191925049,96.29010945408501L150.47217204911368,96.09723924753324L150.67107776233127,98.09799948816885L150.77053061894009,96.9342433471738L151.06888918876646,94.74683197715227L151.16834204537525,89.97195822196373L151.66560632841927,92.67824264850128L151.7650591850281,88.05401973334743L151.86451204163689,89.53592487416827L152.16287061146326,93.34616123350723L152.36177632468087,97.97838777788398L152.46122918128967,104.8909503485873L152.56068203789846,99.40730505033322L152.66013489450728,100.32251306817882L152.75958775111607,92.74955939809774L152.85904060772486,90.5394821298636L153.45575774737767,84.0496647188932L153.95302203042166,84.30308729795236L154.05247488703048,89.56102059025422L154.15192774363928,92.48162805040815L154.64919202668327,91.11825128425605L155.04700345311846,85.5321617928766L155.24590916633605,86.87482185255506L155.34536202294484,92.41770476775712L155.74317344938007,91.91894186392089L156.14098487581526,92.36922901470722L156.83715487207684,87.12657169934089L157.03606058529445,88.7275624266609L157.33441915512083,80.9903299359219L157.53332486833844,87.26457091628866L157.63277772494723,88.88428364904243L157.93113629477367,90.35941548699316L158.03058915138246,85.93662207132066L158.22949486460004,93.46714540479572L158.32894772120886,97.7520467899231L158.62730629103524,100.35549139271176L160.31800485338485,97.84114124151039L160.41745770999364,90.72651181291756L160.51691056660243,87.94525887657885L160.61636342321123,90.03330124944304L161.01417484964642,90.47681480416303L161.31253341947283,91.33650675002531L161.41198627608162,94.62457741970312L161.71034484590803,96.09709407525165L161.80979770251682,92.56134941745056L161.9092505591256,91.93600924416509L162.30706198556084,99.29084840572982L162.40651484216963,96.2874098568134L162.50596769877842,99.587887495636L162.70487341199603,87.79871017991479L162.90377912521362,93.10265843818506L163.10268483843123,92.37480998921909L163.30159055164881,88.69953623285616L163.8983076913016,93.69703483288826L164.0972134045192,98.78737343703295L164.59447768756323,95.27324391366956L164.69393054417202,93.76176439322484L165.5890062536512,97.27676575406694L165.68845911026,94.4009241417686L166.78244053295683,90.63563430623161L167.180251959392,89.88336391495078L167.27970481600082,93.57826140830626L167.5780633858272,97.17365767012187L167.67751624243598,96.89885737954943L167.9758748122624,88.45447198204245L168.17478052548,88.52830964781913L168.2742333820888,93.11013312302289L168.3736862386976,95.55443542451222L169.0698562349592,92.20449933154576L169.169309091568,97.12753515782232L169.2687619481768,99.11409964075196L169.3682148047856,102.97069371815799L169.666573374612,103.03782871227185L169.86547908782958,101.40117758803918L169.96493194443838,103.58051920801952L170.0643848010472,105.89840262332366L170.163837657656,103.76469432072355L170.66110194069998,101.3637560678824L170.8600076539176,95.68750677936515L171.35727193696158,92.36910549635198L171.4567247935704,78.44873751054436L171.75508336339678,80.93808214584486L172.45125335965838,84.85063026864252L172.65015907287597,90.1358035620499L173.64468763896397,93.18121403434823L173.84359335218159,100.60891626535617L173.94304620879038,92.21223282815075L174.14195192200796,92.10104193273158L174.24140477861675,93.70138161194606L174.44031049183437,95.0436967812716L174.53976334844316,97.51962988372513L175.13648048809594,102.48415486321858L175.2359333447048,104.6706993975549L175.83265048435757,99.50405228920526L175.93210334096636,100.12387492723879L176.82717905044555,99.6628811563583L177.22499047688075,98.17748814492283L177.42389619009836,106.30967308570209L177.82170761653356,104.32472188932864L178.41842475618634,102.3132159108383L178.71678332601275,99.593145581485L178.91568903923033,100.47753954603512L179.21404760905673,105.21528184639013L179.41295332227432,102.11672128479115L179.51240617888317,102.544880594363L179.91021760531834,103.00369590620383L180.00967046192716,105.34263056697293L180.20857617514474,99.48151384789631L180.30802903175353,98.61389178551546L180.50693474497115,98.86962709487277L180.80529331479752,93.19780989492222L180.90474617140634,95.33296263431447L181.00419902801514,96.59890517338711L181.40201045445033,95.32362713716047L181.60091616766792,97.23606513597434L181.7003690242767,92.89814061776444L181.79982188088553,96.98790166308203L181.99872759410314,95.50784287038752L182.19763330732073,93.53000518888926L182.39653902053834,95.8938059216812L182.69489759036472,92.31379377096559L182.99325616019112,95.51845124172803L183.09270901679992,100.12877557637603L183.1921618734087,99.55342032687263L183.4905204432351,97.27396649045104L183.68942615645273,96.38072106905307L183.78887901306155,95.15614580773581L184.08723758288792,102.48561492482862L184.18669043949674,100.02031492149322L184.48504900932312,100.13256378802905L184.88286043575832,96.62996735503752L184.9823132923671,102.5770399142455L185.0817661489759,100.27964630300038L185.7779361452375,101.48229802992678L185.9768418584551,102.70478741032004L186.07629471506394,98.77493941507677L186.17574757167273,104.44185462794361L186.4741061414991,106.63579312314442L186.57355899810793,98.30464255532823L186.7724647113255,93.49743557674368L187.1702761377607,95.80905867586544L187.2697289943695,96.83493292737359L187.3691818509783,102.19192573674428L187.6675404208047,91.27138124905672L188.0653518472399,97.8805230817652L188.1648047038487,95.56054125367048L188.3637104170663,100.69454558138176L188.46316327367512,100.3446197208561L188.5626161302839,100.7455555573148L188.6620689868927,99.6854548583492L188.86097470011032,97.34370046256932L189.1593332699367,99.54379303733269L189.2587861265455,107.91148465680084L189.3582389831543,106.30155994529086L189.4576918397631,103.15209108831891L189.8555032661983,100.42309188592719L189.9549561228071,104.58023781976154L190.4522204058511,103.24002286613378L190.6511261190687,102.54796050834467L190.7505789756775,105.47391595386522L190.8500318322863,99.83816240226861L191.2478432587215,93.50908191068403L191.54620182854788,92.71448351399044L191.7451075417655,97.3148305832897L192.04346611159187,101.29110968884643L192.14291896820066,97.39175896726283L192.24237182480948,102.86255580842091L192.34182468141827,103.36644802218449L192.44127753802707,97.76290646831464L192.6401832512447,100.82502924802189L192.8390889644623,105.01307799967206L193.1374475342887,105.015653025943L193.2369003908975,105.6698018612659L193.43580610411507,96.36862916367501L193.53525896072387,98.22672733434784L193.6347118173327,97.4949106261954L193.93307038715906,95.40773280926248L194.13197610037668,99.057482190681L194.23142895698547,94.85417170067385L194.33088181359426,94.9993420813754L194.43033467020305,101.89498302613606L195.12650466646468,104.8494426116302L195.22595752307348,103.51858429694398L195.52431609289988,101.08273127733128L196.02158037594387,100.48130875783507L196.41939180237907,103.10333961896913L197.01610894203188,102.36683220037477L197.11556179864067,105.97953998965987L197.31446751185825,100.9820470353182L197.71227893829345,101.8743804519358L197.81173179490227,105.2498252426128L197.91118465151106,99.33143917240099L198.11009036472865,105.1441282053731L198.20954322133744,103.56391726039382L198.30899607794626,99.09415995681829L198.70680750438143,99.063782961502L199.10461893081663,100.96240743832796L199.30352464403427,102.41438556702569L199.40297750064306,99.98811499472627L200.19860035351346,102.27294674030423L200.29805321012225,101.74171771517639L200.59641177994862,102.95912400900843L200.89477034977503,102.98514973954894L201.29258177621026,109.40396814688648L201.49148748942784,104.21863570094125L201.88929891586304,103.77463767911539L202.38656319890703,100.23722931658142L202.48601605551582,104.95128723975881L202.88382748195102,103.59194419930351L202.98328033855984,102.34323516026463L203.2816389083862,100.18401666751392L203.381091764995,100.34058226544445L203.48054462160385,101.50075325812277L203.77890319143023,98.84308115439859L204.07726176125664,106.76134973719718L204.17671461786543,111.00545681674342L204.375620331083,110.2290336668367L204.57452604430063,100.86562101347357L204.67397890090942,97.96534728625508L204.7734317575182,101.95110864612192L205.4696017537798,99.90837613604508L205.66850746699743,97.15184291408532L205.76796032360622,100.57470390912555L206.36467746325903,108.67515531299331L206.46413031986782,111.8347312184732L206.5635831764766,110.09397533014645L206.6630360330854,109.84882498336304L206.76248888969423,102.02130488610908L206.9613946029118,107.37507850914976L207.25975317273821,110.1802537961556L207.95592316899982,111.10714436917917L208.0553760256086,105.77068940290282L208.15482888221743,107.10079982870485L209.0499045916966,103.37961650363874L209.348263161523,108.38408900894002L209.44771601813179,108.39053812343899L209.84552744456698,105.91412993200066L209.94498030117578,108.24245794643161L210.04443315778462,98.10473119795363L210.14388601439342,107.23134841946366L210.4422445842198,111.02896456220166L210.5416974408286,107.61938715824188L210.6411502974374,101.59334014691936L210.7406031540462,105.48191949935581L211.1384145804814,107.77761849606226L211.2378674370902,110.90768726115716L211.33732029369898,108.49117887549544L211.63567886352538,105.80432082665493L211.83458457674297,102.40201493889785L212.03349028996058,102.02708003554635L212.2323960031782,102.20759386670875L212.331848859787,106.47930095279861L212.4313017163958,108.5519221334648L212.6302074296134,103.85734864686766L212.72966028622218,95.56975604207005L213.22692456926617,99.70115018132418L213.52528313909258,98.40939362581989L213.72418885231016,97.19685598539164L214.02254742213657,101.6085157272399L214.320905991963,99.06163082281637L214.4203588485718,102.55760415065565L214.61926456178938,108.82908692074186L214.818170275007,92.27072996462579L215.41488741465977,99.43677269762358L215.51434027126857,103.00185056301353L215.71324598448618,109.33125176751597L215.91215169770376,104.21580642480487L216.80722740718298,103.90001209379639L216.90668026379177,95.117312557755L217.00613312040056,100.18167018343853L217.10558597700938,99.66872576327005L218.29902025631495,98.56930116834619L218.49792596953256,96.18416128096705L218.69683168275017,98.1889432758619L218.89573739596776,94.02745304588224L219.29354882240295,95.66999694404316L219.39300167901175,99.4149530616385L219.49245453562057,104.43861810141779L219.59190739222936,94.3004948512258L219.69136024883815,90.00769178467884L219.79081310544694,99.98985651962704L219.89026596205574,98.25984182715304L220.08917167527335,100.7151354646895L220.18862453188214,104.13274245722867L220.28807738849093,103.56058994343756L220.48698310170855,103.97076197203499L220.98424738475256,102.34487980540541L221.28260595457894,100.58907618745208L221.48151166779655,99.90498804804842L221.58096452440535,103.47832433955992L221.77987023762293,104.63305942498286L222.07822880744934,108.42738096551584L222.37658737727574,109.25085688792124L222.57549309049332,107.84479607629959L222.87385166031973,108.81550933412703L223.17221023014613,103.1862447801737L223.27166308675496,103.46928372195151L223.57002165658133,104.28164449272073L223.76892736979894,100.07881193941788L223.86838022640774,99.71219211727222L224.66400307927813,103.39222511909752L224.76345593588692,103.25850062548442L224.9623616491045,106.42985191849516L225.45962593214853,97.76068959183117L225.95689021519252,103.95246755749729L226.05634307180134,99.75338550461832L226.15579592841013,103.3454041060208L226.3547016416277,108.15717652258132L226.4541544982365,105.74426482908513L226.65306021145412,107.24981913507527L226.8519659246717,103.20974252677327L227.1503244944981,106.08365229589032L227.2497773511069,99.37451473973414L227.64758877754213,106.77531678084331L228.14485306058612,107.53396472234999L228.3437587738037,108.05422936541672L228.9404759134565,112.65620973899844L229.0399287700653,115.54146910595232L229.1393816266741,109.9448916284691L229.2388344832829,107.93554298352909L229.3382873398917,108.4018409576332L229.6366459097181,111.62513270201936L229.83555162293572,107.65025712722331L230.1339101927621,105.56535191615136L230.2333630493709,111.12948643338898L230.5317216191973,111.30267261257725L230.7306273324149,112.92038139140055L230.9295330456325,106.08898217187541L231.0289859022413,101.74074912192935L231.12843875885008,103.66323895051254L231.52625018528528,103.33256359813146L231.9240616117205,106.67170169182579L232.0235144683293,106.96877423507522L232.1229673249381,108.53613456781169L232.52077875137329,107.5536053416955L232.6202316079821,109.06242611939746L232.8191373211997,107.55853968649228L232.91859017780848,107.8127426391038L233.1174958910261,105.86590343259536L233.2169487476349,111.33767670913572L233.31640160424368,109.33413439843976L233.51530731746126,109.34665427197689L233.61476017407008,105.04135585985631L233.71421303067888,104.94241081843028L233.81366588728767,103.89966213887766L234.1120244571141,110.00215700609986L234.3109301703317,110.43949373100247L234.41038302694048,108.79071451883418L235.0071001665933,108.07230939943146L235.10655302320208,104.9442332342396L235.20600587981087,99.70216087620791L235.60381730624607,106.68699690974518L235.80272301946366,96.61567165502454L236.0016287326813,99.78893523337757L236.3994401591165,98.22657136713255L237.09561015537807,94.49365666510347L237.39396872520447,100.28516710114738L237.59287443842206,106.80158422829798L237.79178015163967,102.24156990794563L237.89123300824846,98.36072823821522L238.09013872146605,100.5841580291485L238.2890444346837,100.65972094911892L238.48795014790127,99.5382595397848L238.58740300451007,102.72646977766884L238.68685586111886,102.19802900277888L238.98521443094526,99.77374506486886L239.08466728755405,105.08550257936099L239.38302585738046,103.3609918841926L239.48247871398925,100.76858097007441L239.78083728381566,105.86373152866088L240.07919585364203,106.54713107896464L240.47700728007726,105.13902377363209L241.07372441973007,106.39430268344258L241.17317727633886,107.16899311551268L241.47153584616524,107.78273468951157L241.57098870277406,105.4123165465344L241.76989441599164,105.66976416016377L241.96880012920923,108.91968562243143L242.06825298581805,109.37764020998884L242.26715869903563,105.9897240097455L242.36661155564443,109.001877062414L242.56551726886207,107.96223648296545L242.66497012547086,110.39228563922637L242.76442298207965,108.19686079535226L242.86387583868844,109.74327677639742L243.06278155190606,104.31641278373742L243.26168726512364,105.89314622081758L243.36114012173243,106.85788879401822L243.75895154816763,102.18600615527886L243.85840440477642,100.64790574142528L244.05731011799404,102.88326973522707L244.3556686878204,95.66153748312412L244.55457440103802,99.64396392194628L244.85293297086446,104.28255990592984L245.44965011051724,103.62360836592735L246.04636725017002,105.09683907798455L246.44417867660522,110.14968312996749L246.74253724643162,104.49277486365568L247.23980152947564,106.76013115828765L247.43870724269323,103.57571813326024L247.73706581251963,103.25051164988645L248.3337829521724,101.1412728317474L248.4332358087812,103.5581990439998L248.63214152199882,104.24814023361242L248.9305000918252,106.6659881578747L249.22885866165163,107.73809300780451L249.32831151826042,101.76601246653995L249.4277643748692,103.3729383208553L250.3228400843484,104.56577485686977L250.4222929409572,105.45689676435032L250.521745797566,101.0642559041747L250.6211986541748,103.27577454822955L250.8201043673924,105.45185089429232L251.01901008061,114.0141062970862L251.31736865043638,111.8787394399673L251.4168215070452,117.6150845809132L251.8146329334804,113.56018207649782L252.013538646698,113.83273539309248L252.1129915033068,107.94138306957477L252.2124443599156,109.11698768631332L252.3118972165244,109.17938890400258L253.10752006939478,109.60919474170848L254.002595778874,103.37592139805834L254.20150149209158,105.94545576194034L254.49986006191799,105.97998892760884L254.99712434496197,108.54525766485798L255.29548291478838,107.50197727880524L255.39493577139717,102.54380107074408L255.6932943412236,108.93203635391642L255.7927471978324,103.88542260756378L256.09110576765875,105.6825560905608L256.38946433748515,111.16988892633998L256.58837005070274,108.67427149641291L256.7872757639204,107.56190602296357L257.0856343337468,108.16082722834763L257.3839929035732,105.72558016818947L257.48344576018195,103.9316841713996L257.58289861679077,105.67419929787333L257.78180433000836,104.13627353528017L258.57742718287875,107.04607069524177L258.77633289609633,106.17832080209362L258.975238609314,101.74377281189128L259.17414432253156,105.07042774805838L259.67140860557555,104.7105594006725L260.16867288861954,105.72184546218537L260.56648431505477,105.77210605975777L260.96429574148993,104.12944452011799L261.06374859809875,97.41493883535527L261.1632014547076,94.70944337622595L261.56101288114274,99.66612396854741L261.66046573775157,101.7885118264734L261.75991859436033,97.49414081664024L261.85937145096915,103.95542356652318L262.15773002079555,103.39833378229588L262.65499430383954,105.33748004271966L262.95335287366595,102.91164090046631L263.15225858688353,109.08820162601204L263.55007001331876,110.11182992570063L263.6495228699275,113.31028650273838L263.74897572653634,109.16186837627625L263.84842858314516,110.75428529297957L264.04733429636275,112.46981213307872L264.24624000958033,113.24888289104915L264.54459857940674,111.02004982532786L264.84295714923314,108.70725745891247L264.9424100058419,104.83886138131194L265.14131571905955,106.39737769216023L265.34022143227713,111.0432075051527L266.03639142853876,108.44020203771875L266.3347499983651,106.57268798921427L266.43420285497393,104.43033251688112L266.6331085681915,102.10830953041481L266.8320142814091,102.15417112992074L267.03091999462674,100.35664867102564L267.1303728512355,107.88086255266971L267.3292785644531,108.03768108781645L267.62763713427955,103.61100748226391L267.82654284749714,105.94022041061126L268.12490141732354,108.60920080240676L268.3238071305411,104.03716987318953L268.42325998714995,104.07373070813982" fill="none"></path></g></g></g></g><g opacity="0.2"><g><g><g><path style="fill: none;" stroke="rgb(255, 112, 67)" stroke-width="2px" d="M20.387835604803904,-4.082190020072993L20.4872884614127,8.840875098026638L20.8850998878479,9.490007984157089L20.9845527444567,23.15749760271528L21.282911314283098,17.065420340661237L21.3823641708919,22.721604445532034L21.6807227407183,-3.7873609700052877L21.780175597327094,13.14932143650153L21.879628453935894,28.322625922029374L22.277439880371094,6.800340904117979L23.17251558985029,34.241969460336534L23.470874159676686,26.083909205295118L23.868685586111887,35.34109837980636L24.067591299329482,50.91519788712137L24.266497012547084,27.401143758350806L24.365949869155884,28.907064661983302L24.564855582373482,18.939394500969865L24.76376129559108,30.504389168973557L25.161572722026282,-14.470861078068037L25.26102557863508,9.917818791262539L25.360478435243877,18.20513773829134L25.45993129185268,29.245168452336245L25.55938414846148,-4.1411699683082155L26.156101288114275,-1.9723431942290544L26.355007001331874,24.179702814229064L26.454459857940673,12.89224143840065L26.553912714549476,28.376728183774546L26.65336557115827,-8.95407983926184L26.95172414098467,17.434239417680033L27.05117699759347,13.78551784976696L27.150629854202272,6.158901566968279L27.250082710811068,18.310491053736722L27.747346993855068,-15.338358798515678L28.244611276899064,20.695679747390795L28.542969846725462,13.233243564204212L28.64242270333426,6.865954034705691L29.239139842987058,13.160337467584213L30.034762695857456,8.73274126564488L30.333121265683857,35.317334385481445L30.432574122292657,23.22181472964619L31.12874411855425,5.888343130836802L31.42710268838065,30.134144487932303L31.62600840159825,36.093110392582865L32.322178397859844,31.15731581126297L32.42163125446864,18.98400059046621L32.71998982429504,50.652509727742036L32.81944268090384,32.05268939218299L33.51561267716544,30.47513483188445L33.714518390383034,-12.928675635748327L33.91342410360064,48.841933709953146L34.01287696020944,31.099620084833077L34.11232981681824,16.80831677885749L34.808499813079834,22.949194469515284L35.30576409612383,26.668300817843328L35.50466980934143,33.04185829230014L35.60412266595023,50.54927714555322L35.703575522559035,34.48854004696602L36.001934092385426,28.747503048129943L36.30029266221183,37.48044696161933L36.49919837542942,10.360038802661208L36.59865123203822,49.19503579717054L36.89700980186463,41.11486536190203L37.49372694151742,48.85412792617837L37.59317979812622,46.69885028123836L37.792085511343814,14.432011601178123L38.09044408117022,23.26986111975873L38.28934979438782,39.70123170048423L38.38880265099662,35.071659219560296L38.587708364214215,28.076703337228288L38.786614077431814,55.69110096274801L38.88606693404062,19.932168647623165L39.582236930302216,31.8229432893889L40.3778597831726,40.50854772385126L40.4773126397814,36.5920482367431L40.57676549639021,45.50233257788668L40.9745769228254,37.826244300953L41.9691054889134,63.14253289670332L42.0685583455222,23.745812571788132L42.2674640587398,46.77470184071467L42.466369771957396,57.85820758651905L42.665275485174995,53.29643966054796L42.96363405500139,48.057769024636876L43.06308691161019,34.54581162674458L43.16253976821899,43.6832971907744L43.460898338045396,41.52654681440622L44.45542690413339,61.37984421403271L44.65433261735099,51.29986355430726L45.251049757003784,52.91213923075627L45.54940832683018,45.39290274184814L45.64886118343898,34.93078362206752L45.74831404004778,53.816302072839584L45.84776689665658,54.73441462701053L46.046672609874186,58.54007045590911L46.444484036309376,50.8042246285461L46.64338974952698,42.132381396548546L46.84229546274457,58.66271952924687L47.04120117596217,46.16330622469959L47.53846545900617,59.88972277316161L48.135182598658965,57.10158886983525L48.83135259492057,39.61538913099921L48.930805451529366,32.333427347945964L49.42806973457336,58.210555635245235L49.52752259118216,5.900560910764895L49.82588116100857,56.85062365262411L49.92533401761737,56.71077307620535L50.02478687422616,50.32764873839117L50.42259830066136,49.37518030546396L50.52205115727016,50.27457149772001L50.720956870487754,43.08211643994507L51.01931544031416,42.40699278957033L51.417126866749356,38.44753667216537L51.516579723358156,34.00693330625245L51.616032579966955,72.35099233371936L51.715485436575754,39.04836396745195L51.914391149793346,52.018203035710144L52.21274971961975,61.4685556643398L52.31220257622855,56.81547838982233L52.41165543283735,49.024422806680214L52.71001400266375,45.52705090217703L53.008372572490146,52.915226075829715L53.60508971214295,66.17713724092205L53.80399542536055,45.28098693515883L54.10235399518694,47.84544828010087L54.201806851795745,72.08622467756345L54.40071256501334,43.047595615268825L54.500165421622135,47.169052189772174L54.99742970466614,54.94670002599228L55.09688256127494,49.86364408370707L55.494693987710136,41.36630185317017L55.693599700927734,46.97910518109288L55.99195827075413,34.693426443252655L56.38976969718934,62.443892670883606L56.78758112362453,55.84253309911787L56.98648683684213,43.55311951437584L57.38429826327733,66.61340152642519L57.48375111988613,60.848853843069854L57.58320397649493,47.46696808491329L57.78210968971252,62.6380163458932L58.279373972756524,56.1795176135854L58.378826829365316,59.35728912539914L58.77663825580052,58.9034109720151L58.87609111240932,63.72589359725182L58.97554396901812,63.857750187478494L59.97007253510611,50.56786890710239L60.46733681815011,55.537960457921464L61.163506814411704,41.64345812609984L61.26295967102051,39.6118545755716L61.76022395406451,60.2531516531533L61.85967681067331,44.37758991341816L62.058582523890905,50.48364045126266L62.2574882371085,45.095104665221264L62.6552996635437,57.12763854333668L63.550375373022895,54.78321505561428L63.749281086240494,79.39772356214003L63.84873394284929,62.959784599244905L64.14709251267568,70.04998496849933L64.7438096523285,58.14361115544646L65.53943250519889,58.709540606811174L65.63888536180768,52.247619246664335L65.73833821841649,73.10394100368418L65.93724393163409,59.29864495992952L66.03669678824289,58.1855663283721L66.33505535806928,63.07183589722558L66.43450821467809,37.11310061602869L66.93177249772208,34.527938558132355L67.03122535433089,67.23590742833437L68.12520677702767,77.66381205157582L68.42356534685408,47.70824862025279L68.52301820346288,59.356552759685066L68.72192391668047,61.648346717090476L68.92082962989807,52.20216486386537L69.21918819972447,67.51898408160528L70.31316962242127,39.24003112643934L70.71098104885647,78.17067319081957L70.81043390546526,65.05347261585896L71.00933961868286,64.76210743011033L71.30769818850926,51.16156818227662L71.50660390172686,69.35298242002773L72.00386818477085,61.24128375034502L72.10332104137966,52.21060066948591L72.70003818103245,58.768072844692256L72.89894389425005,56.04496887030805L72.99839675085884,62.52925807538588L73.09784960746765,86.20573680790616L73.19730246407644,68.75002260963319L73.29675532068525,63.81071703658854L73.39620817729404,79.59690165141107L73.59511389051166,61.0549950065333L73.79401960372925,68.4691786172074L74.29128388677324,66.93357922983448L74.39073674338204,57.21723952342638L74.49018959999086,60.660691784881486L74.68909531320845,79.83881251580183L75.08690673964364,64.60205097849712L75.28581245286124,81.65418374712085L75.48471816607884,74.25845640670452L75.88252959251405,64.7255365632861L75.98198244912284,83.75770371874935L76.08143530573163,72.45073159696058L76.47924673216683,49.941003720165845L76.87705815860204,74.15300883644775L76.97651101521083,59.72201400904762L77.27486958503724,79.61010321593317L77.47377529825482,66.27730654174027L77.57322815486363,63.416343123828185L77.67268101147242,80.04744554084172L77.77213386808124,82.86260701133781L77.87158672469003,62.30469598721893L77.97103958129884,66.68822217390182L78.16994529451642,77.35717169545424L78.26939815112523,44.74376985571769L78.76666243416922,63.28374427696171L78.86611529077801,74.5259044340597L79.16447386060443,83.00713498277244L79.26392671721322,83.93903230311102L79.56228528703961,65.16319699818314L79.76119100025721,55.21282848598782L80.15900242669242,75.5976287671142L80.35790813991002,70.70607503789645L80.55681385312762,74.24633877251355L80.7557195663452,72.97316834378864L81.05407813617163,74.637820240749L81.45188956260681,78.1564524961492L81.55134241921562,86.21837284355986L81.75024813243321,33.39717536758549L82.0486067022596,60.60709614274763L82.44641812869482,71.70090511762346L82.9436824117388,78.2325279108026L83.63985240800041,88.74427218878675L83.7393052646092,73.0091854635959L83.9382109778268,69.17728556064738L84.03766383443559,80.81609941875652L84.1371166910444,81.3208692793723L84.23656954765319,67.86441618354476L84.4354752608708,79.49526551009039L84.7338338306972,80.3982148214769L85.13164525713239,71.74660691930235L85.23109811374118,85.74107236954225L85.6289095401764,59.81735864170719L85.92726811000279,58.30465728257941L86.32507953643798,75.80982580221026L86.62343810626439,80.34773547904504L86.7228909628732,65.13115036230622L86.82234381948199,70.63791702740086L86.92179667609079,70.89677019414125L87.02124953269958,79.740869984903L87.22015524591718,86.90923704743884L87.31960810252598,71.34593560695517L87.41906095913478,66.89742072781011L87.6179666723524,52.64844961400577L87.71741952896119,74.60739950036877L87.81687238556998,78.28436216614838L87.91632524217879,84.16785942149394L88.11523095539638,47.25649709105105L88.31413666861397,72.30661599032582L88.41358952522278,67.77644698987748L89.10975952148438,90.95460642543735L89.40811809131077,70.36589175076695L89.50757094791958,73.6328165323162L89.60702380452837,82.83245725354038L89.80592951774598,76.01305684837163L90.10428808757237,65.03766726217187L90.30319380078997,72.41090304821721L90.50209951400757,77.1861816857183L90.89991094044277,92.87044150386023L91.29772236687796,83.98614203603525L91.59608093670435,58.646637302051296L91.69553379331316,78.23498442682478L91.79498664992195,75.26982820583271L91.89443950653077,74.61105187431062L91.99389236313957,90.09890233826646L92.49115664618355,52.99839416504117L93.08787378583636,75.02096015817528L93.28677949905396,87.26526692473544L93.38623235566276,62.82644349573864L93.48568521227155,76.92166144844232L93.78404378209795,83.55639900529602L94.08240235192434,82.81077864691777L94.18185520853315,68.63102591023728L94.48021377835956,78.31888888175033L94.57966663496835,69.4638673147173L94.67911949157715,69.57078172547654L94.87802520479474,81.92395279920682L95.07693091801234,85.94502210864057L95.67364805766515,79.59679561474825L95.97200662749154,69.81513732403808L96.07145948410033,74.70183103954287L96.36981805392675,69.23608878111125L96.46927091053554,61.579570159395054L96.56872376714435,79.54967409997262L96.76762948036193,78.56735634645929L96.86708233697074,47.807557845916975L97.46379947662354,81.08355333703742L97.86161090305873,84.31586303909906L97.96106375966754,63.51439758231557L98.15996947288512,61.35842480814144L98.35887518610272,70.99910146469604L98.55778089932033,96.47267777697463L98.65723375592913,77.76280905817721L98.75668661253793,82.25193008825968L98.85613946914673,67.02334515584414L98.95559232575553,87.85825339789844L99.25395089558192,65.29624944632948L99.45285660879952,81.71681017837223L99.65176232201713,93.3658271198157L99.95012089184353,72.3349749067066L100.14902660506112,70.72473159962847L100.24847946166992,83.74521495623848L100.34793231827872,68.90127212730597L100.74574374471392,91.75531872108051L100.94464945793152,85.32235126081143L101.04410231454032,90.45235788102661L101.24300802775791,91.59389557470195L101.54136659758431,81.29721132171024L101.93917802401951,64.56601618591272L102.23753659384592,79.5366963906276L102.53589516367231,88.88656749937627L102.6353480202811,66.98106598200431L102.83425373349871,87.69301882258378L103.03315944671631,88.6034613914768L103.23206515993391,67.22292971898938L103.7293294429779,92.27075115723622L104.0276880128043,76.18547246213004L104.12714086941311,62.2397249675339L104.2265937260219,72.93869464651809L104.5249522958483,73.79161821675264L105.3205751487187,70.13416629693339L105.4200280053275,92.40726157877589L105.5194808619363,69.29546931229495L105.71838657515389,59.18374834482961L106.1161980015891,67.09173291244251L106.3151037148067,84.82827343036415L106.41455657141549,79.5963537953198L106.81236799785069,87.32809953838678L107.01127371106828,78.50799348805273L107.11072656767708,80.42586093584646L107.4090851375035,75.73896385681255L107.6079908507211,92.89370476949955L107.80689656393868,91.83885204768615L108.10525513376508,72.50512251406565L108.30416084698268,90.97921282213917L108.40361370359149,85.5315733784226L108.60251941680909,86.69636844681153L108.70197227341788,92.02415700690388L109.00033084324427,62.214594278443656L109.29868941307069,98.42696292752407L109.39814226967948,70.5298303224248L110.09431226594107,88.4346686970317L110.19376512254988,77.26821871719292L110.29321797915867,91.34056809628002L110.39267083576746,92.4676612401079L110.59157654898507,96.64241301953375L110.69102940559388,92.23048667999012L110.88993511881147,81.3394139135158L110.98938797542027,81.39081224035883L111.08884083202906,81.84822494917046L111.38719940185547,94.19446829426263L111.48665225846426,84.46757204897742L111.58610511507307,76.88394185110408L111.68555797168187,89.04470940013286L111.88446368489947,77.10508131143197L112.48118082455225,83.87051494614695L112.58063368116107,72.96935691485255L112.87899225098747,100.29366179457756L113.57516224724905,73.65585005185274L113.87352081707546,69.36725024210382L114.56969081333705,81.33163789157507L114.66914366994585,70.18840994089564L114.76859652655466,80.70075509330248L114.96750223977226,72.06782731656278L115.06695509638105,71.26805167810797L115.16640795298986,82.54384313009957L115.46476652281625,81.60392825986605L115.56421937942504,83.38100847405272L115.76312509264264,82.83313470999732L115.96203080586025,78.42180924487639L116.06148366246904,69.84026801312832L116.45929508890424,97.7316864202863L116.55874794551305,80.01331351726253L116.95655937194823,89.32884642003205L117.05601222855705,84.46033799220227L117.15546508516584,86.96852332381116L117.25491794177465,84.04823828397248L117.55327651160104,90.31058686282552L117.65272936820983,95.91872457758377L117.75218222481864,97.75019570887551L118.05054079464504,77.31514583142004L118.14999365125384,79.85718042217395L118.94561650412423,91.89194107020873L119.34342793055943,87.89725721704201L119.54233364377703,78.39213076113595L119.74123935699463,85.48709099836624L119.84069221360343,85.71713164744597L120.13905078342982,100.9341350199104L120.23850364003863,80.42419969479549L120.43740935325623,81.32875722890158L120.53686220986503,93.33366266542455L120.63631506647383,54.290827920846525L120.73576792308262,80.0186506959582L121.03412649290902,57.70742345197757L121.82974934577942,87.82399766487927L122.02865505899702,83.74462586366721L122.22756077221462,95.58116275239641L122.42646648543223,91.431229442998L122.52591934204102,86.16230890355237L122.62537219864981,87.01496738212984L122.82427791186741,87.08043913050044L123.02318362508501,79.46449131416742L123.1226364816938,95.51524329367162L123.22208933830261,80.93299305767303L123.52044790812901,68.60183048240529L123.71935362134661,85.96917490406251L124.4155236176082,89.26002273493093L124.514976474217,91.42291145589172L124.81333504404341,89.16234529568916L125.01224075726101,99.62127742465923L125.6089578969138,54.478665978120695L125.7084107535226,76.19839126221791L125.9073164667402,81.06810143889308L126.1062221799578,95.0616420137961L126.504033606393,99.67763591095233L126.9018450328282,83.01852803310075L127.10075074604579,74.12334802548446L127.29965645926339,75.01995870080414L127.5980150290898,94.3761208795385L127.69746788569859,67.28516734914372L127.79692074230738,81.2139666504645L127.8963735989162,81.02433775177367L128.49309073856898,95.53657433567722L128.5925435951778,90.27981855782825L129.18926073483058,81.9881108711435L129.38816644804817,82.83402423977995L129.58707216126578,100.99633730451046L129.68652501787457,92.94546833373678L129.7859778744834,81.8381632480532L130.68105358396258,77.81504978739716L130.87995929718016,90.00409377984674L131.17831786700657,84.13267881313789L131.57612929344177,97.75566837886258L131.77503500665938,82.39331230536375L131.87448786326817,93.93563869122508L132.27229928970337,107.17185363835874L132.37175214631216,108.30660498561308L132.57065785952977,90.8092242697744L132.67011071613857,83.28165801190855L132.7695635727474,93.53635174642037L133.06792214257376,85.58778459157288L133.16737499918256,82.97923555859725L134.16190356527056,106.37565968273722L134.36080927848815,88.28105102722243L134.46026213509697,74.15098235800258L134.75862070492335,95.66772990574407L134.85807356153214,94.92024801484062L134.95752641814096,100.20245848269403L135.25588498796736,82.55739815016443L135.35533784457616,86.80472024344468L135.45479070118495,72.01926252498754L136.94658355031694,91.40018426449224L137.24494212014335,100.30464248010598L137.44384783336093,90.87338823263678L137.54330068996975,87.52737188246923L137.74220640318734,100.3320293937442L137.84165925979613,71.25007846375861L138.14001782962254,73.31084209656456L138.43837639944894,83.70241738093594L138.53782925605773,87.70068880786167L138.63728211266653,73.71661495057893L138.73673496927535,92.31796103589754L138.93564068249293,100.4153153014699L139.13454639571054,93.49688254414548L139.33345210892813,105.43879631202287L139.53235782214574,96.05474016136358L139.63181067875453,90.22143948401569L139.83071639197212,96.17538042903334L140.02962210518973,70.06472995555814L140.22852781840731,100.09403010402664L140.3279806750161,89.00498099712664L140.42743353162496,79.74095245786297L140.52688638823375,90.5162920977862L140.62633924484254,84.63521601290856L141.62086781093052,91.91394367774555L142.01867923736572,87.68719269705396L142.41649066380091,101.25306973799431L142.51594352040973,82.48352005080184L142.61539637701853,92.08693071129808L142.81430209023614,95.05753603857436L143.11266066006252,89.6401818439466L143.41101922988892,83.89092700374135L143.6099249431065,97.83487776599513L143.80883065632412,95.61508270264994L143.9082835129329,78.38628696282899L144.1071892261505,78.57133272131534L144.5050006525857,64.74032278682489L144.60445350919449,93.78352320747254L144.70390636580333,98.80144907507847L144.90281207902092,100.1501352805141L145.0022649356297,114.84558554500737L145.30062350545612,95.0348088471749L145.4000763620649,93.49399009962056L145.4995292186737,103.79245930310321L145.59898207528252,74.34450515858948L145.7978877885001,93.91526197918495L146.2951520715441,97.69288289261695L146.5935106413705,98.32667580819161L147.09077492441452,103.52770931972444L147.2896806376321,101.7440783961453L147.6874920640673,81.02614626596747L147.88639777728488,77.55889466463316L148.28420920372008,98.12815161167464L148.38366206032887,102.80228894561492L148.4831149169377,102.05155526371804L148.5825677735465,99.49663132750486L148.78147348676407,86.95228793254702L149.0798320565905,90.98346607050374L149.1792849131993,99.63224632833621L149.3781906264169,88.88401083761696L149.4776434830257,87.78729719768933L149.5770963396345,90.92349055582304L150.17381347928728,93.68017869769517L150.3727191925049,102.72911186641213L150.47217204911368,95.80793393770561L150.67107776233127,101.09913984912225L150.77053061894009,95.18860913568126L151.06888918876646,91.46571492211997L151.16834204537525,82.80964758918091L151.66560632841927,96.73766928830761L151.7650591850281,81.11768536061663L151.86451204163689,91.75878258539956L152.16287061146326,99.06151577251566L152.36177632468087,104.9267275944491L152.46122918128967,115.25979420464225L152.56068203789846,91.18183710295216L152.66013489450728,101.69532509494722L152.75958775111607,81.39012889297615L152.85904060772486,87.22436622751238L153.45575774737767,74.31493860243759L153.95302203042166,84.6832211665411L154.05247488703048,97.447920528707L154.15192774363928,96.86253924063908L154.64919202668327,89.07318613502791L155.04700345311846,77.1530275558074L155.24590916633605,88.88881194207279L155.34536202294484,100.73202914056014L155.74317344938007,91.1707975081666L156.14098487581526,93.04465974088671L156.83715487207684,79.26258572629138L157.03606058529445,91.12904851764092L157.33441915512083,69.38448119981338L157.53332486833844,96.67593238683885L157.63277772494723,91.31385274817308L157.93113629477367,92.57211324391923L158.03058915138246,79.30243194781187L158.22949486460004,104.76293040500835L158.32894772120886,104.17939886761417L158.62730629103524,104.26065829689473L160.31800485338485,94.06961601470832L160.41745770999364,80.05456767002836L160.51691056660243,83.77337947207077L160.61636342321123,93.16536480873928L161.01417484964642,91.14208513624305L161.31253341947283,92.62604466881871L161.41198627608162,99.5566834242198L161.71034484590803,98.30586905857444L161.80979770251682,87.25773243074893L161.9092505591256,90.99799898423689L162.30706198556084,110.32310714807691L162.40651484216963,91.78225203343884L162.50596769877842,104.5386039538699L162.70487341199603,70.11494420633294L162.90377912521362,101.05858082559052L163.10268483843123,91.28303731577009L163.30159055164881,83.18662559831178L163.8983076913016,101.19328273293642L164.0972134045192,106.42288134325L164.59447768756323,90.00204962862446L164.69393054417202,91.49454511255776L165.5890062536512,102.54926779533007L165.68845911026,90.0871617233211L166.78244053295683,84.98769955292612L167.180251959392,88.75495832802952L167.27970481600082,99.12060764833946L167.5780633858272,102.56675206284527L167.67751624243598,96.48665694369079L167.9758748122624,75.78789388578198L168.17478052548,88.63906614648417L168.2742333820888,99.98286833582856L168.3736862386976,99.22088887674622L169.0698562349592,87.1795951920961L169.169309091568,104.51208889723716L169.2687619481768,102.09394636514644L169.3682148047856,108.75558483426704L169.666573374612,103.13853120344265L169.86547908782958,98.94620090169016L169.96493194443838,106.84953163799007L170.0643848010472,109.37522774627986L170.163837657656,100.56413186682335L170.66110194069998,97.76234868862075L170.8600076539176,87.17313284658928L171.35727193696158,87.39150357183223L171.4567247935704,57.56818553183293L171.75508336339678,84.67209909879557L172.45125335965838,90.71945245283902L172.65015907287597,98.06356350216095L173.64468763896397,97.74932974279572L173.84359335218159,111.75046961186808L173.94304620879038,79.61720767234264L174.14195192200796,91.93425558960284L174.24140477861675,96.10189113076778L174.44031049183437,97.05716953525996L174.53976334844316,101.23352953740539L175.13648048809594,109.9309423324588L175.2359333447048,107.95051619905936L175.83265048435757,91.75408162668084L175.93210334096636,101.05360888428905L176.82717905044555,98.97139050003754L177.22499047688075,95.94939862776964L177.42389619009836,118.50795049687096L177.82170761653356,101.34729509476844L178.41842475618634,99.29595694310278L178.71678332601275,95.5130400874551L178.91568903923033,101.80413049286024L179.21404760905673,112.3218952969227L179.41295332227432,97.4688804423927L179.51240617888317,103.18711955872075L179.91021760531834,103.6919188739651L180.00967046192716,108.85103255812655L180.20857617514474,90.68983876928144L180.30802903175353,97.31245869194417L180.50693474497115,99.25323005890877L180.80529331479752,84.69008409499637L180.90474617140634,98.53569174340282L181.00419902801514,98.49781898199608L181.40201045445033,93.41071008282056L181.60091616766792,100.10472213419511L181.7003690242767,86.39125384044955L181.79982188088553,103.12254323105847L181.99872759410314,93.28775468134572L182.19763330732073,90.5632486666419L182.39653902053834,99.43950702086909L182.69489759036472,86.94377554489222L182.99325616019112,100.32543744787169L183.09270901679992,107.04426207834805L183.1921618734087,98.6903874526175L183.4905204432351,93.8547857358187L183.68942615645273,95.0408529369561L183.78887901306155,93.31928291575991L184.08723758288792,113.47981860046785L184.18669043949674,96.32236491649016L184.48504900932312,100.30093708783272L184.88286043575832,91.37607270555029L184.9823132923671,111.49764875305748L185.0817661489759,96.83355588613274L185.7779361452375,103.2862756203164L185.9768418584551,104.5385214809099L186.07629471506394,92.88016742221184L186.17574757167273,112.94222744724394L186.4741061414991,109.92670086594568L186.57355899810793,85.80791670360391L186.7724647113255,86.28662510886684L187.1702761377607,99.27649332454811L187.2697289943695,98.37374430463584L187.3691818509783,110.2274149508003L187.6675404208047,74.89056451752535L188.0653518472399,107.79423583082796L188.1648047038487,92.0805685115284L188.3637104170663,108.39555207294868L188.46316327367512,99.8197309300676L188.5626161302839,101.34695931200284L188.6620689868927,98.09530380990081L188.86097470011032,93.83106886889948L189.1593332699367,102.84393189947778L189.2587861265455,120.46302208600308L189.3582389831543,103.88667287802593L189.4576918397631,98.42788780286098L189.8555032661983,96.3295930823396L189.9549561228071,110.8159567205131L190.4522204058511,101.22970043569214L190.6511261190687,101.50986697166097L190.7505789756775,109.86284912214606L190.8500318322863,91.38453207487366L191.2478432587215,84.0154611733072L191.54620182854788,91.52258591895009L191.7451075417655,104.2153511872386L192.04346611159187,107.25552834718151L192.14291896820066,91.54273288488741L192.24237182480948,111.06875107015802L192.34182468141827,104.12228634282985L192.44127753802707,89.35759413750986L192.6401832512447,105.41821341758282L192.8390889644623,111.2951511271473L193.1374475342887,105.01951556534937L193.2369003908975,106.65102511425025L193.43580610411507,82.41687011728871L193.53525896072387,101.01387459035709L193.6347118173327,96.39718556396676L193.93307038715906,92.27696608386309L194.13197610037668,104.53210626280881L194.23142895698547,88.54920596566312L194.33088181359426,95.21709765242774L194.43033467020305,112.23844444327703L195.12650466646468,109.2811319898714L195.22595752307348,101.52229682491472L195.52431609289988,97.42895174791222L196.02158037594387,99.57917497859077L196.41939180237907,107.03638591067022L197.01610894203188,101.26207107248327L197.11556179864067,111.39860167358748L197.31446751185825,93.48580760380564L197.71227893829345,103.21288057686225L197.81173179490227,110.31299242862825L197.91118465151106,90.45386006708334L198.11009036472865,113.86316175483122L198.20954322133744,101.19360084292491L198.30899607794626,92.38952400145506L198.70680750438143,99.01821746852754L199.10461893081663,103.81034415356687L199.30352464403427,104.59235276007227L199.40297750064306,96.34870913627722L200.19860035351346,105.70019435867115L200.29805321012225,100.94487417748459L200.59641177994862,104.78523344975649L200.89477034977503,103.02418833535974L201.29258177621026,119.03219575789282L201.49148748942784,96.44063703202342L201.88929891586304,103.10864064637656L202.38656319890703,94.9311167727805L202.48601605551582,112.0223741245249L202.88382748195102,101.5529296386206L202.98328033855984,100.47017160170628L203.2816389083862,96.94518892838782L203.381091764995,100.57543066234025L203.48054462160385,103.24100974714024L203.77890319143023,94.85657299881238L204.07726176125664,118.63875261139508L204.17671461786543,117.37161743606279L204.375620331083,109.06439894197659L204.57452604430063,86.82050203342892L204.67397890090942,93.61493669542737L204.7734317575182,107.9297506859222L205.4696017537798,96.8442773709298L205.66850746699743,93.01704308114572L205.76796032360622,105.70899540168588L206.36467746325903,120.82583241879493L206.46413031986782,116.57409507669306L206.5635831764766,107.48284149765627L206.6630360330854,109.48109946318795L206.76248888969423,90.28002474022819L206.9613946029118,115.40573894371079L207.25975317273821,114.38801672666435L207.95592316899982,112.49748022871454L208.0553760256086,97.76600695348831L208.15482888221743,109.09596546740792L209.0499045916966,97.79784151603955L209.348263161523,115.89079776689196L209.44771601813179,108.40021179518742L209.84552744456698,102.19951764484317L209.94498030117578,111.73494996807804L210.04443315778462,82.89814107523664L210.14388601439342,120.92127425172876L210.4422445842198,116.72538877630869L210.5416974408286,102.50502105230218L210.6411502974374,92.55426962993556L210.7406031540462,111.31478852801051L211.1384145804814,111.2211669911219L211.2378674370902,115.60279040879958L211.33732029369898,104.8664162970028L211.63567886352538,101.77403375339422L211.83458457674297,97.29855610726229L212.03349028996058,101.46467768051909L212.2323960031782,102.47836461345237L212.331848859787,112.88686158193342L212.4313017163958,111.66085390446412L212.6302074296134,96.81548841697199L212.72966028622218,83.13836713487358L213.22692456926617,105.89824139020538L213.52528313909258,96.47175879256345L213.72418885231016,95.37804952474929L214.02254742213657,108.22600534001235L214.320905991963,95.24130346618108L214.4203588485718,107.80156414241453L214.61926456178938,118.23631107587121L214.818170275007,67.43319453045167L215.41488741465977,110.18583679712029L215.51434027126857,108.34946736109848L215.71324598448618,118.8253535742696L215.91215169770376,96.54263841073828L216.80722740718298,103.42632059728366L216.90668026379177,81.94326325369295L217.00613312040056,107.77820662196379L217.10558597700938,98.89930913301733L218.29902025631495,96.9201642759604L218.49792596953256,92.60645144989837L218.69683168275017,101.19611626820422L218.89573739596776,87.78521770091277L219.29354882240295,98.13381279128453L219.39300167901175,105.03238723803153L219.49245453562057,111.9741156610867L219.59190739222936,79.09330997593784L219.69136024883815,83.56848718485841L219.79081310544694,114.96310362204937L219.89026596205574,95.66481978844202L220.08917167527335,104.39807592099416L220.18862453188214,109.25915294603743L220.28807738849093,102.7023611727509L220.48698310170855,104.58602001493118L220.98424738475256,99.90605655546108L221.28260595457894,97.95537076052206L221.48151166779655,98.87885583894294L221.58096452440535,108.8383287768272L221.77987023762293,106.36516205311725L222.07822880744934,114.11886327631535L222.37658737727574,110.48607077152933L222.57549309049332,105.73570485886712L222.87385166031973,110.27157922086818L223.17221023014613,94.74234794924371L223.27166308675496,103.89384213461824L223.57002165658133,105.50018564887459L223.76892736979894,93.77456310946357L223.86838022640774,99.16226238405375L224.66400307927813,108.91227462183546L224.76345593588692,103.05791388506478L224.9623616491045,111.1868788580113L225.45962593214853,84.75694610183515L225.95689021519252,113.24013450599647L226.05634307180134,93.45476242529989L226.15579592841013,108.73343200812455L226.3547016416277,115.37483514742213L226.4541544982365,102.1248972888408L226.65306021145412,109.50815059406054L226.8519659246717,97.1496276143203L227.1503244944981,110.39451694956588L227.2497773511069,89.31080840549984L227.64758877754213,117.87651984250708L228.14485306058612,108.67193663460998L228.3437587738037,108.83462633001677L228.9404759134565,119.55918029937109L229.0399287700653,119.86935815638311L229.1393816266741,101.55002541224425L229.2388344832829,104.92152001611912L229.3382873398917,109.10128791878932L229.6366459097181,116.46007031859862L229.83555162293572,101.68794376502926L230.1339101927621,102.43799409954345L230.2333630493709,119.47568820924543L230.5317216191973,111.56245188135969L230.7306273324149,115.34694455963549L230.9295330456325,95.84188334258772L231.0289859022413,95.21839954701022L231.12843875885008,106.54697369338737L231.52625018528528,102.83655056955979L231.9240616117205,111.6804088323673L232.0235144683293,107.41438304994935L232.1229673249381,110.8871750669164L232.52077875137329,106.07981150252128L232.6202316079821,111.32565728595038L232.8191373211997,105.30271003713452L232.91859017780848,108.1940470680211L233.1174958910261,102.94564462283272L233.2169487476349,119.54533662394631L233.31640160424368,106.3288209323958L233.51530731746126,109.36543408228253L233.61476017407008,98.58340824167544L233.71421303067888,104.79399325629124L233.81366588728767,102.33553911954871L234.1120244571141,119.15589930693315L234.3109301703317,111.09549881835639L234.41038302694048,106.31754570058176L235.0071001665933,106.99470172032736L235.10655302320208,100.25211898645182L235.20600587981087,91.83905233916039L235.60381730624607,117.1642509600511L235.80272301946366,81.50868377294361L236.0016287326813,104.54883060090708L236.3994401591165,95.883025567765L237.09561015537807,88.89428461205986L237.39396872520447,108.97243275521325L237.59287443842206,116.57620991902391L237.79178015163967,95.40154842741713L237.89123300824846,92.53946573361961L238.09013872146605,103.91930271554841L238.2890444346837,100.7730653290746L238.48795014790127,97.85606742578359L238.58740300451007,107.50878513449486L238.68685586111886,101.40536784044393L238.98521443094526,96.13731915800379L239.08466728755405,113.0531388510992L239.38302585738046,100.77422584143999L239.48247871398925,96.87996459889716L239.78083728381566,113.50645736654052L240.07919585364203,107.57223040442031L240.47700728007726,103.02686281563328L241.07372441973007,108.2772210481583L241.17317727633886,108.33102876361781L241.47153584616524,108.70334705050993L241.57098870277406,101.85668933206868L241.76989441599164,106.05593558060782L241.96880012920923,113.79456781583289L242.06825298581805,110.06457209132499L242.26715869903563,100.90784970938046L242.36661155564443,113.52010664141679L242.56551726886207,106.40277561379264L242.66497012547086,114.03735937361772L242.76442298207965,104.90372352954114L242.86387583868844,112.0629007479652L243.06278155190606,96.17611679474741L243.26168726512364,108.2582463764378L243.36114012173243,108.30500265381924L243.75895154816763,95.17818219716985L243.85840440477642,98.34075512064487L244.05731011799404,106.23631572592976L244.3556686878204,84.82893910496969L244.55457440103802,105.61760358017952L244.85293297086446,111.24045388190517L245.44965011051724,102.63518105592361L246.04636725017002,107.30668514607032L246.44417867660522,117.72894920794187L246.74253724643162,96.007412464188L247.23980152947564,110.16116560023562L247.43870724269323,98.7990985957191L247.73706581251963,102.76270192482578L248.3337829521724,97.97741460453885L248.4332358087812,107.1835883623784L248.63214152199882,105.28305201803134L248.9305000918252,110.29276004426808L249.22885866165163,109.34625028269923L249.32831151826042,92.80789165464311L249.4277643748692,105.78332710232834L250.3228400843484,106.35502966089147L250.4222929409572,106.79357962557113L250.521745797566,94.47529461391127L250.6211986541748,106.59305251431185L250.8201043673924,108.71596541338647L251.01901008061,126.85748940127698L251.31736865043638,108.67568915428896L251.4168215070452,126.21960229233203L251.8146329334804,107.47782831987479L252.013538646698,114.24156536798452L252.1129915033068,99.10435458429819L252.2124443599156,110.88039461142112L252.3118972165244,109.27299073053649L253.10752006939478,110.25390349826732L254.002595778874,94.02601138258312L254.20150149209158,109.79975730776337L254.49986006191799,106.03178867611159L254.99712434496197,112.39316077073173L255.29548291478838,105.93705669972614L255.39493577139717,95.10653675865235L255.6932943412236,118.51438927867491L255.7927471978324,96.31550198803488L256.09110576765875,108.37825631505629L256.38946433748515,119.4008881800088L256.58837005070274,104.93084535152227L256.7872757639204,105.89335781278957L257.0856343337468,109.05920903642371L257.3839929035732,102.07270957795224L257.48344576018195,101.2408401762148L257.58289861679077,108.28797198758393L257.78180433000836,101.82938489139046L258.57742718287875,111.41076643518417L258.77633289609633,104.8766959623714L258.975238609314,95.09195082658778L259.17414432253156,110.06041015230899L259.67140860557555,104.17075687959368L260.16867288861954,107.23877455445468L260.56648431505477,105.84749695611644L260.96429574148993,101.6654522106583L261.06374859809875,87.3431803082112L261.1632014547076,90.65120018753205L261.56101288114274,107.1011448570296L261.66046573775157,104.97209361336238L261.75991859436033,91.05258430189046L261.85937145096915,113.64734769134756L262.15773002079555,102.56269910595495L262.65499430383954,108.24619943335537L262.95335287366595,99.27288218708625L263.15225858688353,118.3530427143306L263.55007001331876,111.64727237523354L263.6495228699275,118.107971368295L263.74897572653634,102.93924118658303L263.84842858314516,113.14291066803456L264.04733429636275,115.04310239322744L264.24624000958033,114.41748902800484L264.54459857940674,107.6768002267459L264.84295714923314,105.23806890928938L264.9424100058419,99.03626726491117L265.14131571905955,108.73515215843263L265.34022143227713,118.01195222464136L266.03639142853876,104.53569383656784L266.3347499983651,103.77141691645754L266.43420285497393,101.21679930838141L266.6331085681915,98.62527505071539L266.8320142814091,102.22296352917958L267.03091999462674,97.66036498268299L267.1303728512355,119.16718337513579L267.3292785644531,108.27290889053663L267.62763713427955,96.97099707393504L267.82654284749714,109.43403980313228L268.12490141732354,112.61267139010008L268.3238071305411,97.17912347936362L268.42325998714995,104.12857196056527" fill="none"></path></g></g></g></g></g></g><g transform="translate(51, 177)" clip-path="url(#clip_1)"><clipPath id="clip_1"><rect width="278" height="22"></rect></clipPath><g><g><line x1="0" y1="0" x2="0" y2="5" style="visibility: inherit;" fill="rgb(0, 0, 0)" stroke="rgb(204, 204, 204)" stroke-width="1px"></line><line x1="19.890571321759904" y1="0" x2="19.890571321759904" y2="5" style="visibility: inherit;" fill="rgb(0, 0, 0)" stroke="rgb(204, 204, 204)" stroke-width="1px"></line><line x1="39.78114264351981" y1="0" x2="39.78114264351981" y2="5" style="visibility: inherit;" fill="rgb(0, 0, 0)" stroke="rgb(204, 204, 204)" stroke-width="1px"></line><line x1="59.671713965279714" y1="0" x2="59.671713965279714" y2="5" style="visibility: inherit;" fill="rgb(0, 0, 0)" stroke="rgb(204, 204, 204)" stroke-width="1px"></line><line x1="79.56228528703961" y1="0" x2="79.56228528703961" y2="5" style="visibility: inherit;" fill="rgb(0, 0, 0)" stroke="rgb(204, 204, 204)" stroke-width="1px"></line><line x1="99.45285660879952" y1="0" x2="99.45285660879952" y2="5" style="visibility: inherit;" fill="rgb(0, 0, 0)" stroke="rgb(204, 204, 204)" stroke-width="1px"></line><line x1="119.34342793055943" y1="0" x2="119.34342793055943" y2="5" style="visibility: inherit;" fill="rgb(0, 0, 0)" stroke="rgb(204, 204, 204)" stroke-width="1px"></line><line x1="139.23399925231934" y1="0" x2="139.23399925231934" y2="5" style="visibility: inherit;" fill="rgb(0, 0, 0)" stroke="rgb(204, 204, 204)" stroke-width="1px"></line><line x1="159.12457057407923" y1="0" x2="159.12457057407923" y2="5" style="visibility: inherit;" fill="rgb(0, 0, 0)" stroke="rgb(204, 204, 204)" stroke-width="1px"></line><line x1="179.01514189583915" y1="0" x2="179.01514189583915" y2="5" style="visibility: inherit;" fill="rgb(0, 0, 0)" stroke="rgb(204, 204, 204)" stroke-width="1px"></line><line x1="198.90571321759904" y1="0" x2="198.90571321759904" y2="5" style="visibility: inherit;" fill="rgb(0, 0, 0)" stroke="rgb(204, 204, 204)" stroke-width="1px"></line><line x1="218.79628453935896" y1="0" x2="218.79628453935896" y2="5" style="visibility: inherit;" fill="rgb(0, 0, 0)" stroke="rgb(204, 204, 204)" stroke-width="1px"></line><line x1="238.68685586111886" y1="0" x2="238.68685586111886" y2="5" style="visibility: inherit;" fill="rgb(0, 0, 0)" stroke="rgb(204, 204, 204)" stroke-width="1px"></line><line x1="258.57742718287875" y1="0" x2="258.57742718287875" y2="5" style="visibility: inherit;" fill="rgb(0, 0, 0)" stroke="rgb(204, 204, 204)" stroke-width="1px"></line><line x1="278.4679985046387" y1="0" x2="278.4679985046387" y2="5" style="visibility: inherit;" fill="rgb(0, 0, 0)" stroke="rgb(204, 204, 204)" stroke-width="1px"></line></g><g transform="translate(0, 8)"><text style="text-anchor: middle; visibility: hidden; font-family: Roboto, sans-serif; font-size: 12px; font-weight: 200;" x="0" y="0" dx="0em" dy="0.95em" fill="rgb(50, 49, 63)" stroke="none" stroke-width="1px">-200</text><text style="text-anchor: middle; visibility: hidden; font-family: Roboto, sans-serif; font-size: 12px; font-weight: 200;" x="19.890571321759904" y="0" dx="0em" dy="0.95em" fill="rgb(50, 49, 63)" stroke="none" stroke-width="1px">0</text><text style="text-anchor: middle; visibility: hidden; font-family: Roboto, sans-serif; font-size: 12px; font-weight: 200;" x="39.78114264351981" y="0" dx="0em" dy="0.95em" fill="rgb(50, 49, 63)" stroke="none" stroke-width="1px">200</text><text style="text-anchor: middle; visibility: hidden; font-family: Roboto, sans-serif; font-size: 12px; font-weight: 200;" x="59.671713965279714" y="0" dx="0em" dy="0.95em" fill="rgb(50, 49, 63)" stroke="none" stroke-width="1px">400</text><text style="text-anchor: middle; visibility: hidden; font-family: Roboto, sans-serif; font-size: 12px; font-weight: 200;" x="79.56228528703961" y="0" dx="0em" dy="0.95em" fill="rgb(50, 49, 63)" stroke="none" stroke-width="1px">600</text><text style="text-anchor: middle; visibility: hidden; font-family: Roboto, sans-serif; font-size: 12px; font-weight: 200;" x="99.45285660879952" y="0" dx="0em" dy="0.95em" fill="rgb(50, 49, 63)" stroke="none" stroke-width="1px">800</text><text style="text-anchor: middle; visibility: hidden; font-family: Roboto, sans-serif; font-size: 12px; font-weight: 200;" x="119.34342793055943" y="0" dx="0em" dy="0.95em" fill="rgb(50, 49, 63)" stroke="none" stroke-width="1px">1k</text><text style="text-anchor: middle; visibility: hidden; font-family: Roboto, sans-serif; font-size: 12px; font-weight: 200;" x="139.23399925231934" y="0" dx="0em" dy="0.95em" fill="rgb(50, 49, 63)" stroke="none" stroke-width="1px">1.2k</text><text style="text-anchor: middle; visibility: hidden; font-family: Roboto, sans-serif; font-size: 12px; font-weight: 200;" x="159.12457057407923" y="0" dx="0em" dy="0.95em" fill="rgb(50, 49, 63)" stroke="none" stroke-width="1px">1.4k</text><text style="text-anchor: middle; visibility: hidden; font-family: Roboto, sans-serif; font-size: 12px; font-weight: 200;" x="179.01514189583915" y="0" dx="0em" dy="0.95em" fill="rgb(50, 49, 63)" stroke="none" stroke-width="1px">1.6k</text><text style="text-anchor: middle; visibility: hidden; font-family: Roboto, sans-serif; font-size: 12px; font-weight: 200;" x="198.90571321759904" y="0" dx="0em" dy="0.95em" fill="rgb(50, 49, 63)" stroke="none" stroke-width="1px">1.8k</text><text style="text-anchor: middle; visibility: hidden; font-family: Roboto, sans-serif; font-size: 12px; font-weight: 200;" x="218.79628453935896" y="0" dx="0em" dy="0.95em" fill="rgb(50, 49, 63)" stroke="none" stroke-width="1px">2k</text><text style="text-anchor: middle; visibility: hidden; font-family: Roboto, sans-serif; font-size: 12px; font-weight: 200;" x="238.68685586111886" y="0" dx="0em" dy="0.95em" fill="rgb(50, 49, 63)" stroke="none" stroke-width="1px">2.2k</text><text style="text-anchor: middle; visibility: hidden; font-family: Roboto, sans-serif; font-size: 12px; font-weight: 200;" x="258.57742718287875" y="0" dx="0em" dy="0.95em" fill="rgb(50, 49, 63)" stroke="none" stroke-width="1px">2.4k</text><text style="text-anchor: middle; visibility: hidden; font-family: Roboto, sans-serif; font-size: 12px; font-weight: 200;" x="278.4679985046387" y="0" dx="0em" dy="0.95em" fill="rgb(50, 49, 63)" stroke="none" stroke-width="1px">2.6k</text></g><line x1="0" y1="0" x2="278.4679985046387" y2="0" fill="rgb(0, 0, 0)" stroke="rgb(204, 204, 204)" stroke-width="1px"></line></g></g></g></g></svg>