<svg viewBox="0 0 330 200" xmlns="http://www.w3.org/2000/svg"><g><g><g><g><g><line x1="51.53200149536133" y1="177.89999961853027" x2="46.53200149536133" y2="177.89999961853027" style="visibility: inherit;" fill="rgb(0, 0, 0)" stroke="rgb(204, 204, 204)" stroke-width="1px"></line><line x1="51.53200149536133" y1="155.662499666214" x2="46.53200149536133" y2="155.662499666214" style="visibility: inherit;" fill="rgb(0, 0, 0)" stroke="rgb(204, 204, 204)" stroke-width="1px"></line><line x1="51.53200149536133" y1="133.4249997138977" x2="46.53200149536133" y2="133.4249997138977" style="visibility: inherit;" fill="rgb(0, 0, 0)" stroke="rgb(204, 204, 204)" stroke-width="1px"></line><line x1="51.53200149536133" y1="111.1874997615814" x2="46.53200149536133" y2="111.1874997615814" style="visibility: inherit;" fill="rgb(0, 0, 0)" stroke="rgb(204, 204, 204)" stroke-width="1px"></line><line x1="51.53200149536133" y1="88.94999980926512" x2="46.53200149536133" y2="88.94999980926512" style="visibility: inherit;" fill="rgb(0, 0, 0)" stroke="rgb(204, 204, 204)" stroke-width="1px"></line><line x1="51.53200149536133" y1="66.71249985694885" x2="46.53200149536133" y2="66.71249985694885" style="visibility: inherit;" fill="rgb(0, 0, 0)" stroke="rgb(204, 204, 204)" stroke-width="1px"></line><line x1="51.53200149536133" y1="44.47499990463257" x2="46.53200149536133" y2="44.47499990463257" style="visibility: inherit;" fill="rgb(0, 0, 0)" stroke="rgb(204, 204, 204)" stroke-width="1px"></line><line x1="51.53200149536133" y1="22.237499952316284" x2="46.53200149536133" y2="22.237499952316284" style="visibility: inherit;" fill="rgb(0, 0, 0)" stroke="rgb(204, 204, 204)" stroke-width="1px"></line><line x1="51.53200149536133" y1="0" x2="46.53200149536133" y2="0" style="visibility: inherit;" fill="rgb(0, 0, 0)" stroke="rgb(204, 204, 204)" stroke-width="1px"></line></g><g transform="translate(41.53200149536133, 0)"><text style="text-anchor: end; visibility: hidden; font-family: Roboto, sans-serif; font-size: 12px; font-weight: 200;" x="0" y="177.89999961853027" dx="0em" dy="0.3em" fill="rgb(50, 49, 63)" stroke="none" stroke-width="1px">-0.1</text><text style="text-anchor: end; visibility: inherit; font-family: Roboto, sans-serif; font-size: 12px; font-weight: 200;" x="0" y="155.662499666214" dx="0em" dy="0.3em" fill="rgb(50, 49, 63)" stroke="none" stroke-width="1px">0</text><text style="text-anchor: end; visibility: hidden; font-family: Roboto, sans-serif; font-size: 12px; font-weight: 200;" x="0" y="133.4249997138977" dx="0em" dy="0.3em" fill="rgb(50, 49, 63)" stroke="none" stroke-width="1px">0.1</text><text style="text-anchor: end; visibility: inherit; font-family: Roboto, sans-serif; font-size: 12px; font-weight: 200;" x="0" y="111.1874997615814" dx="0em" dy="0.3em" fill="rgb(50, 49, 63)" stroke="none" stroke-width="1px">0.2</text><text style="text-anchor: end; visibility: hidden; font-family: Roboto, sans-serif; font-size: 12px; font-weight: 200;" x="0" y="88.94999980926512" dx="0em" dy="0.3em" fill="rgb(50, 49, 63)" stroke="none" stroke-width="1px">0.3</text><text style="text-anchor: end; visibility: inherit; font-family: Roboto, sans-serif; font-size: 12px; font-weight: 200;" x="0" y="66.71249985694885" dx="0em" dy="0.3em" fill="rgb(50, 49, 63)" stroke="none" stroke-width="1px">0.4</text><text style="text-anchor: end; visibility: hidden; font-family: Roboto, sans-serif; font-size: 12px; font-weight: 200;" x="0" y="44.47499990463257" dx="0em" dy="0.3em" fill="rgb(50, 49, 63)" stroke="none" stroke-width="1px">0.5</text><text style="text-anchor: end; visibility: inherit; font-family: Roboto, sans-serif; font-size: 12px; font-weight: 200;" x="0" y="22.237499952316284" dx="0em" dy="0.3em" fill="rgb(50, 49, 63)" stroke="none" stroke-width="1px">0.6</text><text style="text-anchor: end; visibility: hidden; font-family: Roboto, sans-serif; font-size: 12px; font-weight: 200;" x="0" y="0" dx="0em" dy="0.3em" fill="rgb(50, 49, 63)" stroke="none" stroke-width="1px">0.7</text></g><line x1="51.53200149536133" y1="0" x2="51.53200149536133" y2="177.89999961853027" fill="rgb(0, 0, 0)" stroke="rgb(204, 204, 204)" stroke-width="1px"></line></g></g><g transform="translate(51, 0)" clip-path="url(#clip_0)"><clipPath id="clip_0"><rect width="278" height="177"></rect></clipPath><g><g><g><line x1="0" y1="0" x2="0" y2="177.89999961853027" fill="rgb(0, 0, 0)" stroke="rgb(60, 60, 60)" stroke-width="1px" opacity="0.25"></line><line x1="19.890571321759904" y1="0" x2="19.890571321759904" y2="177.89999961853027" fill="rgb(0, 0, 0)" stroke="rgb(60, 60, 60)" stroke-width="1px" opacity="0.25"></line><line x1="39.78114264351981" y1="0" x2="39.78114264351981" y2="177.89999961853027" fill="rgb(0, 0, 0)" stroke="rgb(60, 60, 60)" stroke-width="1px" opacity="0.25"></line><line x1="59.671713965279714" y1="0" x2="59.671713965279714" y2="177.89999961853027" fill="rgb(0, 0, 0)" stroke="rgb(60, 60, 60)" stroke-width="1px" opacity="0.25"></line><line x1="79.56228528703961" y1="0" x2="79.56228528703961" y2="177.89999961853027" fill="rgb(0, 0, 0)" stroke="rgb(60, 60, 60)" stroke-width="1px" opacity="0.25"></line><line x1="99.45285660879952" y1="0" x2="99.45285660879952" y2="177.89999961853027" fill="rgb(0, 0, 0)" stroke="rgb(60, 60, 60)" stroke-width="1px" opacity="0.25"></line><line x1="119.34342793055943" y1="0" x2="119.34342793055943" y2="177.89999961853027" fill="rgb(0, 0, 0)" stroke="rgb(60, 60, 60)" stroke-width="1px" opacity="0.25"></line><line x1="139.23399925231934" y1="0" x2="139.23399925231934" y2="177.89999961853027" fill="rgb(0, 0, 0)" stroke="rgb(60, 60, 60)" stroke-width="1px" opacity="0.25"></line><line x1="159.12457057407923" y1="0" x2="159.12457057407923" y2="177.89999961853027" fill="rgb(0, 0, 0)" stroke="rgb(60, 60, 60)" stroke-width="1px" opacity="0.25"></line><line x1="179.01514189583915" y1="0" x2="179.01514189583915" y2="177.89999961853027" fill="rgb(0, 0, 0)" stroke="rgb(60, 60, 60)" stroke-width="1px" opacity="0.25"></line><line x1="198.90571321759904" y1="0" x2="198.90571321759904" y2="177.89999961853027" fill="rgb(0, 0, 0)" stroke="rgb(60, 60, 60)" stroke-width="1px" opacity="0.25"></line><line x1="218.79628453935896" y1="0" x2="218.79628453935896" y2="177.89999961853027" fill="rgb(0, 0, 0)" stroke="rgb(60, 60, 60)" stroke-width="1px" opacity="0.25"></line><line x1="238.68685586111886" y1="0" x2="238.68685586111886" y2="177.89999961853027" fill="rgb(0, 0, 0)" stroke="rgb(60, 60, 60)" stroke-width="1px" opacity="0.25"></line><line x1="258.57742718287875" y1="0" x2="258.57742718287875" y2="177.89999961853027" fill="rgb(0, 0, 0)" stroke="rgb(60, 60, 60)" stroke-width="1px" opacity="0.25"></line><line x1="278.4679985046387" y1="0" x2="278.4679985046387" y2="177.89999961853027" fill="rgb(0, 0, 0)" stroke="rgb(60, 60, 60)" stroke-width="1px" opacity="0.25"></line></g><g><line x1="0" y1="177.89999961853027" x2="278.4679985046387" y2="177.89999961853027" fill="rgb(0, 0, 0)" stroke="rgb(60, 60, 60)" stroke-width="1px" opacity="0.25"></line><line x1="0" y1="155.662499666214" x2="278.4679985046387" y2="155.662499666214" fill="rgb(0, 0, 0)" stroke="rgb(60, 60, 60)" stroke-width="1px" opacity="0.25"></line><line x1="0" y1="133.4249997138977" x2="278.4679985046387" y2="133.4249997138977" fill="rgb(0, 0, 0)" stroke="rgb(60, 60, 60)" stroke-width="1px" opacity="0.25"></line><line x1="0" y1="111.1874997615814" x2="278.4679985046387" y2="111.1874997615814" fill="rgb(0, 0, 0)" stroke="rgb(60, 60, 60)" stroke-width="1px" opacity="0.25"></line><line x1="0" y1="88.94999980926512" x2="278.4679985046387" y2="88.94999980926512" fill="rgb(0, 0, 0)" stroke="rgb(60, 60, 60)" stroke-width="1px" opacity="0.25"></line><line x1="0" y1="66.71249985694885" x2="278.4679985046387" y2="66.71249985694885" fill="rgb(0, 0, 0)" stroke="rgb(60, 60, 60)" stroke-width="1px" opacity="0.25"></line><line x1="0" y1="44.47499990463257" x2="278.4679985046387" y2="44.47499990463257" fill="rgb(0, 0, 0)" stroke="rgb(60, 60, 60)" stroke-width="1px" opacity="0.25"></line><line x1="0" y1="22.237499952316284" x2="278.4679985046387" y2="22.237499952316284" fill="rgb(0, 0, 0)" stroke="rgb(60, 60, 60)" stroke-width="1px" opacity="0.25"></line><line x1="0" y1="0" x2="278.4679985046387" y2="0" fill="rgb(0, 0, 0)" stroke="rgb(60, 60, 60)" stroke-width="1px" opacity="0.25"></line></g></g></g><g><g><line x1="0" y1="155.662499666214" x2="278.4679985046387" y2="155.662499666214" fill="rgb(0, 0, 0)" stroke="rgb(153, 153, 153)" stroke-width="1.5px"></line></g></g><g><g><line x1="19.890571321759904" y1="0" x2="19.890571321759904" y2="177.89999961853027" fill="rgb(0, 0, 0)" stroke="rgb(153, 153, 153)" stroke-width="1.5px"></line></g></g><g><g><g><g><g><path style="fill: none;" stroke="rgb(255, 112, 67)" stroke-width="2px" d="M23.17251558985029,-0.03271949613272218L23.470874159676686,16.73814717135013L23.868685586111887,25.390070450597673L24.067591299329482,19.45732511754889L24.266497012547084,23.27492664392633L24.365949869155884,21.180219332380553L24.564855582373482,20.220174647185505L24.76376129559108,23.71500451915003L25.161572722026282,-5.2219034879078965L25.26102557863508,6.482479410326648L25.360478435243877,-16.523503017421692L25.55938414846148,-2.827076164822448L26.156101288114275,5.131308226671197L26.355007001331874,2.063036174454217L26.454459857940673,6.526795971765915L26.553912714549476,13.192443123339535L26.65336557115827,-91.68944216037306L27.747346993855068,-11.537860685442572L28.244611276899064,5.499061342716442L28.542969846725462,-8.19690360010254L29.239139842987058,-3.989495719946788L30.034762695857456,3.9267620951536224L30.333121265683857,11.839585122775933L30.432574122292657,15.86800043214365L31.12874411855425,18.070919177231218L31.42710268838065,22.56234485909998L31.62600840159825,30.396092171789295L32.322178397859844,33.82600543155583L32.42163125446864,35.8482508426575L32.71998982429504,35.38324978983701L32.81944268090384,39.398280696126236L33.51561267716544,31.289429871573585L33.714518390383034,19.251470789518073L33.91342410360064,24.752856297365582L34.01287696020944,22.111933804113516L34.11232981681824,22.670837221581706L34.808499813079834,34.314819704031876L35.30576409612383,35.701741743188805L35.50466980934143,36.82891547183552L35.60412266595023,43.3175716654464L35.703575522559035,38.9814720528505L36.001934092385426,42.1499033297453L36.30029266221183,33.95411925039566L36.49919837542942,31.04163774003738L36.59865123203822,34.451586549618874L36.89700980186463,31.18260065694034L37.49372694151742,41.75838767789314L37.59317979812622,41.783260954526L37.792085511343814,37.07268224890637L38.09044408117022,22.912802486985065L38.28934979438782,23.92504963979472L38.38880265099662,24.074075663738828L38.587708364214215,34.01907155557461L38.786614077431814,45.61210402684199L38.88606693404062,30.807193553443316L39.582236930302216,29.92940560211034L40.3778597831726,36.22533318732642L40.4773126397814,35.057885872969585L40.57676549639021,38.86073358358146L40.9745769228254,42.48205373887014L41.9691054889134,53.27881292168149L42.0685583455222,49.819812233098475L42.2674640587398,52.55207169790716L42.466369771957396,54.55140594159415L42.665275485174995,54.43734743211196L42.96363405500139,55.74253246402975L43.06308691161019,55.12334042827832L43.16253976821899,57.00170316596325L43.460898338045396,54.46659090464652L44.45542690413339,58.39060426798979L44.65433261735099,56.44804353263313L45.251049757003784,61.410742266404974L45.54940832683018,60.10480904206974L45.64886118343898,55.799281115383636L45.74831404004778,49.80792215782943L45.84776689665658,56.34432671487116L46.046672609874186,55.58392708501417L46.444484036309376,59.118186246640384L46.64338974952698,57.27212226054456L46.84229546274457,60.67542930600355L47.04120117596217,62.28449499903433L47.53846545900617,63.07071124734082L48.135182598658965,64.86989542185304L48.83135259492057,66.15404873306878L48.930805451529366,56.47031985866687L49.42806973457336,54.63310663153207L49.52752259118216,54.836575132396916L49.82588116100857,54.75855179557643L49.92533401761737,60.55376410999764L50.02478687422616,57.94669069882048L50.42259830066136,59.922981663860355L50.52205115727016,57.80271866006574L50.720956870487754,55.23428916388183L51.01931544031416,54.64403041075172L51.417126866749356,51.89370901970029L51.516579723358156,48.2248723765628L51.616032579966955,55.2249124112503L51.715485436575754,58.090149571299904L51.914391149793346,57.07749583205644L52.21274971961975,60.924745027324505L52.31220257622855,65.90867789387688L52.41165543283735,59.98292361257948L52.71001400266375,56.96795316881842L53.008372572490146,60.773991280376464L53.60508971214295,67.75385069997006L53.80399542536055,62.18442639145051L54.10235399518694,63.796165822771556L54.201806851795745,67.84666020360724L54.40071256501334,67.29032553597732L54.500165421622135,61.22860182083853L54.99742970466614,53.9641434875712L55.09688256127494,61.583253280337814L55.494693987710136,64.91943444871617L55.693599700927734,65.95940917430879L55.99195827075413,56.445533532080496L56.38976969718934,63.73560642285676L56.78758112362453,60.58423084733263L56.98648683684213,64.56090182494295L57.38429826327733,68.88256127676999L57.48375111988613,65.32405202722278L57.58320397649493,62.50100711823179L57.78210968971252,66.35609994596142L58.279373972756524,67.67569284673012L58.378826829365316,69.94467979896424L58.77663825580052,68.1405038056511L58.87609111240932,69.89689922714246L58.97554396901812,71.62295060220254L59.97007253510611,69.61772033082045L60.46733681815011,68.04635925265451L61.163506814411704,59.41381418487988L61.26295967102051,54.58488146435663L61.76022395406451,58.7096301691695L61.85967681067331,58.644670687583854L62.058582523890905,59.99078035040783L62.2574882371085,57.041047604456686L62.6552996635437,64.58902064790632L63.550375373022895,68.14232814703921L63.749281086240494,72.83314167738706L63.84873394284929,74.34193409327979L64.14709251267568,72.91540765797869L64.7438096523285,69.31090485596597L65.53943250519889,67.8775896146039L65.63888536180768,62.83085417651723L65.73833821841649,64.568789779466L65.93724393163409,64.49522631506387L66.03669678824289,66.4788379433496L66.33505535806928,67.01257170450118L66.43450821467809,66.46086718092396L66.93177249772208,42.65985652416182L67.03122535433089,56.40387591675509L68.12520677702767,65.70954079563185L68.42356534685408,65.95166889573326L68.52301820346288,68.69327200155482L68.72192391668047,64.13095631067334L68.92082962989807,67.23658995728853L69.21918819972447,63.75795175956008L70.31316962242127,63.02116429845416L70.71098104885647,66.99049003984413L70.81043390546526,68.32759254482298L71.00933961868286,70.05706513674446L71.30769818850926,70.88060500039953L71.50660390172686,74.81600831209859L72.00386818477085,62.35723228678234L72.10332104137966,59.915442226709686L72.70003818103245,56.40404086041162L72.89894389425005,61.061700258168585L72.99839675085884,59.79981829475416L73.09784960746765,68.52246750836252L73.19730246407644,71.0733003068957L73.29675532068525,74.01556946399165L73.39620817729404,76.93437922007669L73.59511389051166,74.33891210716733L73.79401960372925,75.02406602482696L74.29128388677324,74.1111633960192L74.39073674338204,70.52715741164997L74.49018959999086,69.4978131841951L74.68909531320845,72.57315080586771L75.08690673964364,73.11453982732044L75.28581245286124,72.55089204235591L75.48471816607884,69.32301079240325L75.88252959251405,76.58571540307075L75.98198244912284,82.61727269262336L76.08143530573163,82.89434234608333L76.47924673216683,79.59264182578522L76.87705815860204,79.62878876158314L76.97651101521083,77.17306549282969L77.27486958503724,78.97863241629156L77.47377529825482,77.29312467418677L77.57322815486363,76.48872406726713L77.67268101147242,81.57046097076329L77.77213386808124,80.7864527121208L77.87158672469003,78.39799562862049L77.97103958129884,76.82917324276782L78.16994529451642,81.63540890477397L78.26939815112523,76.30967257458462L78.76666243416922,71.52540127890471L78.86611529077801,71.8251199958131L79.16447386060443,76.67128809061599L79.26392671721322,80.13452032588701L79.56228528703961,78.03941596153412L79.76119100025721,74.77380687563355L80.15900242669242,78.50880903670209L80.35790813991002,78.08616936310268L80.55681385312762,79.04606117559747L80.7557195663452,80.79171319991625L81.05407813617163,82.69697017686867L81.45188956260681,84.84521672990492L81.55134241921562,80.49282068236495L81.75024813243321,67.87243664909026L82.0486067022596,64.28278688086921L82.44641812869482,73.72654229251191L82.9436824117388,76.0372229296389L83.63985240800041,75.2062721463521L83.7393052646092,77.06078246852975L83.9382109778268,77.2614779285186L84.03766383443559,82.0910867864517L84.1371166910444,79.52923905643767L84.23656954765319,81.03923177245485L84.4354752608708,80.76313068485811L84.7338338306972,80.4236017162609L85.13164525713239,81.5077552743972L85.23109811374118,84.04293510163494L85.6289095401764,82.16052060918811L85.92726811000279,79.65462059721541L86.32507953643798,83.0358344236994L86.62343810626439,78.80890858871666L86.7228909628732,74.6328907952581L86.82234381948199,75.35999865148908L86.92179667609079,76.9347710612627L87.02124953269958,80.31670959081924L87.22015524591718,83.35523305109679L87.31960810252598,80.91145037147871L87.41906095913478,76.64686262800947L87.6179666723524,71.69739147630736L87.71741952896119,72.50508993804156L87.81687238556998,75.15732638211244L87.91632524217879,81.06224499423304L88.11523095539638,72.15352822076673L88.31413666861397,79.53739512021578L88.41358952522278,80.42667392307398L89.10975952148438,79.51846335123257L89.40811809131077,77.58336454745316L89.50757094791958,82.59867578326215L89.60702380452837,81.17960712822094L89.80592951774598,78.09782258026993L90.10428808757237,77.32055983569894L90.30319380078997,77.65984224395814L90.50209951400757,77.50128057985646L90.89991094044277,82.79610379327416L91.29772236687796,84.5256821030522L91.59608093670435,78.81876037824863L91.69553379331316,79.33346112627652L91.79498664992195,84.13590327242021L91.89443950653077,86.7624643754175L91.99389236313957,86.18724321117301L92.49115664618355,75.85480619075884L93.08787378583636,77.25208619883493L93.28677949905396,77.60999943349015L93.38623235566276,77.92995695114125L93.48568521227155,81.28945600281475L93.78404378209795,85.16400994419334L94.08240235192434,87.88218604461082L94.18185520853315,83.93253854429892L94.48021377835956,80.21569739237626L94.57966663496835,76.41567219155517L94.67911949157715,80.02113191016981L94.87802520479474,83.20857875476271L95.07693091801234,86.29943229552653L95.67364805766515,87.57203377080049L95.97200662749154,86.61554743906541L96.07145948410033,83.46105728227766L96.36981805392675,77.83284796085057L96.46927091053554,80.60506267105671L96.56872376714435,79.3915717690738L96.76762948036193,83.44316993602165L96.86708233697074,78.0943805904074L97.46379947662354,78.73700274968019L97.86161090305873,84.04601735534428L97.96106375966754,79.3534640649319L98.15996947288512,80.74299356654087L98.35887518610272,80.09218208241418L98.55778089932033,86.04062256504679L98.65723375592913,87.26719647417654L98.75668661253793,81.50795516928581L98.85613946914673,85.28969892335517L98.95559232575553,84.8188558922332L99.25395089558192,80.90410395213385L99.45285660879952,81.3406477054905L99.65176232201713,82.46061468035934L99.95012089184353,84.59860474720978L100.14902660506112,82.50117530427043L100.24847946166992,84.86569615560181L100.34793231827872,82.7016445536832L100.74574374471392,87.83232514737587L100.94464945793152,88.9678316833429L101.04410231454032,87.09084205920225L101.24300802775791,90.82482016902537L101.54136659758431,84.87031995233136L101.93917802401951,82.73775145668091L102.23753659384592,87.38708335357691L102.53589516367231,89.587078882642L102.6353480202811,85.19112217383696L102.83425373349871,85.50882970532014L103.03315944671631,87.21905238461592L103.23206515993391,79.09050010326774L103.7293294429779,84.76824224686312L104.0276880128043,83.67562733614751L104.12714086941311,81.17335833182034L104.2265937260219,84.19408416868716L104.5249522958483,81.1661209732006L105.3205751487187,83.47852469584534L105.4200280053275,83.37594769612218L105.5194808619363,80.94032014306545L105.71838657515389,79.7516566534423L106.1161980015891,85.0413663519412L106.3151037148067,84.18991585700908L106.41455657141549,83.9731647535691L106.81236799785069,88.72514278293805L107.01127371106828,90.93169296347915L107.11072656767708,89.14075633748142L107.4090851375035,91.16398919348988L107.6079908507211,90.63636950222426L107.80689656393868,92.7932725065896L108.10525513376508,92.0622253876891L108.30416084698268,91.99642202285219L108.40361370359149,93.1192078652083L108.60251941680909,93.37393911945459L108.70197227341788,94.51046408755873L109.00033084324427,86.4936773388219L109.29868941307069,90.60619017815769L109.39814226967948,87.3410642884522L110.09431226594107,91.56681569656607L110.19376512254988,87.17580062326189L110.29321797915867,89.17638282514804L110.39267083576746,91.43325759644925L110.59157654898507,91.5679025165429L110.69102940559388,93.81781255624159L110.88993511881147,90.49730219105209L110.98938797542027,89.77317590294582L111.08884083202906,87.42045978669074L111.38719940185547,89.33760196026653L111.48665225846426,86.78145524275477L111.58610511507307,85.58234469446909L111.68555797168187,89.89449827901524L111.88446368489947,87.96206515694432L112.48118082455225,91.914150331826L112.58063368116107,88.68418703244055L112.87899225098747,93.06590932803059L113.57516224724905,92.35677071189602L113.87352081707546,91.70919905375511L114.56969081333705,92.092557898677L114.66914366994585,86.9961978786163L114.76859652655466,84.69329928391784L114.96750223977226,83.61431600680544L115.06695509638105,78.83033243786966L115.16640795298986,83.91229437112602L115.46476652281625,88.20667596816901L115.56421937942504,90.30656939215307L115.76312509264264,91.81181066232989L115.96203080586025,88.02801828710724L116.06148366246904,90.89015327442588L116.45929508890424,93.0256958833423L116.55874794551305,91.55366815986594L116.95655937194823,91.7234804169929L117.05601222855705,91.45236260243885L117.15546508516584,92.35066825279816L117.25491794177465,91.23222172643082L117.55327651160104,94.0390688711235L117.65272936820983,94.48197825578826L117.75218222481864,91.8432391931487L118.05054079464504,88.84576092517817L118.14999365125384,90.03800887937862L118.94561650412423,89.52472144337659L119.34342793055943,89.96181559313665L119.54233364377703,89.93113519826392L119.74123935699463,86.38812395818401L119.84069221360343,90.10111736518301L120.13905078342982,92.35609855881498L120.23850364003863,87.5673827929126L120.43740935325623,90.51823294470103L120.53686220986503,90.9029631438572L120.63631506647383,85.15312405744001L120.73576792308262,86.25370181244162L121.03412649290902,81.34791894194133L121.82974934577942,86.54928434645765L122.02865505899702,83.80773148797383L122.22756077221462,87.42852212875974L122.42646648543223,93.61054228833217L122.52591934204102,91.55326593524428L122.62537219864981,89.2179426605805L122.82427791186741,92.1800407308272L123.02318362508501,93.09893013646567L123.1226364816938,93.33187809604122L123.22208933830261,89.53428820582242L123.52044790812901,88.27127655167759L123.71935362134661,85.60770442918108L124.4155236176082,88.09337500942885L124.514976474217,91.23016416017971L124.81333504404341,90.02867559009127L125.01224075726101,94.3866562748868L125.6089578969138,91.21087133442964L125.7084107535226,91.35429378765028L125.9073164667402,90.77278549599896L126.1062221799578,93.35328648112777L126.504033606393,95.26122897060239L126.9018450328282,94.15950967836187L127.10075074604579,96.0734114520527L127.29965645926339,89.97316842375567L127.5980150290898,93.48884699217297L127.69746788569859,91.3638523127624L127.79692074230738,88.43814036020673L127.8963735989162,89.64448418920465L128.49309073856898,95.12720928703465L128.5925435951778,95.7292377642347L129.18926073483058,97.00859185206738L129.38816644804817,98.25958436139322L129.58707216126578,95.30226730842674L129.68652501787457,94.71122767739185L129.7859778744834,93.97328666448065L130.68105358396258,89.9014040168612L130.87995929718016,89.9866126167615L131.17831786700657,91.4598776403023L131.57612929344177,94.4116470125702L131.77503500665938,94.0072472067679L131.87448786326817,93.93278147053178L132.27229928970337,91.33093777352839L132.37175214631216,95.73467351110216L132.57065785952977,95.59540230354796L132.67011071613857,95.35884192913743L132.7695635727474,100.13124509254602L133.06792214257376,96.16334523718342L133.16737499918256,96.57965367062693L134.16190356527056,101.36925530018101L134.36080927848815,97.84367186524203L134.46026213509697,96.38837352121752L134.75862070492335,97.92026243182056L134.85807356153214,100.7174522027368L134.95752641814096,101.8927042785811L135.25588498796736,98.89378149272011L135.35533784457616,98.16796950484036L135.45479070118495,94.73819781984159L136.94658355031694,95.68934779358005L137.24494212014335,97.67559806649527L137.44384783336093,96.49569246568377L137.54330068996975,96.52466414810323L137.74220640318734,98.60449073510098L137.84165925979613,95.67872664368143L138.14001782962254,93.71121076867307L138.43837639944894,87.45269824291287L138.53782925605773,90.73675241088293L138.63728211266653,90.24187756649457L138.73673496927535,93.25469622404593L138.93564068249293,96.74697597542648L139.13454639571054,91.3961153469815L139.33345210892813,96.0521832898039L139.53235782214574,101.73673207971898L139.63181067875453,98.31483920755659L139.83071639197212,99.42324093026704L140.02962210518973,93.0715934256953L140.22852781840731,97.61114057198883L140.3279806750161,96.95361417016936L140.42743353162496,91.72515991515381L140.52688638823375,94.23108021161318L140.62633924484254,93.74123591040154L141.62086781093052,96.65206611211858L142.01867923736572,96.84638233171415L142.41649066380091,100.59329361946732L142.51594352040973,98.55315339052565L142.61539637701853,99.2109562521597L142.81430209023614,96.98323863344828L143.11266066006252,101.90280828190815L143.41101922988892,92.80540525509039L143.6099249431065,93.16107560402375L143.80883065632412,92.07642205262451L143.9082835129329,91.67740072308732L144.1071892261505,92.11036110252451L144.5050006525857,88.61556731452222L144.60445350919449,91.72715890150306L144.70390636580333,94.59285197353637L144.90281207902092,97.08477539099924L145.0022649356297,100.96104632727842L145.30062350545612,97.29202748152065L145.4000763620649,97.34111179676272L145.4995292186737,100.68513459462586L145.59898207528252,92.93365294604646L145.7978877885001,94.5173273955355L146.2951520715441,98.02053173055806L146.5935106413705,96.30284407784487L147.09077492441452,100.01301536638807L147.2896806376321,100.56113301584186L147.6874920640673,97.91034024358892L147.88639777728488,89.60689022808604L148.28420920372008,94.561917506261L148.38366206032887,97.43521832090074L148.4831149169377,100.0930186336295L148.5825677735465,100.45214372049495L148.78147348676407,97.38605710249296L149.0798320565905,97.30202499805347L149.1792849131993,93.9841310359252L149.3781906264169,95.2438955393106L149.4776434830257,94.51710720701494L149.5770963396345,96.46361970121923L150.17381347928728,94.46747800828314L150.3727191925049,100.04416257245003L150.47217204911368,98.62142358641646L150.67107776233127,100.61731138772406L150.77053061894009,99.8996787883393L151.06888918876646,98.18616429606848L151.16834204537525,95.96772513663038L151.66560632841927,97.083227005983L151.7650591850281,93.43385101843448L151.86451204163689,96.37509300491345L152.16287061146326,100.06014625511733L152.36177632468087,103.03450698085649L152.46122918128967,104.0870608761763L152.56068203789846,99.609310722537L152.66013489450728,97.49112848160775L152.75958775111607,92.17493900657621L152.85904060772486,94.13458834547919L153.45575774737767,91.3887869346193L153.95302203042166,89.23287884625893L154.05247488703048,93.57673871058033L154.15192774363928,94.78567962817606L154.64919202668327,92.92532425017217L155.04700345311846,95.34721779553723L155.24590916633605,97.37002661559197L155.34536202294484,98.59022255872246L155.74317344938007,98.29164388003784L156.14098487581526,96.37203739833326L156.83715487207684,94.02411898152901L157.03606058529445,97.23413674915963L157.33441915512083,89.74377098970244L157.53332486833844,94.29366636733155L157.63277772494723,96.84363419338239L157.93113629477367,97.86268783284225L158.03058915138246,93.05320770275995L158.22949486460004,97.05251327859274L158.32894772120886,100.50203852295861L158.62730629103524,102.17803688958101L160.31800485338485,97.11740037132421L160.41745770999364,95.28672158963926L160.51691056660243,94.49614140373467L160.61636342321123,96.24148261342056L161.01417484964642,97.35385217037306L161.31253341947283,95.92922621619519L161.41198627608162,99.7552190981572L161.71034484590803,100.92780173865513L161.80979770251682,103.6236635771638L161.9092505591256,100.24873336091662L162.30706198556084,100.68115501033401L162.40651484216963,102.98135647631588L162.50596769877842,103.44278498737084L162.70487341199603,97.76952597977822L162.90377912521362,97.22942467038196L163.10268483843123,97.35155555825834L163.30159055164881,96.8257985207531L163.8983076913016,100.48963648798774L164.0972134045192,103.17220473108938L164.59447768756323,103.1957049436164L164.69393054417202,99.9379616611596L165.5890062536512,101.06463640226397L165.68845911026,100.23951069681053L166.78244053295683,96.46375370771867L167.180251959392,93.60947262374629L167.27970481600082,98.78480833363965L167.5780633858272,97.82184294088854L167.67751624243598,98.12761419825257L167.9758748122624,99.00410872266599L168.17478052548,96.35399796320493L168.2742333820888,97.22600208356586L168.3736862386976,100.14722766201355L169.0698562349592,97.54166132448151L169.169309091568,98.44640172586563L169.2687619481768,101.09267801625833L169.3682148047856,101.01033056357852L169.666573374612,103.47085761760874L169.86547908782958,100.92823322659942L169.96493194443838,103.96896974714765L170.0643848010472,105.49277386210997L170.163837657656,104.19526806669771L170.66110194069998,104.54123568224348L170.8600076539176,103.19693257825053L171.35727193696158,102.47876408532078L171.4567247935704,95.04493138290854L171.75508336339678,94.56353559192137L172.45125335965838,97.23422246606668L172.65015907287597,100.0017720689999L173.64468763896397,99.95934772390824L173.84359335218159,104.08661224502114L173.94304620879038,97.28251763389947L174.14195192200796,97.58335671871397L174.24140477861675,99.59244784003118L174.44031049183437,101.76517955480523L174.53976334844316,101.79445008792793L175.13648048809594,105.86694982734258L175.2359333447048,105.42596614307887L175.83265048435757,103.06102822438844L175.93210334096636,102.26519920049117L176.82717905044555,99.03135693797658L177.22499047688075,98.7828771395556L177.42389619009836,102.32691235551701L177.82170761653356,101.41075061836308L178.41842475618634,102.57698391953582L178.71678332601275,103.58276426557723L178.91568903923033,104.25460888976843L179.21404760905673,105.74372991038518L179.41295332227432,105.56538393488931L179.51240617888317,105.81066725633858L179.91021760531834,106.39456780148143L180.00967046192716,104.25493665562296L180.20857617514474,101.46161075787981L180.30802903175353,101.08215730663129L180.50693474497115,105.0262684305683L180.80529331479752,101.34495657332371L180.90474617140634,99.46406132960702L181.00419902801514,99.14272827915548L181.40201045445033,100.3363114243213L181.60091616766792,102.80749267430375L181.7003690242767,96.87893720912919L181.79982188088553,101.38636267578866L181.99872759410314,102.035113008161L182.19763330732073,100.2405566930568L182.39653902053834,102.01826094349445L182.69489759036472,100.19167579941035L182.99325616019112,104.54557045562902L183.09270901679992,104.62465293610792L183.1921618734087,105.11143617674101L183.4905204432351,103.24036880309497L183.68942615645273,101.29697014670288L183.78887901306155,97.71945842141504L184.08723758288792,103.05996024058105L184.18669043949674,104.79744954788885L184.48504900932312,102.30307963997778L184.88286043575832,101.58004684343484L184.9823132923671,103.7855128397563L185.0817661489759,102.81161284858409L185.7779361452375,104.70780441291669L185.9768418584551,105.04331223347349L186.07629471506394,103.92982592873751L186.17574757167273,106.02210441088475L186.4741061414991,103.37243148358066L186.57355899810793,90.44134390859598L186.7724647113255,89.3177314194942L187.1702761377607,94.2883169841048L187.2697289943695,100.87394655347096L187.3691818509783,103.50663114882852L187.6675404208047,97.67444750756488L188.0653518472399,100.75748113364503L188.1648047038487,96.7709598833655L188.3637104170663,102.2420288574676L188.46316327367512,101.75978948626252L188.5626161302839,100.2186896861458L188.6620689868927,102.02102768235603L188.86097470011032,103.12794157570036L189.1593332699367,105.5315603943199L189.2587861265455,107.58303690651758L189.3582389831543,106.35423806271227L189.4576918397631,102.98737013499749L189.8555032661983,102.08106908838072L189.9549561228071,105.57606721799499L190.4522204058511,105.42353540669853L190.6511261190687,105.10763743954337L190.7505789756775,100.12937825473115L190.8500318322863,99.88809897828125L191.2478432587215,101.53839294097018L191.54620182854788,100.71728152969546L191.7451075417655,100.71379627047176L192.04346611159187,104.0216687051973L192.14291896820066,101.44132561620874L192.24237182480948,104.95721340432428L192.34182468141827,107.22602242296932L192.44127753802707,101.76311560273976L192.6401832512447,104.19763281006315L192.8390889644623,104.01252688337051L193.1374475342887,106.08466278198787L193.2369003908975,108.34491411971806L193.43580610411507,104.16948081814607L193.53525896072387,101.0304423543962L193.6347118173327,101.28516242728529L193.93307038715906,98.91493293198077L194.13197610037668,99.37918879196734L194.23142895698547,99.60533766373133L194.33088181359426,101.97280316212247L194.43033467020305,106.66286066292056L195.12650466646468,105.77830587841659L195.22595752307348,106.56337400399771L195.52431609289988,104.73901405540026L196.02158037594387,103.04221322712475L196.41939180237907,105.4870648102149L197.01610894203188,106.44205195926776L197.11556179864067,107.27088950877099L197.31446751185825,103.28287301184542L197.71227893829345,101.53646261028987L197.81173179490227,104.86199116557816L197.91118465151106,103.21081880259062L198.11009036472865,107.56443211516246L198.20954322133744,99.33462039656975L198.30899607794626,101.66071663228487L198.70680750438143,103.56683486856818L199.10461893081663,104.1037507710532L199.30352464403427,107.03077576424546L199.40297750064306,107.06281076432764L200.19860035351346,104.68328495792201L200.29805321012225,103.03725058898199L200.59641177994862,106.94779611367504L200.89477034977503,108.61750745935998L201.29258177621026,110.1872997693351L201.49148748942784,106.35668631296343L201.88929891586304,106.08541979696592L202.38656319890703,104.53750428630292L202.48601605551582,106.38795470529567L202.88382748195102,106.74303316948827L202.98328033855984,106.535200851365L203.2816389083862,105.69348287190608L203.381091764995,106.21824171532647L203.48054462160385,104.69144828500632L203.77890319143023,103.48821168929301L204.07726176125664,103.49648060676408L204.17671461786543,107.21961488839563L204.375620331083,106.3007007342168L204.57452604430063,103.77794909195103L204.67397890090942,105.0200822859131L204.7734317575182,106.70216563283556L205.4696017537798,105.41418303369257L205.66850746699743,101.10344045520041L205.76796032360622,102.78382936735034L206.36467746325903,109.610953156783L206.46413031986782,110.07910215882556L206.5635831764766,106.32112797313653L206.6630360330854,106.9612861809653L206.76248888969423,101.12618370492797L206.9613946029118,105.19355662702995L207.25975317273821,106.84352875178114L207.95592316899982,110.2637464201136L208.0553760256086,106.84069381786117L208.15482888221743,108.78756192301421L209.0499045916966,105.68190955273705L209.348263161523,107.1020693135783L209.44771601813179,110.61276807338098L209.84552744456698,108.67922228651287L209.94498030117578,110.78779953914534L210.04443315778462,100.59542998416363L210.14388601439342,106.31712215607736L210.4422445842198,106.79943536083528L210.5416974408286,106.14065272288961L210.6411502974374,104.78165832634325L210.7406031540462,104.42694592282157L211.1384145804814,106.60503978144682L211.2378674370902,110.12630081566687L211.33732029369898,109.47579237031486L211.63567886352538,108.41125980980297L211.83458457674297,107.91270483625507L212.03349028996058,107.5015891834302L212.2323960031782,103.50285091585515L212.331848859787,105.80926321454457L212.4313017163958,108.84226037243256L212.6302074296134,107.07832299352475L212.72966028622218,102.32163504739601L213.22692456926617,105.09534319882368L213.52528313909258,104.44570760819404L213.72418885231016,104.38457761204381L214.02254742213657,106.2268281904598L214.320905991963,105.94440780724791L214.4203588485718,106.38703498253795L214.61926456178938,108.58103645256799L214.818170275007,104.64227755578572L215.41488741465977,107.43189638063615L215.51434027126857,106.43227928507538L215.71324598448618,110.36364914729101L215.91215169770376,105.49343085452635L216.80722740718298,105.42787720804026L216.90668026379177,100.72603607901887L217.00613312040056,102.99372760917879L217.10558597700938,104.04565654719947L218.29902025631495,102.85227021281193L218.49792596953256,103.78658110331057L218.69683168275017,104.38215310905157L218.89573739596776,104.81545302499649L219.29354882240295,105.01156444162554L219.39300167901175,107.08275931092518L219.49245453562057,107.3902978138176L219.59190739222936,100.65035246301656L219.69136024883815,101.87498650380792L219.79081310544694,106.11058458250841L219.89026596205574,104.81025104096801L220.08917167527335,107.09444154794348L220.18862453188214,108.08062066587536L220.28807738849093,108.1278166184296L220.48698310170855,107.13639153266944L220.98424738475256,108.16242748924394L221.28260595457894,108.79062766231664L221.48151166779655,107.07648886969174L221.58096452440535,109.18854778088476L221.77987023762293,109.23172372653762L222.07822880744934,108.88512647378926L222.37658737727574,110.38428814438265L222.57549309049332,106.28336917217482L222.87385166031973,108.66773364829324L223.17221023014613,106.71852118656712L223.27166308675496,107.87977101511363L223.57002165658133,108.4507123881709L223.76892736979894,103.56393205877049L223.86838022640774,105.11569042172847L224.66400307927813,108.9257124100321L224.76345593588692,107.08712209599521L224.9623616491045,106.51331485753525L225.45962593214853,104.5040799475653L225.95689021519252,106.92405842221135L226.05634307180134,104.17190389919257L226.15579592841013,105.68649083273203L226.3547016416277,109.22985112481389L226.4541544982365,107.02958603671986L226.65306021145412,109.14301474293954L226.8519659246717,106.39886864770833L227.1503244944981,107.41680265574018L227.2497773511069,105.25695097939955L227.64758877754213,109.52679306694336L228.14485306058612,108.06077373978404L228.3437587738037,108.09076982093488L228.9404759134565,111.65237489367699L229.0399287700653,111.6122475199265L229.1393816266741,107.88713501469866L229.2388344832829,108.87860278096684L229.3382873398917,107.96172404062149L229.6366459097181,110.09046993327001L229.83555162293572,110.84147871857611L230.1339101927621,110.74255428648657L230.2333630493709,112.92206567893389L230.5317216191973,110.53937853799782L230.7306273324149,110.12168075409562L230.9295330456325,104.80757947851518L231.0289859022413,106.28953401296879L231.12843875885008,107.68475080148836L231.52625018528528,108.27910595868045L231.9240616117205,110.00388227884197L232.0235144683293,107.96993571019928L232.1229673249381,107.74176475222023L232.52077875137329,107.2342454844328L232.6202316079821,109.9476486863425L232.8191373211997,109.62649816221749L232.91859017780848,108.35524797903727L233.1174958910261,108.89275654155865L233.2169487476349,109.57485983734537L233.31640160424368,109.78461383370644L233.51530731746126,108.6309244720936L233.61476017407008,108.71410262659771L233.71421303067888,108.73799607499188L233.81366588728767,109.14225413695453L234.1120244571141,111.65304320506175L234.3109301703317,110.54779652763926L234.41038302694048,110.37611784972749L235.0071001665933,110.57335477923634L235.10655302320208,109.04440545078336L235.20600587981087,103.26669696166016L235.60381730624607,106.17373287566241L235.80272301946366,104.71390157809496L236.0016287326813,107.96902019921636L236.3994401591165,107.37125617994L237.09561015537807,105.5217209635536L237.39396872520447,107.83359219531542L237.59287443842206,109.89826800251117L237.79178015163967,108.46184005842441L237.89123300824846,105.3263623985711L238.09013872146605,108.06626755811791L238.2890444346837,107.94357888004961L238.48795014790127,108.4823830702886L238.58740300451007,107.64814153837705L238.68685586111886,107.54526989220898L238.98521443094526,105.10579403183489L239.08466728755405,105.36189196631109L239.38302585738046,105.65032597636784L239.48247871398925,105.83604848540185L239.78083728381566,107.43162016572013L240.07919585364203,110.16940357212428L240.47700728007726,110.08067384885328L241.07372441973007,108.03696747315574L241.17317727633886,110.67590460089832L241.47153584616524,108.89680586097623L241.57098870277406,109.11180040830537L241.76989441599164,107.31817615367842L241.96880012920923,108.99664588609839L242.06825298581805,110.60017069937525L242.26715869903563,110.79661605239262L242.36661155564443,111.60139671875284L242.56551726886207,108.50367873381434L242.66497012547086,109.28209889442935L242.76442298207965,108.0958048111926L242.86387583868844,110.7443328571879L243.06278155190606,109.41096526783161L243.26168726512364,110.05576449453909L243.36114012173243,106.72913803803739L243.75895154816763,107.57560878252899L243.85840440477642,108.52729575236617L244.05731011799404,110.51189329009544L244.3556686878204,102.9368023663978L244.55457440103802,106.53338460815314L244.85293297086446,108.0182026139076L245.44965011051724,106.38215226192115L246.04636725017002,107.55117355170711L246.44417867660522,111.8112244465862L246.74253724643162,109.65600894123155L247.23980152947564,106.26030250905059L247.43870724269323,107.64795696662615L247.73706581251963,109.53758671823915L248.3337829521724,106.54688432980844L248.4332358087812,108.27240956494984L248.63214152199882,108.11427941498843L248.9305000918252,110.6644978083818L249.22885866165163,111.55138658945373L249.32831151826042,104.3867810883506L249.4277643748692,107.43365193585367L250.3228400843484,108.90972079464181L250.4222929409572,109.4942855858556L250.521745797566,108.003159674511L250.6211986541748,107.23983041649106L250.8201043673924,108.66662128886476L251.01901008061,113.19539094420918L251.31736865043638,112.99051161415825L251.4168215070452,115.42537256224182L251.8146329334804,112.44506147432668L252.013538646698,114.58679369018603L252.1129915033068,109.95782238916907L252.2124443599156,112.26853332324038L252.3118972165244,111.87324969643264L253.10752006939478,113.47356499224612L254.002595778874,110.03502335651376L254.20150149209158,109.51623621437629L254.49986006191799,110.38926223251285L254.99712434496197,113.24348402065702L255.29548291478838,110.77183423659797L255.39493577139717,103.82349473792964L255.6932943412236,108.89822651709733L255.7927471978324,107.32600793353114L256.09110576765875,108.95228709195261L256.38946433748515,111.88180925969453L256.58837005070274,110.41816453099732L256.7872757639204,109.29432255700527L257.0856343337468,111.99425508604301L257.3839929035732,109.5659376118085L257.48344576018195,108.07901165189313L257.58289861679077,109.4462534764851L257.78180433000836,108.47525362771354L258.57742718287875,109.44835338617457L258.77633289609633,107.04007864231909L258.975238609314,108.6241279462695L259.17414432253156,110.66915544259764L259.67140860557555,108.97273982076703L260.16867288861954,111.03456493905674L260.56648431505477,108.24527561287255L260.96429574148993,107.2609535801272L261.06374859809875,102.9363269954886L261.1632014547076,101.77909803541498L261.56101288114274,103.64477464994606L261.66046573775157,104.90504899977347L261.75991859436033,103.70410155114412L261.85937145096915,107.60884568723442L262.15773002079555,108.39660751380904L262.65499430383954,110.23337458416351L262.95335287366595,109.1447584615556L263.15225858688353,110.54151606294835L263.55007001331876,113.29737621685777L263.6495228699275,112.63084326298288L263.74897572653634,111.18105316653919L263.84842858314516,109.84955910071736L264.04733429636275,112.75733193991455L264.24624000958033,115.08828295587543L264.54459857940674,113.74460098976557L264.84295714923314,109.73469551240963L264.9424100058419,106.97061339729433L265.14131571905955,108.38847195556843L265.34022143227713,112.91419647261932L266.03639142853876,112.46711024679422L266.3347499983651,110.76125717679994L266.43420285497393,109.61848855103723L266.6331085681915,108.21758490109703L266.8320142814091,108.23222839684111L267.03091999462674,108.23262434334124L267.1303728512355,112.96052110347095L267.3292785644531,112.54775104714213L267.62763713427955,105.3372803544463L267.82654284749714,106.16912886930825L268.12490141732354,109.60175418448789L268.3238071305411,107.57052637831138L268.42325998714995,105.94963902353865" fill="none"></path></g></g></g></g><g opacity="0.2"><g><g><g><path style="fill: none;" stroke="rgb(255, 112, 67)" stroke-width="2px" d="M21.780175597327094,-5.7096474957224075L21.879628453935894,1.9458019229769263L22.277439880371094,17.415808772949077L23.17251558985029,17.018555670246656L23.470874159676686,41.803180856771434L23.868685586111887,38.33970533881896L24.067591299329482,10.569829983696195L24.266497012547084,28.99684148620551L24.365949869155884,18.039635714949327L24.564855582373482,18.780513878128886L24.76376129559108,28.956361990170905L25.161572722026282,-48.62285725180986L25.26102557863508,24.037983930720515L25.360478435243877,-51.03121495629186L25.45993129185268,16.161408306276144L25.55938414846148,-1.8936530921980932L26.156101288114275,17.068790539261443L26.355007001331874,-2.5393500959066273L26.454459857940673,13.222416631836893L26.553912714549476,23.190896795135814L26.65336557115827,-249.0121090675428L27.05117699759347,-3.292223656568609L27.150629854202272,31.239808505841467L27.250082710811068,7.955933462904881L27.747346993855068,-23.013014991408625L28.244611276899064,31.054443164635188L28.542969846725462,-28.740850425722613L28.64242270333426,-23.805665555213977L29.239139842987058,11.686873208258248L30.034762695857456,15.801148744317857L30.333121265683857,23.708819620136552L30.432574122292657,21.910623382732837L31.12874411855425,21.375297290445445L31.42710268838065,29.29948337649961L31.62600840159825,42.146713135168596L32.322178397859844,38.97087531972005L32.42163125446864,38.88161895878454L32.71998982429504,34.68574821067875L32.81944268090384,45.42082705518446L33.51561267716544,19.126153635199756L33.714518390383034,1.1945321668402187L33.91342410360064,33.004934559025685L34.01287696020944,18.150550064267463L34.11232981681824,23.5091923477799L34.808499813079834,51.78079342765642L35.30576409612383,37.78212480192053L35.50466980934143,38.51967606480386L35.60412266595023,53.05055595585657L35.703575522559035,32.477322633959034L36.001934092385426,46.902550245086445L36.30029266221183,21.660443131372915L36.49919837542942,26.672915474500343L36.59865123203822,39.566509763990894L36.89700980186463,26.279121817922686L37.49372694151742,57.62206820932214L37.59317979812622,41.82057086947523L37.792085511343814,30.006814190476945L38.09044408117022,1.6729828441032168L38.28934979438782,25.443420369009146L38.38880265099662,24.297614699654986L38.587708364214215,48.93656539332831L38.786614077431814,63.001652733743114L38.88606693404062,8.599827843345338L39.582236930302216,28.612723675110914L40.3778597831726,45.669224565150586L40.4773126397814,33.306714901434304L40.57676549639021,44.5650051494993L40.9745769228254,47.91403397180318L41.9691054889134,69.47395169589853L42.0685583455222,44.63131120022396L42.2674640587398,56.650460895120176L42.466369771957396,57.55040730712466L42.665275485174995,54.26625966788869L42.96363405500139,57.70031001190638L43.06308691161019,54.194552374651224L43.16253976821899,59.81924727249066L43.460898338045396,50.66392251267146L44.45542690413339,64.27662431300469L44.65433261735099,53.53420242959814L45.251049757003784,68.85479036706272L45.54940832683018,58.145909205566966L45.64886118343898,49.34098922535448L45.74831404004778,40.82088372149812L45.84776689665658,66.14893355043378L46.046672609874186,54.443327640228674L46.444484036309376,64.41957498907975L46.64338974952698,54.503026281400864L46.84229546274457,65.78038987419205L47.04120117596217,64.69809353858047L47.53846545900617,64.25003561980056L48.135182598658965,67.56867168362135L48.83135259492057,68.08027869989239L48.930805451529366,41.94472654706402L49.42806973457336,51.87728679082994L49.52752259118216,55.14177788369416L49.82588116100857,54.64151679034572L49.92533401761737,69.2465825816295L50.02478687422616,54.03608058205471L50.42259830066136,62.887418111420175L50.52205115727016,54.62232415437384L50.720956870487754,51.38164491960595L51.01931544031416,53.75864228105655L51.417126866749356,47.76822693312319L51.516579723358156,42.721617411856556L51.616032579966955,65.72497246328155L51.715485436575754,62.38800531137436L51.914391149793346,55.558515223191236L52.21274971961975,66.69561882022663L52.31220257622855,73.38457719370545L52.41165543283735,51.09429219063337L52.71001400266375,52.44549750317688L53.008372572490146,66.48304844771353L53.60508971214295,78.22363982936047L53.80399542536055,53.83028992867118L54.10235399518694,66.21377496975313L54.201806851795745,73.92240177486073L54.40071256501334,66.45582353453243L54.500165421622135,52.136016248130375L54.99742970466614,43.06745598767023L55.09688256127494,73.01191796948771L55.494693987710136,69.9237062012837L55.693599700927734,67.51937126269773L55.99195827075413,42.174720068738054L56.38976969718934,74.6707157590211L56.78758112362453,55.85716748404643L56.98648683684213,70.52590829135845L57.38429826327733,75.36505045451058L57.48375111988613,59.98628815290196L57.58320397649493,58.26643975474532L57.78210968971252,72.13873918755588L58.279373972756524,69.65508219788312L58.378826829365316,73.34816022731545L58.77663825580052,65.43423981568132L58.87609111240932,72.53149235937954L58.97554396901812,74.21202766479269L59.97007253510611,66.6098749237473L60.46733681815011,65.68931763540562L61.163506814411704,46.46499658321794L61.26295967102051,47.341482383571716L61.76022395406451,64.89675322638881L61.85967681067331,58.547231465205414L62.058582523890905,62.00994484464381L62.2574882371085,52.61644848552997L62.6552996635437,75.91098021308078L63.550375373022895,73.47228939573853L63.749281086240494,79.86936197290888L63.84873394284929,76.60512271711887L64.14709251267568,70.77561800502707L64.7438096523285,63.904150652946896L65.53943250519889,65.72761675256082L65.63888536180768,55.26075101938723L65.73833821841649,67.17569318388918L65.93724393163409,64.3848811184607L66.03669678824289,69.45425538577823L66.33505535806928,67.81317234622854L66.43450821467809,65.63331039555813L66.93177249772208,6.9583405390186215L67.03122535433089,77.01990500564506L68.12520677702767,79.66803811394698L68.42356534685408,66.3148610458854L68.52301820346288,72.80567666028716L68.72192391668047,57.28748277435109L68.92082962989807,71.89504042721133L69.21918819972447,58.5399944629674L70.31316962242127,61.91598310679531L70.71098104885647,72.94447865192907L70.81043390546526,70.33324630229131L71.00933961868286,72.65127402462667L71.30769818850926,72.11591479588215L71.50660390172686,80.71911327964713L72.00386818477085,43.669068248808L72.10332104137966,56.252757136600735L72.70003818103245,51.13693881096452L72.89894389425005,68.04818935480405L72.99839675085884,57.906995349632524L73.09784960746765,81.60644132877508L73.19730246407644,74.89954950469546L73.29675532068525,78.42897319963555L73.39620817729404,81.31259385420428L73.59511389051166,70.44571143780331L73.79401960372925,76.05179690131642L74.29128388677324,72.74180945280754L74.39073674338204,65.15114843509615L74.49018959999086,67.95379684301281L74.68909531320845,77.18615723837658L75.08690673964364,73.92662335949957L75.28581245286124,71.70542036490907L75.48471816607884,64.48118891747427L75.88252959251405,87.479772319072L75.98198244912284,91.66460862695224L76.08143530573163,83.30994682627335L76.47924673216683,74.64009104533808L76.87705815860204,79.68300916528001L76.97651101521083,73.48948058969953L77.27486958503724,81.6869828014844L77.47377529825482,74.76486306102956L77.57322815486363,75.28212315688762L77.67268101147242,89.19306632600758L77.77213386808124,79.61044032415707L77.87158672469003,74.81531000337L77.97103958129884,74.47593966398884L78.16994529451642,88.84476239778316L78.26939815112523,68.3210680793006L78.76666243416922,64.34899433538483L78.86611529077801,72.27469807117572L79.16447386060443,83.94054023282031L79.26392671721322,85.3293686787935L79.56228528703961,74.8967594150048L79.76119100025721,69.87539324678266L80.15900242669242,84.11131227830488L80.35790813991002,77.45220985270358L80.55681385312762,80.4858988943397L80.7557195663452,83.41019123639441L81.05407813617163,85.55485564229734L81.45188956260681,88.06758655945927L81.55134241921562,73.96422661105497L81.75024813243321,48.941860599178284L82.0486067022596,58.89831222853765L82.44641812869482,87.89217540997598L82.9436824117388,79.50324388532934L83.63985240800041,73.95984597142188L83.7393052646092,79.84254795179623L83.9382109778268,77.56252111850188L84.03766383443559,89.33550007335135L84.1371166910444,75.68646746141667L84.23656954765319,83.30422084648063L84.4354752608708,80.34897905346298L84.7338338306972,79.91430826336511L85.13164525713239,83.13398561160163L85.23109811374118,87.84570484249159L85.6289095401764,79.33689887051784L85.92726811000279,75.89577057925638L86.32507953643798,88.10765516342542L86.62343810626439,72.46851983624254L86.7228909628732,68.36886410507034L86.82234381948199,76.45066043583554L86.92179667609079,79.2969296759231L87.02124953269958,85.38961738515411L87.22015524591718,87.91301824151311L87.31960810252598,77.24577635205165L87.41906095913478,70.24998101280559L87.6179666723524,64.2731847487542L87.71741952896119,73.71663763064291L87.81687238556998,79.13568104821877L87.91632524217879,89.91962291241393L88.11523095539638,58.790453060567245L88.31413666861397,90.61319546938932L88.41358952522278,81.76059212736135L89.10975952148438,78.15614749347041L89.40811809131077,74.68071634178408L89.50757094791958,90.12164263697564L89.60702380452837,79.05100414565915L89.80592951774598,73.47514575834346L90.10428808757237,76.15466571884248L90.30319380078997,78.16876585634695L90.50209951400757,77.26343808370395L90.89991094044277,90.7383386134007L91.29772236687796,87.12004956771928L91.59608093670435,70.25837779104329L91.69553379331316,80.10551224831836L91.79498664992195,91.33956649163572L91.89443950653077,90.70230602991344L91.99389236313957,85.32441146480629L92.49115664618355,60.356150660137615L93.08787378583636,79.34800621094908L93.28677949905396,78.14686928547296L93.38623235566276,78.40989322761793L93.48568521227155,86.328704580325L93.78404378209795,90.97584085626124L94.08240235192434,91.95945019523705L94.18185520853315,78.00806729383105L94.48021377835956,74.64043566449227L94.57966663496835,70.71563439032353L94.67911949157715,85.42932148809179L94.87802520479474,87.98974902165206L95.07693091801234,90.93571260667225L95.67364805766515,89.48093598371145L95.97200662749154,85.18081794146283L96.07145948410033,78.72932204709599L96.36981805392675,69.39053397871L96.46927091053554,84.76338473636595L96.56872376714435,77.57133541609946L96.76762948036193,89.52056718644343L96.86708233697074,70.07119657198608L97.46379947662354,79.70093598858938L97.86161090305873,92.00953926384045L97.96106375966754,72.31463412931333L98.15996947288512,82.82728781895436L98.35887518610272,79.11596485622418L98.55778089932033,94.96328328899565L98.65723375592913,89.10705733787118L98.75668661253793,72.86909321194976L98.85613946914673,90.96231455445924L98.95559232575553,84.11259134555024L99.25395089558192,75.03197604198483L99.45285660879952,81.99546333552547L99.65176232201713,84.14056514266257L99.95012089184353,87.80558984748545L100.14902660506112,79.35503113986144L100.24847946166992,88.41247743259892L100.34793231827872,79.45556715080528L100.74574374471392,95.52834603791489L100.94464945793152,90.67109148729344L101.04410231454032,84.2753576229913L101.24300802775791,96.42578733376006L101.54136659758431,75.93856962729035L101.93917802401951,79.53889871320527L102.23753659384592,94.3610811989209L102.53589516367231,92.88707217623966L102.6353480202811,78.59718711062939L102.83425373349871,85.98539100254492L103.03315944671631,89.78438640355961L103.23206515993391,66.89767168124547L103.7293294429779,93.28485546225622L104.0276880128043,82.03670497007415L104.12714086941311,77.41995482532957L104.2265937260219,88.7251729239874L104.5249522958483,76.62417617997079L105.3205751487187,86.94713027981244L105.4200280053275,83.22208219653746L105.5194808619363,77.28687881348037L105.71838657515389,77.96866141900757L106.1161980015891,92.97593089968956L106.3151037148067,82.91274011461091L106.41455657141549,83.64803809840915L106.81236799785069,95.85310982699148L107.01127371106828,94.24151823429085L107.11072656767708,86.4543513984848L107.4090851375035,94.19883847750256L107.6079908507211,89.84493996532585L107.80689656393868,96.02862701313761L108.10525513376508,90.96565470933832L108.30416084698268,91.89771697559685L108.40361370359149,94.80338662874239L108.60251941680909,93.75603600082407L108.70197227341788,96.21525153971497L109.00033084324427,74.4684972157166L109.29868941307069,96.77495943716139L109.39814226967948,82.44337545389399L110.09431226594107,97.9054428087369L110.19376512254988,80.58927801330562L110.29321797915867,92.17725612797729L110.39267083576746,94.81856975340108L110.59157654898507,91.76986989668336L110.69102940559388,97.19267761578962L110.88993511881147,85.51653664326786L110.98938797542027,88.68698647078645L111.08884083202906,83.89138561230808L111.38719940185547,92.21331522063025L111.48665225846426,82.94723516648716L111.58610511507307,83.7836788720405L111.68555797168187,96.3627286558345L111.88446368489947,85.0634154738379L112.48118082455225,97.84227809414851L112.58063368116107,83.8392420833624L112.87899225098747,99.63849277141563L113.57516224724905,91.2930627876942L113.87352081707546,90.7378415665437L114.56969081333705,92.66759616605988L114.66914366994585,79.35165784852522L114.76859652655466,81.2389513918702L114.96750223977226,81.9958410911368L115.06695509638105,71.65435708446594L115.16640795298986,91.5352372710106L115.46476652281625,94.64824836373353L115.56421937942504,93.45640952812914L115.76312509264264,94.06967256759515L115.96203080586025,82.35232972427326L116.06148366246904,95.18335575540384L116.45929508890424,96.22900979671691L116.55874794551305,89.34562657465143L116.95655937194823,91.97819880268334L117.05601222855705,91.04568588060779L117.15546508516584,93.6981267283371L117.25491794177465,89.55455193687982L117.55327651160104,98.24933958816253L117.65272936820983,95.14634233278542L117.75218222481864,87.88513059918934L118.05054079464504,84.34954352322237L118.14999365125384,91.82638081067928L118.94561650412423,88.75479028937356L119.34342793055943,90.61745681777673L119.54233364377703,89.88511460595483L119.74123935699463,81.07360709806414L119.84069221360343,95.67060747568156L120.13905078342982,95.73857034926291L120.23850364003863,80.384309144059L120.43740935325623,94.94450817238366L120.53686220986503,91.48005844259146L120.63631506647383,76.52836542781422L120.73576792308262,87.904568444944L121.03412649290902,73.98924463619096L121.82974934577942,94.35133245323215L122.02865505899702,79.69540220024804L122.22756077221462,92.8597080899386L122.42646648543223,102.88357252769089L122.52591934204102,88.46735140561243L122.62537219864981,85.71495774858484L122.82427791186741,96.62318783619732L123.02318362508501,94.4772642449233L123.1226364816938,93.68130003540458L123.22208933830261,83.83790337049419L123.52044790812901,86.37675907046038L123.71935362134661,81.61234624543631L124.4155236176082,91.82188087980052L124.514976474217,95.93534788630606L124.81333504404341,88.22644273495854L125.01224075726101,100.92362730208012L125.6089578969138,86.44719392374391L125.7084107535226,91.56942746748122L125.9073164667402,89.90052305852203L126.1062221799578,97.22403795882101L126.504033606393,98.1231427048143L126.9018450328282,92.50693074000111L127.10075074604579,98.94426411258898L127.29965645926339,80.82280388131011L127.5980150290898,98.7623648447989L127.69746788569859,88.17636029364657L127.79692074230738,84.04957243137325L127.8963735989162,91.45399993270146L128.49309073856898,103.35129693377968L128.5925435951778,96.63228048003482L129.18926073483058,98.9276229838164L129.38816644804817,100.13607312538196L129.58707216126578,90.86629172897702L129.68652501787457,93.82466823083952L129.7859778744834,92.8663751451139L130.68105358396258,83.79358004543207L130.87995929718016,90.1144255166119L131.17831786700657,93.66977517561345L131.57612929344177,98.83930107097207L131.77503500665938,93.40064749806444L131.87448786326817,93.82108286617765L132.27229928970337,87.4281722280233L132.37175214631216,102.34027711746282L132.57065785952977,95.38649549221667L132.67011071613857,95.00400136752162L132.7695635727474,107.28984983765895L133.06792214257376,90.21149545413955L133.16737499918256,97.2041163207922L134.16190356527056,108.55365774451215L134.36080927848815,92.55529671283355L134.46026213509697,94.20542600518075L134.75862070492335,100.21809579772516L134.85807356153214,104.9132368591111L134.95752641814096,103.65558239234761L135.25588498796736,94.39539731392863L135.35533784457616,97.07925152302074L135.45479070118495,89.5935402923434L136.94658355031694,97.11607275418778L137.24494212014335,100.65497347586813L137.44384783336093,94.72583406446653L137.54330068996975,96.56812167173243L137.74220640318734,101.72423061559758L137.84165925979613,91.29008050655216L138.14001782962254,90.75993695616049L138.43837639944894,78.06492945427259L138.53782925605773,95.66283366283798L138.63728211266653,89.49956529991205L138.73673496927535,97.77392421037298L138.93564068249293,101.98539560249735L139.13454639571054,83.36982440431406L139.33345210892813,103.03628520403755L139.53235782214574,110.26355526459153L139.63181067875453,93.18199989931301L139.83071639197212,101.08584351433277L140.02962210518973,83.54412216883766L140.22852781840731,104.42046129142916L140.3279806750161,95.96732456744014L140.42743353162496,83.88247853263053L140.52688638823375,97.98996065630227L140.62633924484254,93.00646945858404L141.62086781093052,101.01831141469415L142.01867923736572,97.13785666110752L142.41649066380091,106.2136605510971L142.51594352040973,95.49294304711317L142.61539637701853,100.19766054461076L142.81430209023614,93.64166220538117L143.11266066006252,109.28216275459796L143.41101922988892,79.15930071486372L143.6099249431065,93.69458112742379L143.80883065632412,90.44944172552569L143.9082835129329,91.07886872878154L144.1071892261505,92.7598016716803L144.5050006525857,83.3733766325188L144.60445350919449,96.39454628197434L144.70390636580333,98.89139158158635L144.90281207902092,100.82266051719355L145.0022649356297,106.77545273169724L145.30062350545612,91.78849921288396L145.4000763620649,97.41473826962583L145.4995292186737,105.7011687914206L145.59898207528252,81.3064304731774L145.7978877885001,96.89283906976904L146.2951520715441,103.27533823309196L146.5935106413705,93.72631259877508L147.09077492441452,105.5782722992029L147.2896806376321,101.38330949002255L147.6874920640673,93.93415108520948L147.88639777728488,77.15171520483175L148.28420920372008,101.99445842352344L148.38366206032887,101.74516954286041L148.4831149169377,104.07971910272266L148.5825677735465,100.99083135079312L148.78147348676407,92.78692717548999L149.0798320565905,97.1759768413942L149.1792849131993,89.00729009273284L149.3781906264169,97.1335422943887L149.4776434830257,93.42692470857152L149.5770963396345,99.38338844252563L150.17381347928728,91.47326546887903L150.3727191925049,108.40918941870036L150.47217204911368,96.48731510736603L150.67107776233127,103.61114308968553L150.77053061894009,98.8232298892622L151.06888918876646,95.61589255766229L151.16834204537525,92.64006639747315L151.66560632841927,98.75647981001194L151.7650591850281,87.95978703711171L151.86451204163689,100.78695598463192L152.16287061146326,105.58772613042315L152.36177632468087,107.49604806946522L152.46122918128967,105.66589171915598L152.56068203789846,92.89268549207812L152.66013489450728,94.31385512021386L152.75958775111607,84.20065479402894L152.85904060772486,97.0740623538336L153.45575774737767,87.27008481832954L153.95302203042166,85.99901671371832L154.05247488703048,100.09252850706247L154.15192774363928,96.59909100456964L154.64919202668327,90.13479118316631L155.04700345311846,98.98005811358487L155.24590916633605,100.40423984567408L155.34536202294484,100.42051647341819L155.74317344938007,97.84377586201096L156.14098487581526,93.49262767577635L156.83715487207684,90.50224135632263L157.03606058529445,102.04916340060556L157.33441915512083,78.50822235051666L157.53332486833844,101.11850943377522L157.63277772494723,100.66858593245868L157.93113629477367,99.39126829203204L158.03058915138246,85.83898750763652L158.22949486460004,103.05147164234197L158.32894772120886,105.67632638950741L158.62730629103524,104.69203443951464L160.31800485338485,89.52644559393896L160.41745770999364,92.54070341711184L160.51691056660243,93.31027112487781L160.61636342321123,98.85949442794939L161.01417484964642,99.02240650580183L161.31253341947283,93.7922872849284L161.41198627608162,105.49420842110024L161.71034484590803,102.68667569940206L161.80979770251682,107.66745633492675L161.9092505591256,95.18633803654588L162.30706198556084,101.3297874844601L162.40651484216963,106.43165867528872L162.50596769877842,104.13492775395324L162.70487341199603,89.25963746838931L162.90377912521362,96.41927270628756L163.10268483843123,97.5347518900729L163.30159055164881,96.03716296449527L163.8983076913016,105.98539343883974L164.0972134045192,107.19605709574182L164.59447768756323,103.230955262407L164.69393054417202,95.05134673747435L165.5890062536512,102.75464851392056L165.68845911026,99.00182213863033L166.78244053295683,90.80011822408089L167.180251959392,89.32805099778768L167.27970481600082,106.5478118984797L167.5780633858272,96.3773948517619L167.67751624243598,98.58627108429864L167.9758748122624,100.31885050928608L168.17478052548,92.3788318240134L168.2742333820888,98.53400826410727L168.3736862386976,104.52906602968508L169.0698562349592,93.63331181818346L169.169309091568,99.80351232794177L169.2687619481768,105.06209245184738L169.3682148047856,100.8868093845588L169.666573374612,107.16164819865412L169.86547908782958,97.11429664008541L169.96493194443838,108.53007452797004L170.0643848010472,107.77848003455344L170.163837657656,102.2490093735793L170.66110194069998,105.06018710556219L170.8600076539176,101.18047792226108L171.35727193696158,101.40151134592614L171.4567247935704,83.89418232929017L171.75508336339678,93.84144190544063L172.45125335965838,101.24025277728467L172.65015907287597,104.15309647339967L173.64468763896397,99.89571120627076L173.84359335218159,110.27750902669055L173.94304620879038,87.07637571721698L174.14195192200796,98.03461534593573L174.24140477861675,102.60608452200702L174.44031049183437,105.02427712696633L174.53976334844316,101.83835588761198L175.13648048809594,111.97569943646457L175.2359333447048,104.76449061668333L175.83265048435757,99.51362134635275L175.93210334096636,101.07145566464527L176.82717905044555,94.18059354420471L177.22499047688075,98.41015744192411L177.42389619009836,107.6429651794592L177.82170761653356,100.03650801263213L178.41842475618634,104.32633387129499L178.71678332601275,105.09143478463933L178.91568903923033,105.26237582605529L179.21404760905673,107.97741144131027L179.41295332227432,105.29786497164554L179.51240617888317,106.17859223851244L179.91021760531834,107.27041861919571L180.00967046192716,101.04548993683525L180.20857617514474,97.2716219112651L180.30802903175353,100.51297712975853L180.50693474497115,110.9424351164738L180.80529331479752,95.8229887874569L180.90474617140634,96.64271846403196L181.00419902801514,98.66072870347821L181.40201045445033,102.12668614207001L181.60091616766792,106.51426454927747L181.7003690242767,87.98610401136735L181.79982188088553,108.1475008757779L181.99872759410314,103.00823850671954L182.19763330732073,97.54872222040049L182.39653902053834,104.68481731915091L182.69489759036472,97.45179808328423L182.99325616019112,111.07641243995704L183.09270901679992,104.7432766568263L183.1921618734087,105.84161103769063L183.4905204432351,100.43376774262597L183.68942615645273,98.38187216211473L183.78887901306155,92.3531908334833L184.08723758288792,111.07071296933003L184.18669043949674,107.40368350885056L184.48504900932312,98.56152477811115L184.88286043575832,100.49549764862047L184.9823132923671,107.09371183423848L185.0817661489759,101.35076286182579L185.7779361452375,107.55209175941556L185.9768418584551,105.54657396430872L186.07629471506394,102.25959647163353L186.17574757167273,109.16052213410563L186.4741061414991,99.3979220926245L186.57355899810793,71.04471254611894L186.7724647113255,87.63231268584157L187.1702761377607,101.74419533102068L187.2697289943695,110.75239090752024L187.3691818509783,107.45565804186487L187.6675404208047,88.92617204566939L188.0653518472399,105.3820315727653L188.1648047038487,90.7911780079462L188.3637104170663,110.44863231862074L188.46316327367512,101.0364304294549L188.5626161302839,97.90703998597074L188.6620689868927,104.72453467667144L188.86097470011032,104.7883124157168L189.1593332699367,109.13698862224922L189.2587861265455,110.6602516748141L189.3582389831543,104.51103979700432L189.4576918397631,97.93706824342536L189.8555032661983,100.72161751845556L189.9549561228071,110.81856441241638L190.4522204058511,105.19473768975385L190.6511261190687,104.63379048881063L190.7505789756775,92.66198947751285L190.8500318322863,99.52618006360645L191.2478432587215,104.0138338850036L191.54620182854788,99.48561441278329L191.7451075417655,100.70856838163628L192.04346611159187,108.98347735728564L192.14291896820066,97.57081098272586L192.24237182480948,110.23104508649759L192.34182468141827,110.6292359509369L192.44127753802707,93.56875537239546L192.6401832512447,107.84940862104825L192.8390889644623,103.73486799333158L193.1374475342887,109.1928666299139L193.2369003908975,111.7352911263134L193.43580610411507,97.90633086578808L193.53525896072387,96.32188465877142L193.6347118173327,101.66724253661894L193.93307038715906,95.35958868902405L194.13197610037668,100.07557258194711L194.23142895698547,99.94456097137736L194.33088181359426,105.5240014097092L194.43033467020305,113.6979469141177L195.12650466646468,104.45147370166066L195.22595752307348,107.74097619236943L195.52431609289988,102.00247413250409L196.02158037594387,100.49701198471148L196.41939180237907,109.15434218485018L197.01610894203188,107.87453268284708L197.11556179864067,108.51414583302585L197.31446751185825,97.30084826645708L197.71227893829345,98.9168470079565L197.81173179490227,109.85028399851063L197.91118465151106,100.73406025810928L198.11009036472865,114.0948520840202L198.20954322133744,86.9899028186807L198.30899607794626,105.14986098585759L198.70680750438143,106.42601222299312L199.10461893081663,104.90912462478079L199.30352464403427,111.42131325403383L199.40297750064306,107.11086326445091L200.19860035351346,101.11399624831361L200.29805321012225,100.56819903557195L200.59641177994862,112.81361440071464L200.89477034977503,111.12207447788737L201.29258177621026,112.54198823429775L201.49148748942784,100.61076612840597L201.88929891586304,105.67852002296966L202.38656319890703,102.21563102030845L202.48601605551582,109.16363033378477L202.88382748195102,107.27565086577712L202.98328033855984,106.22345237418014L203.2816389083862,104.43090590271773L203.381091764995,107.00537998045701L203.48054462160385,102.40125813952609L203.77890319143023,101.68335679572309L204.07726176125664,103.50888398297073L204.17671461786543,112.8043163108429L204.375620331083,104.9223295029486L204.57452604430063,99.99382162855241L204.67397890090942,106.88328207685622L204.7734317575182,109.22529065321928L205.4696017537798,103.48220913497805L205.66850746699743,94.63732658746224L205.76796032360622,105.30441273557517L206.36467746325903,119.85163884093197L206.46413031986782,110.78132566188944L206.5635831764766,100.68416669460298L206.6630360330854,107.92152349270847L206.76248888969423,92.373529990872L206.9613946029118,111.29461601018289L207.25975317273821,109.318486938908L207.95592316899982,115.39407292261228L208.0553760256086,101.70611491448255L208.15482888221743,111.70786408074378L209.0499045916966,101.02343099732131L209.348263161523,109.23230895484022L209.44771601813179,115.87881621308497L209.84552744456698,105.77890360621069L209.94498030117578,113.95066541809406L210.04443315778462,85.3068756516911L210.14388601439342,114.89966041394794L210.4422445842198,107.52290516797214L210.5416974408286,105.15247876597115L210.6411502974374,102.7431667315237L210.7406031540462,103.8948773175391L211.1384145804814,109.87218056938462L211.2378674370902,115.40819236699697L211.33732029369898,108.50002970228687L211.63567886352538,106.81446096903511L211.83458457674297,107.16487237593324L212.03349028996058,106.8849157041929L212.2323960031782,97.50474351449256L212.331848859787,109.26888166257875L212.4313017163958,113.39175610926458L212.6302074296134,104.43241692516303L212.72966028622218,95.18660312820295L213.22692456926617,109.25590542596517L213.52528313909258,103.47125422224963L213.72418885231016,104.29288261781846L214.02254742213657,108.99020405808379L214.320905991963,105.52077723243009L214.4203588485718,107.05097574547307L214.61926456178938,111.87203865761302L214.818170275007,98.73413921061235L215.41488741465977,111.61632461791174L215.51434027126857,104.93285364173428L215.71324598448618,116.26070394061446L215.91215169770376,98.18810341537933L216.80722740718298,105.32954673831114L216.90668026379177,93.67327438548678L217.00613312040056,106.3952649044187L217.10558597700938,105.62354995423047L218.29902025631495,101.06219071123067L218.49792596953256,105.18804743905854L218.69683168275017,105.27551111766311L218.89573739596776,105.46540289891385L219.29354882240295,105.30573156656911L219.39300167901175,110.18955161487469L219.49245453562057,107.85160556815623L219.59190739222936,90.540434436815L219.69136024883815,103.71193756499501L219.79081310544694,112.46398170055915L219.89026596205574,102.85975072865742L220.08917167527335,110.52072730840666L220.18862453188214,109.55988934277318L220.28807738849093,108.19861054726101L220.48698310170855,105.64925390402912L220.98424738475256,109.70148142410576L221.28260595457894,109.7329279219257L221.48151166779655,104.50528068075445L221.58096452440535,112.35663614767432L221.77987023762293,109.2964876450169L222.07822880744934,108.36523059466671L222.37658737727574,112.63303065027276L222.57549309049332,100.13199071386308L222.87385166031973,112.24428036247087L223.17221023014613,103.79470249397801L223.27166308675496,109.62164575793338L223.57002165658133,109.30712444775682L223.76892736979894,96.23376156466989L223.86838022640774,107.4433279661654L224.66400307927813,114.64074539248756L224.76345593588692,104.32923662493991L224.9623616491045,105.65260399984535L225.45962593214853,101.49022758261037L225.95689021519252,110.55402613418039L226.05634307180134,100.04367211466445L226.15579592841013,107.95837123304122L226.3547016416277,114.54489156293673L226.4541544982365,103.72918840457885L226.65306021145412,112.3131578022691L226.8519659246717,102.2826495048615L227.1503244944981,108.94370366778799L227.2497773511069,102.01717346488863L227.64758877754213,115.93155619825907L228.14485306058612,105.8617447490451L228.3437587738037,108.1357639426611L228.9404759134565,116.99478250279017L229.0399287700653,111.55205645930081L229.1393816266741,102.29946625685687L229.2388344832829,110.36580443036918L229.3382873398917,106.5864059301034L229.6366459097181,113.28358877224282L229.83555162293572,111.96799189653525L230.1339101927621,110.59416763835223L230.2333630493709,116.19133276760493L230.5317216191973,106.9653478265937L230.7306273324149,109.49513407824239L230.9295330456325,96.83642756514452L231.0289859022413,108.51246581464918L231.12843875885008,109.77757598426774L231.52625018528528,109.17063869446856L231.9240616117205,112.59104675908429L232.0235144683293,104.91901585723522L232.1229673249381,107.39950831525171L232.52077875137329,106.47296658275167L232.6202316079821,114.01775348920708L232.8191373211997,109.14477237602995L232.91859017780848,106.44837270426699L233.1174958910261,109.69901938534072L233.2169487476349,110.59801478102546L233.31640160424368,110.09924482824803L233.51530731746126,106.90039042967439L233.61476017407008,108.83886985835389L233.71421303067888,108.77383624758316L233.81366588728767,109.74864122989854L234.1120244571141,115.41922680722251L234.3109301703317,108.88992651150559L234.41038302694048,110.11859983285987L235.0071001665933,110.86921017349962L235.10655302320208,106.75098145810395L235.20600587981087,94.6001342279753L235.60381730624607,110.5342867466658L235.80272301946366,102.5241546317438L236.0016287326813,112.85169813089848L236.3994401591165,106.4746101510255L237.09561015537807,102.74741813897396L237.39396872520447,111.30139904295817L237.59287443842206,112.99528171330479L237.79178015163967,106.3071981422943L237.89123300824846,100.62314590879114L238.09013872146605,112.17612529743815L238.2890444346837,107.75954586294719L238.48795014790127,109.29058935564709L238.58740300451007,106.39677924050972L238.68685586111886,107.3909624229569L238.98521443094526,101.44658024127378L239.08466728755405,105.74603886802542L239.38302585738046,106.08297699145297L239.48247871398925,106.11463224895286L239.78083728381566,109.82497768619758L240.07919585364203,114.27607868173048L240.47700728007726,109.9475792639468L241.07372441973007,104.97140790960941L241.17317727633886,114.63431029251218L241.47153584616524,106.22815775109314L241.57098870277406,109.43429222929907L241.76989441599164,104.62773977173799L241.96880012920923,111.51435048472831L242.06825298581805,113.00545791929056L242.26715869903563,111.09128408191867L242.36661155564443,112.80856771829318L242.56551726886207,103.8571017564066L242.66497012547086,110.44972913535187L242.76442298207965,106.3163636863375L242.86387583868844,114.71712492618089L243.06278155190606,107.41091388379715L243.26168726512364,111.02296333460029L243.36114012173243,101.7391983532849L243.75895154816763,108.84531489926641L243.85840440477642,109.95482620712195L244.05731011799404,113.48878959668937L244.3556686878204,91.57416598085135L244.55457440103802,111.92825797078615L244.85293297086446,110.24542962253935L245.44965011051724,103.92807673394142L246.04636725017002,109.30470548638607L246.44417867660522,118.20130078890483L246.74253724643162,106.42318568319962L247.23980152947564,101.16674286077912L247.43870724269323,109.72943865298951L247.73706581251963,112.37203134565867L248.3337829521724,102.06083074716236L248.4332358087812,110.86069741766195L248.63214152199882,107.87708419004638L248.9305000918252,114.48982539847182L249.22885866165163,112.88171976106167L249.32831151826042,93.63987283669594L249.4277643748692,112.00395820710824L250.3228400843484,111.12382408282403L250.4222929409572,110.37113277267629L250.521745797566,105.7664708074941L250.6211986541748,106.09483652946113L250.8201043673924,110.80680759742532L251.01901008061,119.98854542722583L251.31736865043638,112.68319261908186L251.4168215070452,119.0776639843672L251.8146329334804,107.97459484245391L252.013538646698,117.79939201397511L252.1129915033068,103.01436543764356L252.2124443599156,115.7345997243474L252.3118972165244,111.28032425622109L253.10752006939478,115.87403793596629L254.002595778874,104.87721090291527L254.20150149209158,108.73805550117012L254.49986006191799,111.6988012597177L254.99712434496197,117.52481670287331L255.29548291478838,107.06435956050939L255.39493577139717,93.40098548992721L255.6932943412236,116.51032418584883L255.7927471978324,104.96768005818186L256.09110576765875,111.39170582958482L256.38946433748515,116.27609251130738L256.58837005070274,108.22269743795154L256.7872757639204,107.6085595960172L257.0856343337468,116.0441538795996L257.3839929035732,105.92346140045674L257.48344576018195,105.84862271202013L257.58289861679077,111.49711621337303L257.78180433000836,107.0187538545562L258.57742718287875,110.90800302386612L258.77633289609633,103.42766652653587L258.975238609314,111.0002019021951L259.17414432253156,113.73669668708992L259.67140860557555,106.42811638802112L260.16867288861954,114.1273026164913L260.56648431505477,104.06134162359628L260.96429574148993,105.78447053100916L261.06374859809875,96.44938711853072L261.1632014547076,100.04325459530456L261.56101288114274,106.44328957174267L261.66046573775157,106.7954605245146L261.75991859436033,101.90268037820005L261.85937145096915,113.46596189136991L262.15773002079555,109.578250253671L262.65499430383954,112.98852518969522L262.95335287366595,107.51183427764374L263.15225858688353,112.63665246503749L263.55007001331876,117.43116644772186L263.6495228699275,111.63104383217058L263.74897572653634,109.00636802187364L263.84842858314516,107.8523180019846L264.04733429636275,117.11899119871038L264.24624000958033,118.58470947981675L264.54459857940674,111.72907804060081L264.84295714923314,103.7198372963757L264.9424100058419,102.82449022462139L265.14131571905955,110.5152597929796L265.34022143227713,119.70278324819567L266.03639142853876,111.7964809080566L266.3347499983651,108.20247757180852L266.43420285497393,107.90433561239318L266.6331085681915,106.11622942618669L266.8320142814091,108.25419364045717L267.03091999462674,108.23321826309152L267.1303728512355,120.05236624366546L267.3292785644531,111.92859596264893L267.62763713427955,94.52157431540257L267.82654284749714,107.41690164160121L268.12490141732354,114.75069215725739L268.3238071305411,104.52368466904656L268.42325998714995,103.51830799137957" fill="none"></path></g></g></g></g></g></g><g transform="translate(51, 177)" clip-path="url(#clip_1)"><clipPath id="clip_1"><rect width="278" height="22"></rect></clipPath><g><g><line x1="0" y1="0" x2="0" y2="5" style="visibility: inherit;" fill="rgb(0, 0, 0)" stroke="rgb(204, 204, 204)" stroke-width="1px"></line><line x1="19.890571321759904" y1="0" x2="19.890571321759904" y2="5" style="visibility: inherit;" fill="rgb(0, 0, 0)" stroke="rgb(204, 204, 204)" stroke-width="1px"></line><line x1="39.78114264351981" y1="0" x2="39.78114264351981" y2="5" style="visibility: inherit;" fill="rgb(0, 0, 0)" stroke="rgb(204, 204, 204)" stroke-width="1px"></line><line x1="59.671713965279714" y1="0" x2="59.671713965279714" y2="5" style="visibility: inherit;" fill="rgb(0, 0, 0)" stroke="rgb(204, 204, 204)" stroke-width="1px"></line><line x1="79.56228528703961" y1="0" x2="79.56228528703961" y2="5" style="visibility: inherit;" fill="rgb(0, 0, 0)" stroke="rgb(204, 204, 204)" stroke-width="1px"></line><line x1="99.45285660879952" y1="0" x2="99.45285660879952" y2="5" style="visibility: inherit;" fill="rgb(0, 0, 0)" stroke="rgb(204, 204, 204)" stroke-width="1px"></line><line x1="119.34342793055943" y1="0" x2="119.34342793055943" y2="5" style="visibility: inherit;" fill="rgb(0, 0, 0)" stroke="rgb(204, 204, 204)" stroke-width="1px"></line><line x1="139.23399925231934" y1="0" x2="139.23399925231934" y2="5" style="visibility: inherit;" fill="rgb(0, 0, 0)" stroke="rgb(204, 204, 204)" stroke-width="1px"></line><line x1="159.12457057407923" y1="0" x2="159.12457057407923" y2="5" style="visibility: inherit;" fill="rgb(0, 0, 0)" stroke="rgb(204, 204, 204)" stroke-width="1px"></line><line x1="179.01514189583915" y1="0" x2="179.01514189583915" y2="5" style="visibility: inherit;" fill="rgb(0, 0, 0)" stroke="rgb(204, 204, 204)" stroke-width="1px"></line><line x1="198.90571321759904" y1="0" x2="198.90571321759904" y2="5" style="visibility: inherit;" fill="rgb(0, 0, 0)" stroke="rgb(204, 204, 204)" stroke-width="1px"></line><line x1="218.79628453935896" y1="0" x2="218.79628453935896" y2="5" style="visibility: inherit;" fill="rgb(0, 0, 0)" stroke="rgb(204, 204, 204)" stroke-width="1px"></line><line x1="238.68685586111886" y1="0" x2="238.68685586111886" y2="5" style="visibility: inherit;" fill="rgb(0, 0, 0)" stroke="rgb(204, 204, 204)" stroke-width="1px"></line><line x1="258.57742718287875" y1="0" x2="258.57742718287875" y2="5" style="visibility: inherit;" fill="rgb(0, 0, 0)" stroke="rgb(204, 204, 204)" stroke-width="1px"></line><line x1="278.4679985046387" y1="0" x2="278.4679985046387" y2="5" style="visibility: inherit;" fill="rgb(0, 0, 0)" stroke="rgb(204, 204, 204)" stroke-width="1px"></line></g><g transform="translate(0, 8)"><text style="text-anchor: middle; visibility: hidden; font-family: Roboto, sans-serif; font-size: 12px; font-weight: 200;" x="0" y="0" dx="0em" dy="0.95em" fill="rgb(50, 49, 63)" stroke="none" stroke-width="1px">-200</text><text style="text-anchor: middle; visibility: hidden; font-family: Roboto, sans-serif; font-size: 12px; font-weight: 200;" x="19.890571321759904" y="0" dx="0em" dy="0.95em" fill="rgb(50, 49, 63)" stroke="none" stroke-width="1px">0</text><text style="text-anchor: middle; visibility: hidden; font-family: Roboto, sans-serif; font-size: 12px; font-weight: 200;" x="39.78114264351981" y="0" dx="0em" dy="0.95em" fill="rgb(50, 49, 63)" stroke="none" stroke-width="1px">200</text><text style="text-anchor: middle; visibility: hidden; font-family: Roboto, sans-serif; font-size: 12px; font-weight: 200;" x="59.671713965279714" y="0" dx="0em" dy="0.95em" fill="rgb(50, 49, 63)" stroke="none" stroke-width="1px">400</text><text style="text-anchor: middle; visibility: hidden; font-family: Roboto, sans-serif; font-size: 12px; font-weight: 200;" x="79.56228528703961" y="0" dx="0em" dy="0.95em" fill="rgb(50, 49, 63)" stroke="none" stroke-width="1px">600</text><text style="text-anchor: middle; visibility: hidden; font-family: Roboto, sans-serif; font-size: 12px; font-weight: 200;" x="99.45285660879952" y="0" dx="0em" dy="0.95em" fill="rgb(50, 49, 63)" stroke="none" stroke-width="1px">800</text><text style="text-anchor: middle; visibility: hidden; font-family: Roboto, sans-serif; font-size: 12px; font-weight: 200;" x="119.34342793055943" y="0" dx="0em" dy="0.95em" fill="rgb(50, 49, 63)" stroke="none" stroke-width="1px">1k</text><text style="text-anchor: middle; visibility: hidden; font-family: Roboto, sans-serif; font-size: 12px; font-weight: 200;" x="139.23399925231934" y="0" dx="0em" dy="0.95em" fill="rgb(50, 49, 63)" stroke="none" stroke-width="1px">1.2k</text><text style="text-anchor: middle; visibility: hidden; font-family: Roboto, sans-serif; font-size: 12px; font-weight: 200;" x="159.12457057407923" y="0" dx="0em" dy="0.95em" fill="rgb(50, 49, 63)" stroke="none" stroke-width="1px">1.4k</text><text style="text-anchor: middle; visibility: hidden; font-family: Roboto, sans-serif; font-size: 12px; font-weight: 200;" x="179.01514189583915" y="0" dx="0em" dy="0.95em" fill="rgb(50, 49, 63)" stroke="none" stroke-width="1px">1.6k</text><text style="text-anchor: middle; visibility: hidden; font-family: Roboto, sans-serif; font-size: 12px; font-weight: 200;" x="198.90571321759904" y="0" dx="0em" dy="0.95em" fill="rgb(50, 49, 63)" stroke="none" stroke-width="1px">1.8k</text><text style="text-anchor: middle; visibility: hidden; font-family: Roboto, sans-serif; font-size: 12px; font-weight: 200;" x="218.79628453935896" y="0" dx="0em" dy="0.95em" fill="rgb(50, 49, 63)" stroke="none" stroke-width="1px">2k</text><text style="text-anchor: middle; visibility: hidden; font-family: Roboto, sans-serif; font-size: 12px; font-weight: 200;" x="238.68685586111886" y="0" dx="0em" dy="0.95em" fill="rgb(50, 49, 63)" stroke="none" stroke-width="1px">2.2k</text><text style="text-anchor: middle; visibility: hidden; font-family: Roboto, sans-serif; font-size: 12px; font-weight: 200;" x="258.57742718287875" y="0" dx="0em" dy="0.95em" fill="rgb(50, 49, 63)" stroke="none" stroke-width="1px">2.4k</text><text style="text-anchor: middle; visibility: hidden; font-family: Roboto, sans-serif; font-size: 12px; font-weight: 200;" x="278.4679985046387" y="0" dx="0em" dy="0.95em" fill="rgb(50, 49, 63)" stroke="none" stroke-width="1px">2.6k</text></g><line x1="0" y1="0" x2="278.4679985046387" y2="0" fill="rgb(0, 0, 0)" stroke="rgb(204, 204, 204)" stroke-width="1px"></line></g></g></g></g></svg>