<svg viewBox="0 0 330 200" xmlns="http://www.w3.org/2000/svg"><g><g><g><g><g><line x1="51.53200149536133" y1="177.89999961853027" x2="46.53200149536133" y2="177.89999961853027" style="visibility: inherit;" fill="rgb(0, 0, 0)" stroke="rgb(204, 204, 204)" stroke-width="1px"></line><line x1="51.53200149536133" y1="160.10999965667725" x2="46.53200149536133" y2="160.10999965667725" style="visibility: inherit;" fill="rgb(0, 0, 0)" stroke="rgb(204, 204, 204)" stroke-width="1px"></line><line x1="51.53200149536133" y1="142.31999969482422" x2="46.53200149536133" y2="142.31999969482422" style="visibility: inherit;" fill="rgb(0, 0, 0)" stroke="rgb(204, 204, 204)" stroke-width="1px"></line><line x1="51.53200149536133" y1="124.52999973297118" x2="46.53200149536133" y2="124.52999973297118" style="visibility: inherit;" fill="rgb(0, 0, 0)" stroke="rgb(204, 204, 204)" stroke-width="1px"></line><line x1="51.53200149536133" y1="106.73999977111816" x2="46.53200149536133" y2="106.73999977111816" style="visibility: inherit;" fill="rgb(0, 0, 0)" stroke="rgb(204, 204, 204)" stroke-width="1px"></line><line x1="51.53200149536133" y1="88.94999980926514" x2="46.53200149536133" y2="88.94999980926514" style="visibility: inherit;" fill="rgb(0, 0, 0)" stroke="rgb(204, 204, 204)" stroke-width="1px"></line><line x1="51.53200149536133" y1="71.15999984741211" x2="46.53200149536133" y2="71.15999984741211" style="visibility: inherit;" fill="rgb(0, 0, 0)" stroke="rgb(204, 204, 204)" stroke-width="1px"></line><line x1="51.53200149536133" y1="53.36999988555909" x2="46.53200149536133" y2="53.36999988555909" style="visibility: inherit;" fill="rgb(0, 0, 0)" stroke="rgb(204, 204, 204)" stroke-width="1px"></line><line x1="51.53200149536133" y1="35.57999992370607" x2="46.53200149536133" y2="35.57999992370607" style="visibility: inherit;" fill="rgb(0, 0, 0)" stroke="rgb(204, 204, 204)" stroke-width="1px"></line><line x1="51.53200149536133" y1="17.789999961853024" x2="46.53200149536133" y2="17.789999961853024" style="visibility: inherit;" fill="rgb(0, 0, 0)" stroke="rgb(204, 204, 204)" stroke-width="1px"></line><line x1="51.53200149536133" y1="0" x2="46.53200149536133" y2="0" style="visibility: inherit;" fill="rgb(0, 0, 0)" stroke="rgb(204, 204, 204)" stroke-width="1px"></line></g><g transform="translate(41.53200149536133, 0)"><text style="text-anchor: end; visibility: hidden; font-family: Roboto, sans-serif; font-size: 12px; font-weight: 200;" x="0" y="177.89999961853027" dx="0em" dy="0.3em" fill="rgb(50, 49, 63)" stroke="none" stroke-width="1px">-0.2</text><text style="text-anchor: end; visibility: inherit; font-family: Roboto, sans-serif; font-size: 12px; font-weight: 200;" x="0" y="160.10999965667725" dx="0em" dy="0.3em" fill="rgb(50, 49, 63)" stroke="none" stroke-width="1px">0</text><text style="text-anchor: end; visibility: hidden; font-family: Roboto, sans-serif; font-size: 12px; font-weight: 200;" x="0" y="142.31999969482422" dx="0em" dy="0.3em" fill="rgb(50, 49, 63)" stroke="none" stroke-width="1px">0.2</text><text style="text-anchor: end; visibility: inherit; font-family: Roboto, sans-serif; font-size: 12px; font-weight: 200;" x="0" y="124.52999973297118" dx="0em" dy="0.3em" fill="rgb(50, 49, 63)" stroke="none" stroke-width="1px">0.4</text><text style="text-anchor: end; visibility: hidden; font-family: Roboto, sans-serif; font-size: 12px; font-weight: 200;" x="0" y="106.73999977111816" dx="0em" dy="0.3em" fill="rgb(50, 49, 63)" stroke="none" stroke-width="1px">0.6</text><text style="text-anchor: end; visibility: inherit; font-family: Roboto, sans-serif; font-size: 12px; font-weight: 200;" x="0" y="88.94999980926514" dx="0em" dy="0.3em" fill="rgb(50, 49, 63)" stroke="none" stroke-width="1px">0.8</text><text style="text-anchor: end; visibility: hidden; font-family: Roboto, sans-serif; font-size: 12px; font-weight: 200;" x="0" y="71.15999984741211" dx="0em" dy="0.3em" fill="rgb(50, 49, 63)" stroke="none" stroke-width="1px">1</text><text style="text-anchor: end; visibility: inherit; font-family: Roboto, sans-serif; font-size: 12px; font-weight: 200;" x="0" y="53.36999988555909" dx="0em" dy="0.3em" fill="rgb(50, 49, 63)" stroke="none" stroke-width="1px">1.2</text><text style="text-anchor: end; visibility: hidden; font-family: Roboto, sans-serif; font-size: 12px; font-weight: 200;" x="0" y="35.57999992370607" dx="0em" dy="0.3em" fill="rgb(50, 49, 63)" stroke="none" stroke-width="1px">1.4</text><text style="text-anchor: end; visibility: inherit; font-family: Roboto, sans-serif; font-size: 12px; font-weight: 200;" x="0" y="17.789999961853024" dx="0em" dy="0.3em" fill="rgb(50, 49, 63)" stroke="none" stroke-width="1px">1.6</text><text style="text-anchor: end; visibility: hidden; font-family: Roboto, sans-serif; font-size: 12px; font-weight: 200;" x="0" y="0" dx="0em" dy="0.3em" fill="rgb(50, 49, 63)" stroke="none" stroke-width="1px">1.8</text></g><line x1="51.53200149536133" y1="0" x2="51.53200149536133" y2="177.89999961853027" fill="rgb(0, 0, 0)" stroke="rgb(204, 204, 204)" stroke-width="1px"></line></g></g><g transform="translate(51, 0)" clip-path="url(#clip_0)"><clipPath id="clip_0"><rect width="278" height="177"></rect></clipPath><g><g><g><line x1="0" y1="0" x2="0" y2="177.89999961853027" fill="rgb(0, 0, 0)" stroke="rgb(60, 60, 60)" stroke-width="1px" opacity="0.25"></line><line x1="19.890571321759904" y1="0" x2="19.890571321759904" y2="177.89999961853027" fill="rgb(0, 0, 0)" stroke="rgb(60, 60, 60)" stroke-width="1px" opacity="0.25"></line><line x1="39.78114264351981" y1="0" x2="39.78114264351981" y2="177.89999961853027" fill="rgb(0, 0, 0)" stroke="rgb(60, 60, 60)" stroke-width="1px" opacity="0.25"></line><line x1="59.671713965279714" y1="0" x2="59.671713965279714" y2="177.89999961853027" fill="rgb(0, 0, 0)" stroke="rgb(60, 60, 60)" stroke-width="1px" opacity="0.25"></line><line x1="79.56228528703961" y1="0" x2="79.56228528703961" y2="177.89999961853027" fill="rgb(0, 0, 0)" stroke="rgb(60, 60, 60)" stroke-width="1px" opacity="0.25"></line><line x1="99.45285660879952" y1="0" x2="99.45285660879952" y2="177.89999961853027" fill="rgb(0, 0, 0)" stroke="rgb(60, 60, 60)" stroke-width="1px" opacity="0.25"></line><line x1="119.34342793055943" y1="0" x2="119.34342793055943" y2="177.89999961853027" fill="rgb(0, 0, 0)" stroke="rgb(60, 60, 60)" stroke-width="1px" opacity="0.25"></line><line x1="139.23399925231934" y1="0" x2="139.23399925231934" y2="177.89999961853027" fill="rgb(0, 0, 0)" stroke="rgb(60, 60, 60)" stroke-width="1px" opacity="0.25"></line><line x1="159.12457057407923" y1="0" x2="159.12457057407923" y2="177.89999961853027" fill="rgb(0, 0, 0)" stroke="rgb(60, 60, 60)" stroke-width="1px" opacity="0.25"></line><line x1="179.01514189583915" y1="0" x2="179.01514189583915" y2="177.89999961853027" fill="rgb(0, 0, 0)" stroke="rgb(60, 60, 60)" stroke-width="1px" opacity="0.25"></line><line x1="198.90571321759904" y1="0" x2="198.90571321759904" y2="177.89999961853027" fill="rgb(0, 0, 0)" stroke="rgb(60, 60, 60)" stroke-width="1px" opacity="0.25"></line><line x1="218.79628453935896" y1="0" x2="218.79628453935896" y2="177.89999961853027" fill="rgb(0, 0, 0)" stroke="rgb(60, 60, 60)" stroke-width="1px" opacity="0.25"></line><line x1="238.68685586111886" y1="0" x2="238.68685586111886" y2="177.89999961853027" fill="rgb(0, 0, 0)" stroke="rgb(60, 60, 60)" stroke-width="1px" opacity="0.25"></line><line x1="258.57742718287875" y1="0" x2="258.57742718287875" y2="177.89999961853027" fill="rgb(0, 0, 0)" stroke="rgb(60, 60, 60)" stroke-width="1px" opacity="0.25"></line><line x1="278.4679985046387" y1="0" x2="278.4679985046387" y2="177.89999961853027" fill="rgb(0, 0, 0)" stroke="rgb(60, 60, 60)" stroke-width="1px" opacity="0.25"></line></g><g><line x1="0" y1="177.89999961853027" x2="278.4679985046387" y2="177.89999961853027" fill="rgb(0, 0, 0)" stroke="rgb(60, 60, 60)" stroke-width="1px" opacity="0.25"></line><line x1="0" y1="160.10999965667725" x2="278.4679985046387" y2="160.10999965667725" fill="rgb(0, 0, 0)" stroke="rgb(60, 60, 60)" stroke-width="1px" opacity="0.25"></line><line x1="0" y1="142.31999969482422" x2="278.4679985046387" y2="142.31999969482422" fill="rgb(0, 0, 0)" stroke="rgb(60, 60, 60)" stroke-width="1px" opacity="0.25"></line><line x1="0" y1="124.52999973297118" x2="278.4679985046387" y2="124.52999973297118" fill="rgb(0, 0, 0)" stroke="rgb(60, 60, 60)" stroke-width="1px" opacity="0.25"></line><line x1="0" y1="106.73999977111816" x2="278.4679985046387" y2="106.73999977111816" fill="rgb(0, 0, 0)" stroke="rgb(60, 60, 60)" stroke-width="1px" opacity="0.25"></line><line x1="0" y1="88.94999980926514" x2="278.4679985046387" y2="88.94999980926514" fill="rgb(0, 0, 0)" stroke="rgb(60, 60, 60)" stroke-width="1px" opacity="0.25"></line><line x1="0" y1="71.15999984741211" x2="278.4679985046387" y2="71.15999984741211" fill="rgb(0, 0, 0)" stroke="rgb(60, 60, 60)" stroke-width="1px" opacity="0.25"></line><line x1="0" y1="53.36999988555909" x2="278.4679985046387" y2="53.36999988555909" fill="rgb(0, 0, 0)" stroke="rgb(60, 60, 60)" stroke-width="1px" opacity="0.25"></line><line x1="0" y1="35.57999992370607" x2="278.4679985046387" y2="35.57999992370607" fill="rgb(0, 0, 0)" stroke="rgb(60, 60, 60)" stroke-width="1px" opacity="0.25"></line><line x1="0" y1="17.789999961853024" x2="278.4679985046387" y2="17.789999961853024" fill="rgb(0, 0, 0)" stroke="rgb(60, 60, 60)" stroke-width="1px" opacity="0.25"></line><line x1="0" y1="0" x2="278.4679985046387" y2="0" fill="rgb(0, 0, 0)" stroke="rgb(60, 60, 60)" stroke-width="1px" opacity="0.25"></line></g></g></g><g><g><line x1="0" y1="160.10999965667725" x2="278.4679985046387" y2="160.10999965667725" fill="rgb(0, 0, 0)" stroke="rgb(153, 153, 153)" stroke-width="1.5px"></line></g></g><g><g><line x1="19.890571321759904" y1="0" x2="19.890571321759904" y2="177.89999961853027" fill="rgb(0, 0, 0)" stroke="rgb(153, 153, 153)" stroke-width="1.5px"></line></g></g><g><g><g><g><g><path style="fill: none;" stroke="rgb(255, 112, 67)" stroke-width="2px" d="M21.879628453935894,-0.6638895575928625L22.277439880371094,4.822857611553301L23.17251558985029,12.7288732241383L23.470874159676686,19.899787976288156L23.868685586111887,25.244352866713296L24.067591299329482,26.77905396430673L24.266497012547084,26.390446425899118L24.365949869155884,24.66397286756603L24.564855582373482,21.931887258310294L24.76376129559108,23.981316755778753L25.161572722026282,4.62943169307687L25.26102557863508,9.005828972591843L25.360478435243877,1.067782703229654L25.45993129185268,8.988371883411723L25.55938414846148,4.779535561988833L26.156101288114275,5.261307872484367L26.355007001331874,6.994733220251857L26.454459857940673,8.465854734860303L26.553912714549476,13.674470025325595L26.65336557115827,-33.525446192347516L27.150629854202272,-1.3783701676019808L27.250082710811068,3.0834339346301087L27.747346993855068,-5.538666332479131L28.244611276899064,4.219351179364289L28.542969846725462,-0.9298994032709872L28.64242270333426,-4.406958563768593L29.239139842987058,0.1542486381811564L30.034762695857456,2.618997383054465L30.333121265683857,10.119083397161882L30.432574122292657,12.146143699684227L31.12874411855425,10.121623765515732L31.42710268838065,14.531584173809176L31.62600840159825,20.30315223091369L32.322178397859844,22.36683326118855L32.42163125446864,21.399691365397707L32.71998982429504,25.85039628404171L32.81944268090384,26.891544703304017L33.51561267716544,23.03341083115125L33.714518390383034,10.039001354912868L33.91342410360064,18.4524305624606L34.01287696020944,17.93118806719894L34.11232981681824,15.904690749811229L34.808499813079834,20.326379989973223L35.30576409612383,21.416913617026996L35.50466980934143,23.33804956259949L35.60412266595023,29.967083652495486L35.703575522559035,27.761625057989093L36.001934092385426,27.711901119448743L36.30029266221183,25.215068656565162L36.49919837542942,19.637119505729117L36.59865123203822,25.343323416435634L36.89700980186463,25.18526726092292L37.49372694151742,31.50123206060549L37.59317979812622,32.375133547031716L37.792085511343814,25.203146826301243L38.09044408117022,17.961364998375828L38.28934979438782,20.378728934414607L38.38880265099662,20.813142166018142L38.587708364214215,23.759092244703304L38.786614077431814,32.75002821508884L38.88606693404062,23.004798081260603L39.582236930302216,22.509330373895168L40.3778597831726,26.518071382927452L40.4773126397814,26.242497078728178L40.57676549639021,29.48438192673058L40.9745769228254,30.59054227630348L41.9691054889134,39.28117568893172L42.0685583455222,33.43121953424733L42.2674640587398,35.99437270238419L42.466369771957396,39.675486115279796L42.665275485174995,40.541615492018245L42.96363405500139,40.67509486764203L43.06308691161019,37.76462624981041L43.16253976821899,38.56583773035661L43.460898338045396,37.20094984603056L44.45542690413339,42.156858602380574L44.65433261735099,41.60222900804695L45.251049757003784,44.02320217775857L45.54940832683018,42.4158139954259L45.64886118343898,38.161606346185685L45.74831404004778,37.64730152365621L45.84776689665658,41.558417937115046L46.046672609874186,42.7209890957891L46.444484036309376,43.63141947822012L46.64338974952698,41.03441594560091L46.84229546274457,44.26056260403176L47.04120117596217,43.77810995209577L47.53846545900617,45.89836393836666L48.135182598658965,47.213266071114916L48.83135259492057,44.95230450810638L48.930805451529366,38.10521703252925L49.42806973457336,40.25451461358747L49.52752259118216,32.652558459437124L49.82588116100857,37.187582953389864L49.92533401761737,42.22199528121449L50.02478687422616,41.66192454260107L50.42259830066136,42.580104954695734L50.52205115727016,41.972639006953344L50.720956870487754,39.7989661386023L51.01931544031416,38.75947234267561L51.417126866749356,36.472993947980434L51.516579723358156,33.49623777779434L51.616032579966955,42.294704378647076L51.715485436575754,41.047673096076366L51.914391149793346,41.54611464700371L52.21274971961975,45.333845165134036L52.31220257622855,47.84078632766359L52.41165543283735,44.37782897219551L52.71001400266375,41.89420559414009L53.008372572490146,43.986123937765285L53.60508971214295,49.518942373751734L53.80399542536055,45.17870184690652L54.10235399518694,45.023194322023265L54.201806851795745,50.52826507976054L54.40071256501334,47.413718453525256L54.500165421622135,43.99791556712291L54.99742970466614,41.90825442300271L55.09688256127494,44.532926821059924L55.494693987710136,44.09209206059546L55.693599700927734,44.457398083917205L55.99195827075413,38.41586325602045L56.38976969718934,44.992708482636154L56.78758112362453,44.74890413095073L56.98648683684213,44.74187734849828L57.38429826327733,49.67044441912239L57.48375111988613,49.1315983027213L57.58320397649493,46.12686943501713L57.78210968971252,49.278692738764875L58.279373972756524,49.619004768619874L58.378826829365316,50.98807259116315L58.77663825580052,50.468654234429394L58.87609111240932,52.16240251952525L58.97554396901812,53.47304319832554L59.97007253510611,50.667024230053876L60.46733681815011,49.74002261156759L61.163506814411704,43.61911088752325L61.26295967102051,39.72295373852486L61.76022395406451,43.91640531295927L61.85967681067331,42.56073838044691L62.058582523890905,43.40470822680789L62.2574882371085,41.44190343814456L62.6552996635437,46.163303088994596L63.550375373022895,48.20234393864082L63.749281086240494,54.88395476990407L63.84873394284929,55.41376080754404L64.14709251267568,56.0808019534882L64.7438096523285,53.25062394946479L65.53943250519889,51.96284510046318L65.63888536180768,48.35454959518111L65.73833821841649,51.85223123115196L65.93724393163409,51.02309160565489L66.03669678824289,51.138380980440374L66.33505535806928,51.83033761636638L66.43450821467809,47.2259692603005L66.93177249772208,34.619740038608235L67.03122535433089,44.156115214687105L68.12520677702767,52.196906997319125L68.42356534685408,49.49733009967564L68.52301820346288,51.01407634261243L68.72192391668047,49.85639219736154L68.92082962989807,49.802497641683196L69.21918819972447,50.39590446295705L70.31316962242127,46.22291909594289L70.71098104885647,52.49707186383176L70.81043390546526,53.48458208616091L71.00933961868286,54.39935060375889L71.30769818850926,52.41916520093806L71.50660390172686,55.88535089102259L72.00386818477085,50.586386602587865L72.10332104137966,47.79627710170178L72.70003818103245,46.49001016985552L72.89894389425005,47.92534287574798L72.99839675085884,48.33284979224085L73.09784960746765,56.632594451063134L73.19730246407644,57.398663026632306L73.29675532068525,57.53513835540603L73.39620817729404,60.92115141519126L73.59511389051166,57.878909176206896L73.79401960372925,58.28826529458479L74.29128388677324,57.73687771753034L74.39073674338204,54.444148517320926L74.49018959999086,53.538293681134874L74.68909531320845,57.92705070207074L75.08690673964364,57.30279501055699L75.28581245286124,59.64636844471682L75.48471816607884,58.56901934218401L75.88252959251405,59.89347515945062L75.98198244912284,64.78527381602439L76.08143530573163,64.3503085163672L76.47924673216683,58.658716788899184L76.87705815860204,60.416700967953425L76.97651101521083,57.884648662432824L77.27486958503724,61.26189346586373L77.47377529825482,59.784907769146L77.57322815486363,58.468529851488476L77.67268101147242,62.9000586566763L77.77213386808124,64.53438184008021L77.87158672469003,61.049080519391886L77.97103958129884,59.694443111382036L78.16994529451642,63.104651351566815L78.26939815112523,55.99855681952943L78.76666243416922,54.44604125402795L78.86611529077801,56.80764044724698L79.16447386060443,61.62239637217518L79.26392671721322,64.90286877175517L79.56228528703961,61.82764558808252L79.76119100025721,57.391828173130605L80.15900242669242,60.685539091642624L80.35790813991002,60.71976778505186L80.55681385312762,61.86660522632434L80.7557195663452,62.797442578167285L81.05407813617163,64.00494450484535L81.45188956260681,65.77268948881918L81.55134241921562,66.03007482654893L81.75024813243321,52.67783585494012L82.0486067022596,51.16392291849548L82.44641812869482,56.89758871364862L82.9436824117388,60.18167677425854L83.63985240800041,63.170200334836096L83.7393052646092,63.0745639840904L83.9382109778268,61.96691447713027L84.03766383443559,65.28288595645436L84.1371166910444,65.18126891881877L84.23656954765319,63.91899237719243L84.4354752608708,64.78646016846288L84.7338338306972,65.40570339098319L85.13164525713239,64.74295923233758L85.23109811374118,67.62009389286693L85.6289095401764,63.32711869442025L85.92726811000279,59.93384180254614L86.32507953643798,63.010916892858425L86.62343810626439,63.17776600557472L86.7228909628732,59.884668330974925L86.82234381948199,60.19490079625655L86.92179667609079,60.88497739478257L87.02124953269958,63.86765971571128L87.22015524591718,67.35483125081525L87.31960810252598,64.94080079941087L87.41906095913478,61.57427261027217L87.6179666723524,56.037391044639485L87.71741952896119,58.18076495647055L87.81687238556998,60.99747518762368L87.91632524217879,65.47357646892384L88.11523095539638,56.53789044560692L88.31413666861397,60.78128823351422L88.41358952522278,61.09736740405176L89.10975952148438,64.89481904683527L89.40811809131077,62.91635064954366L89.50757094791958,64.78939438812282L89.60702380452837,65.79933301392647L89.80592951774598,64.28910554348329L90.10428808757237,61.841687993813125L90.30319380078997,62.0259715469806L90.50209951400757,62.854104500638L90.89991094044277,68.33715263119544L91.29772236687796,69.45547153660713L91.59608093670435,62.87196035100686L91.69553379331316,64.02488924557899L91.79498664992195,65.98194814811724L91.89443950653077,66.93711174423744L91.99389236313957,69.43891288282214L92.49115664618355,60.27537104717501L93.08787378583636,61.79060413749699L93.28677949905396,64.71515315179728L93.38623235566276,62.114604776309L93.48568521227155,64.36005034097697L93.78404378209795,67.65082549955439L94.08240235192434,69.65455247217487L94.18185520853315,66.074119498484L94.48021377835956,65.13650150110985L94.57966663496835,62.35388350771969L94.67911949157715,63.05960182249804L94.87802520479474,66.11991436937427L95.07693091801234,69.15478062804013L95.67364805766515,69.6109343069787L95.97200662749154,67.44121096839562L96.07145948410033,65.98841468911077L96.36981805392675,62.64404677372008L96.46927091053554,61.72056508647508L96.56872376714435,63.25200940009659L96.76762948036193,65.90975849758709L96.86708233697074,58.85776280536422L97.46379947662354,62.167070005857596L97.86161090305873,66.71023318476702L97.96106375966754,62.5423355999408L98.15996947288512,61.339159209138856L98.35887518610272,61.7623941941359L98.55778089932033,69.14054410416483L98.65723375592913,69.2643135798256L98.75668661253793,67.5500506318349L98.85613946914673,66.67685778141613L98.95559232575553,68.80886993455128L99.25395089558192,64.57944078151652L99.45285660879952,66.1147702699833L99.65176232201713,69.47909084782016L99.95012089184353,68.30415581279745L100.14902660506112,65.96067810456623L100.24847946166992,68.34908801013006L100.34793231827872,65.67863810455185L100.74574374471392,70.76889334292962L100.94464945793152,71.89167562260695L101.04410231454032,72.46709353937011L101.24300802775791,74.96488006190432L101.54136659758431,71.337217993936L101.93917802401951,66.73073548538564L102.23753659384592,69.03642277759897L102.53589516367231,71.87153856830736L102.6353480202811,67.34490093471419L102.83425373349871,69.54183870697292L103.03315944671631,71.63375089898442L103.23206515993391,65.38070084879465L103.7293294429779,70.36711043874884L104.0276880128043,68.66743615082517L104.12714086941311,64.39996187630612L104.2265937260219,65.57569609220697L104.5249522958483,64.50310961798029L105.3205751487187,64.86322443737731L105.4200280053275,68.4937968746075L105.5194808619363,65.56379017347237L105.71838657515389,62.09776455382319L106.1161980015891,63.84842248257443L106.3151037148067,66.48383206844623L106.41455657141549,67.24224179935672L106.81236799785069,71.04690947024373L107.01127371106828,71.48683952895615L107.11072656767708,70.85142852180822L107.4090851375035,70.87053394169303L107.6079908507211,73.27617779628581L107.80689656393868,75.52206653919018L108.10525513376508,72.58431043979738L108.30416084698268,74.29935393533268L108.40361370359149,74.8142697558651L108.60251941680909,75.16826998475366L108.70197227341788,76.7346692356042L109.00033084324427,68.8345291087962L109.29868941307069,74.18707822268256L109.39814226967948,70.08572561708047L110.09431226594107,73.33323874207284L110.19376512254988,70.5029477979983L110.29321797915867,73.19363282673967L110.39267083576746,75.43516799601537L110.59157654898507,77.04673525212797L110.69102940559388,78.08875592527757L110.88993511881147,74.88869147617903L110.98938797542027,73.48681156329545L111.08884083202906,71.96244698229907L111.38719940185547,74.60688519952691L111.48665225846426,72.96166516646063L111.58610511507307,70.7448556580696L111.68555797168187,73.61789148814495L111.88446368489947,71.38773943552748L112.48118082455225,73.32214320922313L112.58063368116107,70.28175286058828L112.87899225098747,75.90874463859976L113.57516224724905,73.16706537274574L113.87352081707546,70.66587962436107L114.56969081333705,71.63945311455898L114.66914366994585,68.0888078198274L114.76859652655466,68.15413878603484L114.96750223977226,66.76359838471713L115.06695509638105,64.13238109710893L115.16640795298986,67.76605254451717L115.46476652281625,70.27970890655747L115.56421937942504,71.91839568252436L115.76312509264264,72.90388753635528L115.96203080586025,70.82937428902511L116.06148366246904,70.09466875709782L116.45929508890424,74.8484755132246L116.55874794551305,73.41168683363553L116.95655937194823,74.65414872182939L117.05601222855705,74.37566373354736L117.15546508516584,75.0860621779456L117.25491794177465,74.3253268408874L117.55327651160104,76.39275120068633L117.65272936820983,78.1480689536605L117.75218222481864,78.37094587936978L118.05054079464504,74.26597519930657L118.14999365125384,73.45864076173272L118.94561650412423,74.66206807608755L119.34342793055943,74.96874916613741L119.54233364377703,73.32763357223841L119.74123935699463,72.21305233806862L119.84069221360343,73.92257870080442L120.13905078342982,77.7022702424829L120.23850364003863,73.82308468428347L120.43740935325623,73.99131586768242L120.53686220986503,75.70042357203798L120.63631506647383,67.30742338254134L120.73576792308262,68.72425110458589L121.03412649290902,63.33592668538229L121.82974934577942,68.79366298751471L122.02865505899702,68.9920454532241L122.22756077221462,73.35083001403355L122.42646648543223,76.82580571879714L122.52591934204102,75.65714097210696L122.62537219864981,74.67043204722856L122.82427791186741,75.83846048171938L123.02318362508501,74.82779702750429L123.1226364816938,76.98465076627642L123.22208933830261,74.08051279872006L123.52044790812901,70.52902758447371L123.71935362134661,70.76476449211856L124.4155236176082,73.14167156244632L124.514976474217,75.61655021101123L124.81333504404341,75.46514718892007L125.01224075726101,79.29140361646299L125.6089578969138,71.15312228117666L125.7084107535226,71.0007034967548L125.9073164667402,71.52163728199945L126.1062221799578,75.52745664018035L126.504033606393,78.91097726614433L126.9018450328282,77.04931507674169L127.10075074604579,75.36380007461432L127.29965645926339,71.61722445809025L127.5980150290898,75.72775909172658L127.69746788569859,71.62529523423751L127.79692074230738,71.01205291870295L127.8963735989162,71.79600500501586L128.49309073856898,76.79016750543836L128.5925435951778,77.76691682534187L129.18926073483058,77.23647670410188L129.38816644804817,77.26687390313604L129.58707216126578,79.07444697604771L129.68652501787457,79.1848256361937L129.7859778744834,77.09991886448755L130.68105358396258,73.68620437029139L130.87995929718016,74.84606188930482L131.17831786700657,75.05748428458526L131.57612929344177,78.46888273338342L131.77503500665938,76.88333200155805L131.87448786326817,78.07836812189578L132.27229928970337,80.16034037415267L132.37175214631216,84.00090283076328L132.57065785952977,82.04558214173301L132.67011071613857,79.45765705579609L132.7695635727474,81.717984640997L133.06792214257376,78.91545296626717L133.16737499918256,77.88470641000404L134.16190356527056,83.30754888954615L134.36080927848815,80.74748046920182L134.46026213509697,76.93355982612313L134.75862070492335,79.48456379748696L134.85807356153214,81.63331326846111L134.95752641814096,83.6735951850576L135.25588498796736,80.24412483054799L135.35533784457616,79.38174302030463L135.45479070118495,75.0066365184766L136.94658355031694,77.09563605379319L137.24494212014335,80.52208327951692L137.44384783336093,79.9349199304979L137.54330068996975,79.27671675249387L137.74220640318734,82.01470530874397L137.84165925979613,76.7547280071804L138.14001782962254,73.88915483839573L138.43837639944894,72.01331354719025L138.53782925605773,74.42457259029969L138.63728211266653,72.36942057013746L138.73673496927535,75.8097722696574L138.93564068249293,80.00785236772141L139.13454639571054,78.30546570870555L139.33345210892813,82.5828002744094L139.53235782214574,84.61901769969145L139.63181067875453,82.05902692149564L139.83071639197212,82.86213337310068L140.02962210518973,75.8401601062425L140.22852781840731,80.37514928076938L140.3279806750161,79.74896615858958L140.42743353162496,75.77355546659403L140.52688638823375,77.58655502074984L140.62633924484254,76.81986259117758L141.62086781093052,78.96603956048777L142.01867923736572,78.87721383770554L142.41649066380091,82.72317915741286L142.51594352040973,79.93838579011896L142.61539637701853,80.75032853959574L142.81430209023614,80.72593091313418L143.11266066006252,82.24226664103462L143.41101922988892,77.30161820876631L143.6099249431065,79.17568631571558L143.80883065632412,79.38400434478295L143.9082835129329,76.50975663706508L144.1071892261505,75.0899361740696L144.5050006525857,70.25161676458451L144.60445350919449,74.66118484137235L144.70390636580333,78.61096456690437L144.90281207902092,81.53508603882577L145.0022649356297,86.88836054976551L145.30062350545612,84.14000655949812L145.4000763620649,83.11499023581514L145.4995292186737,85.6807113188601L145.59898207528252,78.0175316288964L145.7978877885001,79.4385913899596L146.2951520715441,81.99854688285772L146.5935106413705,82.12416045805287L147.09077492441452,85.03764017769447L147.2896806376321,85.7958715205131L147.6874920640673,81.33448195544636L147.88639777728488,75.35029471860209L148.28420920372008,79.441175785489L148.38366206032887,82.69822382163589L148.4831149169377,84.89196613658677L148.5825677735465,85.25519853545721L148.78147348676407,81.90494701081779L149.0798320565905,81.32615319655109L149.1792849131993,81.22971087537732L149.3781906264169,80.53973336602273L149.4776434830257,79.33643114965058L149.5770963396345,80.13317264758152L150.17381347928728,79.84851915868377L150.3727191925049,84.01877048779552L150.47217204911368,83.36883727283747L150.67107776233127,85.07353830576737L150.77053061894009,84.26761670666076L151.06888918876646,82.60425105970702L151.16834204537525,79.57325011566384L151.66560632841927,81.2460848144449L151.7650591850281,77.71172397099537L151.86451204163689,79.55990282031844L152.16287061146326,82.75475911959909L152.36177632468087,86.0352874172701L152.46122918128967,89.57200115869536L152.56068203789846,85.31754013318503L152.66013489450728,84.88585974536358L152.75958775111607,79.35499705658313L152.85904060772486,79.14753999162508L153.45575774737767,75.1371953090555L153.95302203042166,74.39936086951721L154.05247488703048,78.51041741534422L154.15192774363928,80.31390229498035L154.64919202668327,78.96499244929971L155.04700345311846,77.4296919786382L155.24590916633605,78.85113303196967L155.34536202294484,81.83950182766142L155.74317344938007,81.50361654254476L156.14098487581526,80.94748604657823L156.83715487207684,77.66263352236676L157.03606058529445,79.67753836834983L157.33441915512083,73.20919360653089L157.53332486833844,77.86036956410034L157.63277772494723,79.61496757808337L157.93113629477367,80.69316670261885L158.03058915138246,76.78438637612717L158.22949486460004,81.77831431241347L158.32894772120886,85.09070274407796L158.62730629103524,86.93820133987573L160.31800485338485,83.8026594140591L160.41745770999364,79.88190779433145L160.51691056660243,78.32300339610113L160.61636342321123,79.96711073785126L161.01417484964642,80.6189043484167L161.31253341947283,80.4427055759585L161.41198627608162,83.45768771417809L161.71034484590803,84.5951383284868L161.80979770251682,84.0868063698468L161.9092505591256,82.45902103321548L162.30706198556084,85.94757278952501L162.40651484216963,85.5206068242738L162.50596769877842,87.19401881327016L162.70487341199603,79.6236615136023L162.90377912521362,81.79874672142942L163.10268483843123,81.52446658263221L163.30159055164881,79.66472430245402L163.8983076913016,83.38744849951996L164.0972134045192,86.75810991179817L164.59447768756323,85.19537113648347L164.69393054417202,83.2185982658454L165.5890062536512,85.26371766489089L165.68845911026,83.64803120322853L166.78244053295683,80.45884570585552L167.180251959392,78.99147942481422L167.27970481600082,82.73308539000136L167.5780633858272,83.97418079552124L167.67751624243598,83.97877423722413L167.9758748122624,80.53556779952606L168.17478052548,79.5142407926919L168.2742333820888,81.92900762712428L168.3736862386976,84.20080130212614L169.0698562349592,81.65916010708145L169.169309091568,84.24213750320945L169.2687619481768,86.19886932475448L169.3682148047856,87.90480316355978L169.666573374612,88.92383145987368L169.86547908782958,87.17478537304619L169.96493194443838,89.37538779882908L170.0643848010472,91.03100325042901L170.163837657656,89.55451355246669L170.66110194069998,88.61825231884598L170.8600076539176,85.53147209628162L171.35727193696158,83.75850943394599L171.4567247935704,74.52628022418305L171.75508336339678,75.45998047092898L172.45125335965838,78.29775997912688L172.65015907287597,81.79007630605878L173.64468763896397,83.15608655475543L173.84359335218159,88.15863334141395L173.94304620879038,81.66479033048319L174.14195192200796,81.74043765113652L174.24140477861675,83.26818253739926L174.44031049183437,84.7452438358694L174.53976334844316,85.87428336549515L175.13648048809594,89.74465338408314L175.2359333447048,90.55745834501148L175.83265048435757,87.29432341321807L175.93210334096636,87.26041195842595L176.82717905044555,85.76997703356919L177.22499047688075,85.01177172072977L177.42389619009836,90.09625045529492L177.82170761653356,88.84430499432644L178.41842475618634,88.41535980801395L178.71678332601275,87.60195552295546L178.91568903923033,88.27525193201224L179.21404760905673,91.00914792096789L179.41295332227432,89.54886321511985L179.51240617888317,89.84374857148444L179.91021760531834,90.2897160062305L180.00967046192716,90.49078178921938L180.20857617514474,86.74021356515382L180.30802903175353,86.20137647368986L180.50693474497115,87.89772060396521L180.80529331479752,83.87755133104288L180.90474617140634,84.08970023802264L181.00419902801514,84.53391196007095L181.40201045445033,84.4424486159262L181.60091616766792,86.29588274009008L181.7003690242767,81.97568285717436L181.79982188088553,85.62169131866585L181.99872759410314,85.21814845022925L182.19763330732073,83.61360430462136L182.39653902053834,85.39193827576118L182.69489759036472,83.05472278988067L182.99325616019112,86.24323809109309L183.09270901679992,88.3531555594959L183.1921618734087,88.29184513191893L183.4905204432351,86.52162665052452L183.68942615645273,85.34632899365127L183.78887901306155,83.3675122313008L184.08723758288792,88.80636840468487L184.18669043949674,88.39538661846139L184.48504900932312,87.45232329647361L184.88286043575832,85.59215938213669L184.9823132923671,89.15434769990976L185.0817661489759,87.73399068429772L185.7779361452375,89.0407380691742L185.9768418584551,89.73067684110691L186.07629471506394,87.52090709244801L186.17574757167273,90.91108096159468L186.4741061414991,90.84256520926604L186.57355899810793,81.9242720570307L186.7724647113255,79.31494406730613L187.1702761377607,82.34821247938841L187.2697289943695,85.4476606771859L187.3691818509783,88.91418373556151L187.6675404208047,81.67058222783967L188.0653518472399,85.8824919287302L188.1648047038487,83.24728947561276L188.3637104170663,87.74944045258914L188.46316327367512,87.40180797488199L188.5626161302839,86.96811689454027L188.6620689868927,87.21410642954353L188.86097470011032,86.60564389944875L189.1593332699367,88.56047678467573L189.2587861265455,93.14913553549177L189.3582389831543,91.93536138192252L189.4576918397631,89.17336035287067L189.8555032661983,87.58687982734611L189.9549561228071,90.85869688412953L190.4522204058511,90.19930321826914L190.6511261190687,89.7654408018034L190.7505789756775,89.09377320508183L190.8500318322863,86.4635700980756L191.2478432587215,84.27972440113294L191.54620182854788,83.59827377406882L191.7451075417655,85.67109605832422L192.04346611159187,88.78782316180535L192.14291896820066,86.00412236569672L192.24237182480948,89.87480953091249L192.34182468141827,91.01116570384487L192.44127753802707,86.30625543467512L192.6401832512447,88.66035422829303L192.8390889644623,90.47358967528866L193.1374475342887,91.307127782029L193.2369003908975,92.50834385335966L193.43580610411507,86.65551720865992L193.53525896072387,86.23835701661515L193.6347118173327,86.0129158951552L193.93307038715906,84.12864221166154L194.13197610037668,85.95985589447972L194.23142895698547,84.1613252791206L194.33088181359426,85.17573964171741L194.43033467020305,90.15663827159621L195.12650466646468,91.13756198413425L195.22595752307348,90.85643319340704L195.52431609289988,89.03444499655537L196.02158037594387,88.09025055558381L196.41939180237907,90.2534781168484L197.01610894203188,90.31051848612869L197.11556179864067,92.27221142185414L197.31446751185825,88.43196039245221L197.71227893829345,88.13966246524687L197.81173179490227,90.99223696237578L197.91118465151106,87.67111410490678L198.11009036472865,92.03094840912566L198.20954322133744,88.03008488478969L198.30899607794626,86.95098717941818L198.70680750438143,87.70293256873562L199.10461893081663,88.77603027861164L199.30352464403427,90.603661001017L199.40297750064306,89.52725131045764L200.19860035351346,89.60952108656359L200.29805321012225,88.71612158668928L200.59641177994862,90.8321924302893L200.89477034977503,91.51574909366614L201.29258177621026,95.03663401294698L201.49148748942784,91.17478368546001L201.88929891586304,90.87097888168442L202.38656319890703,88.66530864080079L202.48601605551582,91.53055402690455L202.88382748195102,91.06525693351229L202.98328033855984,90.42333361614195L203.2816389083862,89.11836035255135L203.381091764995,89.40123148034543L203.48054462160385,89.31458295510274L203.77890319143023,87.64001234242933L204.07726176125664,91.20964495309556L204.17671461786543,94.61113159095946L204.375620331083,93.8966418034917L204.57452604430063,88.67648833439945L204.67397890090942,87.8702107776142L204.7734317575182,90.33831194994956L205.4696017537798,88.90828811712733L205.66850746699743,85.9472020274337L205.76796032360622,88.16232387384515L206.36467746325903,94.54285211335825L206.46413031986782,96.15508127109042L206.5635831764766,93.87093174410307L206.6630360330854,94.01858377475261L206.76248888969423,88.16377974769847L206.9613946029118,92.2018486793149L207.25975317273821,94.12671642084518L207.95592316899982,95.91658884424419L208.0553760256086,92.14921759087606L208.15482888221743,93.52892955781245L209.0499045916966,90.6175752930026L209.348263161523,93.44225775662454L209.44771601813179,94.85265781849358L209.84552744456698,92.96855770372238L209.94498030117578,94.86238414051117L210.04443315778462,86.22546741424999L210.14388601439342,92.62273091190835L210.4422445842198,94.52675760352784L210.5416974408286,92.73064532427686L210.6411502974374,89.47674935230766L210.7406031540462,91.08597120019455L211.1384145804814,92.99259241592515L211.2378674370902,95.81143332133179L211.33732029369898,94.4653028127336L211.63567886352538,92.83255747557618L211.83458457674297,91.10420236291894L212.03349028996058,90.77310080856996L212.2323960031782,89.25688344272396L212.331848859787,92.10336183550497L212.4313017163958,94.25064147386716L212.6302074296134,91.43415401795052L212.72966028622218,85.80343441919528L213.22692456926617,88.77482795107287L213.52528313909258,87.93652471515364L213.72418885231016,87.36890706540865L214.02254742213657,90.09363584166178L214.320905991963,88.83718414648085L214.4203588485718,90.5893624113178L214.61926456178938,94.29107484420628L214.818170275007,85.26624193858272L215.41488741465977,89.61016136693077L215.51434027126857,90.81696268080454L215.71324598448618,95.23983342849603L215.91215169770376,90.99172068516343L216.80722740718298,90.82761122396685L216.90668026379177,84.99752672480521L217.00613312040056,88.18562840359697L217.10558597700938,88.37716021071898L218.29902025631495,87.41021691442322L218.49792596953256,86.71428434963663L218.69683168275017,87.85741482893297L218.89573739596776,86.16029301957748L219.29354882240295,86.98044966234477L219.39300167901175,89.49602007742017L219.49245453562057,91.88112336622876L219.59190739222936,84.62417952809402L219.69136024883815,83.18333024248189L219.79081310544694,89.37051747863698L219.89026596205574,88.07280109209746L220.08917167527335,90.0925721044692L220.18862453188214,92.02601208170383L220.28807738849093,91.78835803844323L220.48698310170855,91.57752677849051L220.98424738475256,91.25847392575618L221.28260595457894,90.72185682414491L221.48151166779655,89.73028412401835L221.58096452440535,92.18456259122459L221.77987023762293,92.72294030983345L222.07822880744934,94.29352433163609L222.37658737727574,95.26572194457052L222.57549309049332,92.99439145987198L222.87385166031973,94.38686678184287L223.17221023014613,91.07598974479401L223.27166308675496,91.66932280477154L223.57002165658133,92.26497822314899L223.76892736979894,88.42058388028386L223.86838022640774,88.87754476538677L224.66400307927813,92.06045328841654L224.76345593588692,91.2668360980985L224.9623616491045,92.46615109325363L225.45962593214853,87.76366985623042L225.95689021519252,91.5205875184724L226.05634307180134,88.53194830901117L226.15579592841013,90.75551627985784L226.3547016416277,94.33942633392222L226.4541544982365,92.37450856860367L226.65306021145412,93.89847273883133L226.8519659246717,90.9839436926444L227.1503244944981,92.6858437771502L227.2497773511069,88.80391852288227L227.64758877754213,93.84385335848734L228.14485306058612,93.60094768064712L228.3437587738037,93.84876995169559L228.9404759134565,97.3465973780164L229.0399287700653,98.63049963370516L229.1393816266741,94.62315131154163L229.2388344832829,94.11643381674543L229.3382873398917,93.9602672047149L229.6366459097181,96.26334149693123L229.83555162293572,94.77614148245632L230.1339101927621,93.79968138181732L230.2333630493709,97.17635087591962L230.5317216191973,96.30242798562747L230.7306273324149,96.86446015605739L230.9295330456325,91.6657767459199L231.0289859022413,90.30270349493037L231.12843875885008,91.72661880638302L231.52625018528528,91.81674691912006L231.9240616117205,94.0107390756288L232.0235144683293,93.33191459002944L232.1229673249381,93.94679424173286L232.52077875137329,93.30292133068586L232.6202316079821,95.0682087168341L232.8191373211997,94.26395645798068L232.91859017780848,93.87061162637258L233.1174958910261,93.21037536749856L233.2169487476349,95.94620246966078L233.31640160424368,95.12910721782795L233.51530731746126,94.67397789238993L233.61476017407008,92.77046784508353L233.71421303067888,92.73603352100099L233.81366588728767,92.42899334905202L234.1120244571141,96.1802351574153L234.3109301703317,95.93574670009625L234.41038302694048,95.12576460944979L235.0071001665933,94.88267141786886L235.10655302320208,92.86438617897058L235.20600587981087,88.19508441655954L235.60381730624607,92.5021354923742L235.80272301946366,87.38706949871761L236.0016287326813,90.11798299196026L236.3994401591165,89.17698991568751L237.09561015537807,86.75914041607994L237.39396872520447,90.29155158098871L237.59287443842206,94.05096979016555L237.79178015163967,91.4253629107775L237.89123300824846,88.42551073764572L238.09013872146605,90.52271400508766L238.2890444346837,90.50832455775944L238.48795014790127,90.21986437762581L238.58740300451007,91.3213998543369L238.68685586111886,91.04290841263779L238.98521443094526,88.97685809209551L239.08466728755405,91.47012137063612L239.38302585738046,90.810169478673L239.48247871398925,89.71842605594934L239.78083728381566,92.65018676280295L240.07919585364203,94.05364287592145L240.47700728007726,93.38546816613157L241.07372441973007,93.1341174495103L241.17317727633886,94.53917024881393L241.47153584616524,94.1045704194475L241.57098870277406,93.1245044573338L241.76989441599164,92.52349447546847L241.96880012920923,94.65790995536064L242.06825298581805,95.50584270889398L242.26715869903563,94.0603360614268L242.36661155564443,95.73810920901248L242.56551726886207,94.03162360944894L242.66497012547086,95.43688162304014L242.76442298207965,93.97474636298173L242.86387583868844,95.73033857910102L243.06278155190606,92.75528050007136L243.26168726512364,93.72315676859576L243.36114012173243,92.82699540690837L243.75895154816763,91.0638371190587L243.85840440477642,90.75282198464451L244.05731011799404,92.5530367005379L244.3556686878204,86.2737694136239L244.55457440103802,89.50500627864619L244.85293297086446,92.18686817589132L245.44965011051724,91.23675440441814L246.04636725017002,92.36829252240126L246.44417867660522,96.34697242447037L246.74253724643162,92.94002748173192L247.23980152947564,92.60286628382707L247.43870724269323,91.72557410125293L247.73706581251963,92.33567217436709L248.3337829521724,90.1909758291938L248.4332358087812,91.96930681612875L248.63214152199882,92.2169516316844L248.9305000918252,94.32550535159858L249.22885866165163,95.16314017368954L249.32831151826042,89.6101772054268L249.4277643748692,91.55228554301651L250.3228400843484,92.6801259657918L250.4222929409572,93.31539321235704L250.521745797566,90.74256936209967L250.6211986541748,91.43266247768017L250.8201043673924,92.98285877456587L251.01901008061,98.6476280675654L251.31736865043638,97.60505495001563L251.4168215070452,101.16057910946076L251.8146329334804,98.14406826135603L252.013538646698,99.12369156957644L252.1129915033068,94.62120948718042L252.2124443599156,96.07468840352931L252.3118972165244,95.94480139454434L253.10752006939478,96.7787569199422L254.002595778874,92.59895187474083L254.20150149209158,93.54814611333745L254.49986006191799,93.91324729862876L254.99712434496197,96.20967015053455L255.29548291478838,94.75184052673225L255.39493577139717,89.74153688129678L255.6932943412236,94.64634504758402L255.7927471978324,91.74663527433009L256.09110576765875,93.20602884016317L256.38946433748515,96.84731746101065L256.58837005070274,95.13899061025278L256.7872757639204,94.18903240461493L257.0856343337468,95.53867736160697L257.3839929035732,93.47164937934544L257.48344576018195,92.0697436450418L257.58289861679077,93.40086303768845L257.78180433000836,92.32049290303274L258.57742718287875,94.01935206000626L258.77633289609633,92.6657176121599L258.975238609314,91.3039255919485L259.17414432253156,93.61904615576674L259.67140860557555,92.778689175165L260.16867288861954,94.05865847921493L260.56648431505477,92.96570935341222L260.96429574148993,91.83291698433258L261.06374859809875,87.08163093848069L261.1632014547076,85.40133016846413L261.56101288114274,88.37818775785898L261.66046573775157,89.83743157392891L261.75991859436033,87.42462825647868L261.85937145096915,91.89413561060108L262.15773002079555,91.95859645502104L262.65499430383954,93.56598359301765L262.95335287366595,92.0389699630748L263.15225858688353,95.377173254029L263.55007001331876,96.94020213285937L263.6495228699275,98.11292884152033L263.74897572653634,95.66625166656101L263.84842858314516,95.85026263671428L264.04733429636275,97.78537780301687L264.24624000958033,99.06836361625157L264.54459857940674,97.52793857262428L264.84295714923314,94.88324717499587L264.9424100058419,92.03685250895005L265.14131571905955,93.30534395311021L265.34022143227713,97.20627135600826L266.03639142853876,95.85611146988761L266.3347499983651,94.33340887007887L266.43420285497393,92.91225554796672L266.6331085681915,91.30699378907646L266.8320142814091,91.33349599451576L267.03091999462674,90.52477776049795L267.1303728512355,95.80183780762061L267.3292785644531,95.70730436480358L267.62763713427955,90.8311182991156L267.82654284749714,92.21200725333344L268.12490141732354,94.7861034449399L268.3238071305411,91.91619974730752L268.42325998714995,91.28430169820088" fill="none"></path></g></g></g></g><g opacity="0.2"><g><g><g><path style="fill: none;" stroke="rgb(255, 112, 67)" stroke-width="2px" d="M21.6807227407183,-9.882644545106261L21.780175597327094,7.133726769886156L21.879628453935894,16.899109611037378L22.277439880371094,12.970037710273235L23.17251558985029,24.516189663292383L23.470874159676686,30.617136303099418L23.868685586111887,33.24374927068039L24.067591299329482,29.07809897148059L24.266497012547084,25.80799191186134L24.365949869155884,22.075480172981546L24.564855582373482,17.834914971493735L24.76376129559108,27.054940652054032L25.161572722026282,-24.395447836063354L25.26102557863508,15.570024871818081L25.360478435243877,-10.838851359490734L25.45993129185268,20.868995023324036L25.55938414846148,-1.533635824014384L26.156101288114275,5.983960631175368L26.355007001331874,9.594858921457675L26.454459857940673,10.672530733111675L26.553912714549476,21.487379633604636L26.65336557115827,-104.32524805586765L26.95172414098467,-3.534961194564646L27.05117699759347,3.573312534776282L27.150629854202272,13.78640337372008L27.250082710811068,9.776139200228503L27.747346993855068,-18.47181570383738L28.244611276899064,18.856376748182587L28.542969846725462,-8.65377505592575L28.64242270333426,-9.622547214855347L29.239139842987058,6.9960593705365035L30.034762695857456,6.316120477484223L30.333121265683857,21.36921237654906L30.432574122292657,15.186734146693542L31.12874411855425,7.084843868322427L31.42710268838065,21.14652478094388L31.62600840159825,28.960504312404286L32.322178397859844,25.46235480570704L32.42163125446864,19.948978521962776L32.71998982429504,32.52645366131379L32.81944268090384,28.453267332100044L33.51561267716544,17.246210023138705L33.714518390383034,-9.45261285900712L33.91342410360064,31.07257437361216L34.01287696020944,17.14932432431272L34.11232981681824,12.864944773744359L34.808499813079834,26.958913850196954L35.30576409612383,23.05271405760482L35.50466980934143,26.21975348095521L35.60412266595023,39.91063478733327L35.703575522559035,24.453437166230746L36.001934092385426,27.637315211638228L36.30029266221183,21.46981996224031L36.49919837542942,11.270195779475674L36.59865123203822,33.90262928249502L36.89700980186463,24.948183027653844L37.49372694151742,40.97517926012916L37.59317979812622,33.68598577667104L37.792085511343814,14.4451667452056L38.09044408117022,7.0986922564877695L38.28934979438782,24.004774838472716L38.38880265099662,21.464762013423414L38.587708364214215,28.178017362731L38.786614077431814,46.23643217066718L38.88606693404062,8.386952880518269L39.582236930302216,21.766128812847004L40.3778597831726,32.53118289647592L40.4773126397814,25.829135622429252L40.57676549639021,34.34720919873417L40.9745769228254,32.24978280066285L41.9691054889134,52.317125807874056L42.0685583455222,24.656285302220798L42.2674640587398,39.83910245458947L42.466369771957396,45.197156234623215L42.665275485174995,41.840809557125915L42.96363405500139,40.875313931077706L43.06308691161019,33.39892332306295L43.16253976821899,39.767654951175935L43.460898338045396,35.15361801954146L44.45542690413339,49.590721736905614L44.65433261735099,40.770284616546526L45.251049757003784,47.654661932326015L45.54940832683018,40.00473172192688L45.64886118343898,31.78029487232539L45.74831404004778,36.87584428986202L45.84776689665658,47.425092557303294L46.046672609874186,44.46484583380016L46.444484036309376,44.99706505186669L46.64338974952698,37.13891064667212L46.84229546274457,49.09978259167804L47.04120117596217,43.05443097419175L47.53846545900617,49.07874491777296L48.135182598658965,49.185619270237346L48.83135259492057,41.56086216359359L48.930805451529366,27.834585819163525L49.42806973457336,43.47846098517483L49.52752259118216,21.24962422821159L49.82588116100857,43.990119694319L49.92533401761737,49.77361377295143L50.02478687422616,40.82181843468096L50.42259830066136,43.9573755728377L50.52205115727016,41.061440085339775L50.720956870487754,36.538456836075746L51.01931544031416,37.20023164878558L51.417126866749356,33.043276355937685L51.516579723358156,29.0311035225152L51.616032579966955,55.492404279926184L51.715485436575754,39.17712617222026L51.914391149793346,42.29377697339476L52.21274971961975,51.015440942329526L52.31220257622855,51.60119807145794L52.41165543283735,39.1833929389934L52.71001400266375,38.16877052705696L53.008372572490146,47.12400145320306L53.60508971214295,57.81817002773142L53.80399542536055,38.66834105663873L54.10235399518694,44.789933034698386L54.201806851795745,58.78587121636645L54.40071256501334,42.74189851417237L54.500165421622135,38.87421123751938L54.99742970466614,38.773762706822374L55.09688256127494,48.46993541814573L55.494693987710136,43.43083991989875L55.693599700927734,45.005357118899845L55.99195827075413,29.353561014175288L56.38976969718934,54.8579763225597L56.78758112362453,44.383197603422566L56.98648683684213,44.73133717481961L57.38429826327733,57.06329502505856L57.48375111988613,48.323329128119674L57.58320397649493,41.61977613346085L57.78210968971252,54.00642769438651L58.279373972756524,50.12947281340235L58.378826829365316,53.041674324978096L58.77663825580052,49.68952669932879L58.87609111240932,54.70302494716908L58.97554396901812,55.43900421652598L59.97007253510611,46.45799577764638L60.46733681815011,48.3495201838382L61.163506814411704,34.437743301456756L61.26295967102051,33.878718015027296L61.76022395406451,50.20658267461091L61.85967681067331,40.52723798167836L62.058582523890905,44.6706629963494L62.2574882371085,38.497696255149556L62.6552996635437,53.24540256526962L63.550375373022895,51.26090521311017L63.749281086240494,64.90637101679897L63.84873394284929,56.20846986400398L64.14709251267568,57.08136367240446L64.7438096523285,49.00535694342967L65.53943250519889,50.03117682696075L65.63888536180768,42.942106337258004L65.73833821841649,57.09875368510826L65.93724393163409,49.779382167409274L66.03669678824289,51.311315042618624L66.33505535806928,52.86827257025539L66.43450821467809,40.31941672620167L66.93177249772208,15.710396206069849L67.03122535433089,58.4606779788054L68.12520677702767,64.25809467126714L68.42356534685408,45.44796475321039L68.52301820346288,53.289195707017605L68.72192391668047,48.11986597948522L68.92082962989807,49.721655808165686L69.21918819972447,51.28601469486785L70.31316962242127,39.96344104542164L70.71098104885647,61.90830101566508L70.81043390546526,54.96584741965467L71.00933961868286,55.771503380155885L71.30769818850926,49.44888709670682L71.50660390172686,61.084629426149384L72.00386818477085,42.63794016993575L72.10332104137966,43.61111285037271L72.70003818103245,44.530609772086116L72.89894389425005,50.07834193458667L72.99839675085884,48.94411016698019L73.09784960746765,69.08221143929654L73.19730246407644,58.547765889986074L73.29675532068525,57.739851348566624L73.39620817729404,66.00017100486912L73.59511389051166,53.315545817730374L73.79401960372925,58.90229947215165L74.29128388677324,56.90979635194868L74.39073674338204,49.505054717006836L74.49018959999086,52.17951142685582L74.68909531320845,64.51018623347454L75.08690673964364,56.366411473286355L75.28581245286124,63.16172859595657L75.48471816607884,56.952995688384824L75.88252959251405,61.88015888535052L75.98198244912284,72.12297180088501L76.08143530573163,63.69786056688145L76.47924673216683,50.12132919769716L76.87705815860204,63.05367723653479L76.97651101521083,54.08657020415195L77.27486958503724,66.32776067101008L77.47377529825482,57.56942922406939L77.57322815486363,56.49396297500221L77.67268101147242,69.54735186445805L77.77213386808124,66.98586661518607L77.87158672469003,55.82112853835941L77.97103958129884,57.66248699936728L78.16994529451642,68.219963711844L78.26939815112523,45.33941502147332L78.76666243416922,52.117267905775755L78.86611529077801,60.35003923707553L79.16447386060443,68.84453025956748L79.26392671721322,69.82357737112511L79.56228528703961,57.21481081257355L79.76119100025721,50.73810205070277L80.15900242669242,65.62610546941062L80.35790813991002,60.7711108251657L80.55681385312762,63.586861388233054L80.7557195663452,64.19369860593167L81.05407813617163,65.81619739486246L81.45188956260681,68.42430696477993L81.55134241921562,66.41615283314354L81.75024813243321,32.64947739752689L82.0486067022596,48.893053513828484L82.44641812869482,65.49808740637832L82.9436824117388,65.10780886517341L83.63985240800041,67.65298567570244L83.7393052646092,62.93110945797185L83.9382109778268,60.30544021669005L84.03766383443559,70.25684317544051L84.1371166910444,65.02884336236536L84.23656954765319,62.0255775647529L84.4354752608708,66.08766185536854L84.7338338306972,66.33456822476364L85.13164525713239,63.74884299436918L85.23109811374118,71.93579588366094L85.6289095401764,56.88765589675018L85.92726811000279,54.843926464734984L86.32507953643798,67.62652952832684L86.62343810626439,63.428039674649206L86.7228909628732,54.945021819075244L86.82234381948199,60.66024949417898L86.92179667609079,61.92009229257156L87.02124953269958,68.34168319710432L87.22015524591718,72.58558855347121L87.31960810252598,61.319755122304294L87.41906095913478,56.524480326564124L87.6179666723524,47.73206869619049L87.71741952896119,61.395825824217134L87.81687238556998,65.22254053435336L87.91632524217879,72.1877283908741L88.11523095539638,43.134361410631534L88.31413666861397,67.14638491537517L88.41358952522278,61.571486159858075L89.10975952148438,70.59099651101053L89.40811809131077,59.94864805360624L89.50757094791958,67.59895999599155L89.60702380452837,67.31424095263196L89.80592951774598,62.02376433781854L90.10428808757237,58.170561669307865L90.30319380078997,62.3023968767318L90.50209951400757,64.09630393112411L90.89991094044277,76.56172482703158L91.29772236687796,71.13294989472467L91.59608093670435,52.99669357260644L91.69553379331316,65.75428258743716L91.79498664992195,68.91753650192459L91.89443950653077,68.36985713841773L91.99389236313957,73.1916145906992L92.49115664618355,46.53005829370432L93.08787378583636,64.06345377297998L93.28677949905396,69.10197667324769L93.38623235566276,58.21378221307658L93.48568521227155,67.72821868797894L93.78404378209795,72.58698823742054L94.08240235192434,72.66014293110561L94.18185520853315,60.70347003794769L94.48021377835956,63.73007450504861L94.57966663496835,58.17995651763443L94.67911949157715,64.11817929466554L94.87802520479474,70.71038318968863L95.07693091801234,73.7070800160389L95.67364805766515,70.29516482538656L95.97200662749154,64.18662596052104L96.07145948410033,63.80922027018347L96.36981805392675,57.62749490063403L96.46927091053554,60.33534255560756L96.56872376714435,65.54917587052887L96.76762948036193,69.89638214382285L96.86708233697074,48.27976926702991L97.46379947662354,67.13103080659766L97.86161090305873,73.52497795313116L97.96106375966754,56.290489222701474L98.15996947288512,59.53439462293591L98.35887518610272,62.397246671631486L98.55778089932033,80.20776896920825L98.65723375592913,69.44996779331677L98.75668661253793,64.97865620984885L98.85613946914673,65.36706850578798L98.95559232575553,72.00688816425401L99.25395089558192,58.23529705196439L99.45285660879952,68.41776450268344L99.65176232201713,74.52557171457545L99.95012089184353,66.54175326026336L100.14902660506112,62.4454615422194L100.24847946166992,71.93170286847578L100.34793231827872,61.672963246184516L100.74574374471392,78.40427620049627L100.94464945793152,73.57584904212291L101.04410231454032,73.33022041451488L101.24300802775791,78.71155984570566L101.54136659758431,65.89572489198349L101.93917802401951,59.82101172256012L102.23753659384592,72.49495371591894L102.53589516367231,76.12421225436992L102.6353480202811,60.554944484324444L102.83425373349871,72.83724536536101L103.03315944671631,74.77161918700165L103.23206515993391,56.00112577351002L103.7293294429779,77.84672482368012L104.0276880128043,66.11792471893966L104.12714086941311,57.99875046452758L104.2265937260219,67.33929741605823L104.5249522958483,62.894229906640255L105.3205751487187,65.40339666647287L105.4200280053275,73.9396555304528L105.5194808619363,61.16878012176972L105.71838657515389,56.89872612434943L106.1161980015891,66.47440937570127L106.3151037148067,70.43694644725394L106.41455657141549,68.37985639572241L106.81236799785069,76.75391097657428L107.01127371106828,72.14673461702478L107.11072656767708,69.89831201108632L107.4090851375035,70.89919207152025L107.6079908507211,76.88464357817497L107.80689656393868,78.89089965354674L108.10525513376508,68.17767629070818L108.30416084698268,76.87191917863561L108.40361370359149,75.58664348666372L108.60251941680909,75.69927032808653L108.70197227341788,79.08426811187996L109.00033084324427,56.98431891858423L109.29868941307069,82.21590189351207L109.39814226967948,63.93369670867731L110.09431226594107,78.20450842956137L110.19376512254988,66.2575113818865L110.29321797915867,77.22966036985173L110.39267083576746,78.79747074992895L110.59157654898507,79.46408613629688L110.69102940559388,79.65178693500195L110.88993511881147,70.08859480253125L110.98938797542027,71.38399169397007L111.08884083202906,69.67590011080449L111.38719940185547,78.57354252536868L111.48665225846426,70.49383511686119L111.58610511507307,67.41964139548304L111.68555797168187,77.92744523325797L111.88446368489947,68.04251135660127L112.48118082455225,76.22374886976661L112.58063368116107,65.72116733763596L112.87899225098747,84.34923230561697L113.57516224724905,69.0545464739647L113.87352081707546,66.91410100178405L114.56969081333705,73.09981334985582L114.66914366994585,62.76283987773002L114.76859652655466,68.25213523534603L114.96750223977226,64.67778778274055L115.06695509638105,60.18555516569666L115.16640795298986,73.2165597156295L115.46476652281625,74.0501934496179L115.56421937942504,74.37642584647466L115.76312509264264,74.38212531710167L115.96203080586025,67.71760441802985L116.06148366246904,68.99261045920684L116.45929508890424,81.97918564741474L116.55874794551305,71.25650381425191L116.95655937194823,76.5178415541202L117.05601222855705,73.95793625112435L117.15546508516584,76.15165984454296L117.25491794177465,73.18422383530009L117.55327651160104,79.49388774038471L117.65272936820983,80.7810455831218L117.75218222481864,78.70526126793368L118.05054079464504,68.10851917921173L118.14999365125384,72.24763910537195L118.94561650412423,76.4672090476198L119.34342793055943,75.42877080121218L119.54233364377703,70.86596018138994L119.74123935699463,70.54118048681391L119.84069221360343,76.48686824490812L120.13905078342982,83.3718075550006L120.23850364003863,68.00430634698432L120.43740935325623,74.2436626427808L120.53686220986503,78.26408512857131L120.63631506647383,54.71792309829642L120.73576792308262,70.84949268765274L121.03412649290902,55.2534400565769L121.82974934577942,76.9802674407133L122.02865505899702,69.2896191517882L122.22756077221462,79.88900685524771L122.42646648543223,82.03826927594253L122.52591934204102,73.90414385207168L122.62537219864981,73.19036865991097L122.82427791186741,77.59050313345557L123.02318362508501,73.31180184618165L123.1226364816938,80.21993137443462L123.22208933830261,69.7243058473855L123.52044790812901,65.20179976310419L123.71935362134661,71.11836985358582L124.4155236176082,76.707032167938L124.514976474217,79.32886818385856L124.81333504404341,75.23804265578337L125.01224075726101,85.03078825777737L125.6089578969138,58.945700278247166L125.7084107535226,70.77207532012198L125.9073164667402,72.30303795986646L126.1062221799578,81.53618567745173L126.504033606393,83.98625820509028L126.9018450328282,74.25682179263777L127.10075074604579,72.8355275714232L127.29965645926339,65.99736103330417L127.5980150290898,81.89356104218109L127.69746788569859,65.47159944800387L127.79692074230738,70.09218944540112L127.8963735989162,72.9719331344852L128.49309073856898,84.28141125607215L128.5925435951778,79.23204080519713L129.18926073483058,76.4408165222419L129.38816644804817,77.31246970168729L129.58707216126578,81.78580658541523L129.68652501787457,79.35039362641265L129.7859778744834,73.97255870692834L130.68105358396258,68.56563262899715L130.87995929718016,76.58584816782496L131.17831786700657,75.3746178775059L131.57612929344177,83.58598040658069L131.77503500665938,74.50500590381995L131.87448786326817,79.87092230240239L132.27229928970337,83.28329875253803L132.37175214631216,89.76174651567919L132.57065785952977,79.11260110818762L132.67011071613857,75.5757694268907L132.7695635727474,85.10847601879834L133.06792214257376,74.71165545417239L133.16737499918256,76.33858657560938L134.16190356527056,91.44181260885932L134.36080927848815,76.9073778386853L134.46026213509697,71.21267886150508L134.75862070492335,83.3110697545327L134.85807356153214,84.85643747492236L134.95752641814096,86.73401805995229L135.25588498796736,75.09991929878356L135.35533784457616,78.08817030493958L135.45479070118495,68.44397676573453L136.94658355031694,80.2291353567681L137.24494212014335,85.66175411810252L137.44384783336093,79.05417490696937L137.54330068996975,78.28941198548779L137.74220640318734,86.12168814311917L137.84165925979613,68.86476205483507L138.14001782962254,69.5907950852187L138.43837639944894,69.19955161038206L138.53782925605773,78.04146115496383L138.63728211266653,69.28669253989415L138.73673496927535,80.97029981893729L138.93564068249293,86.30497251481745L139.13454639571054,75.7518857201818L139.33345210892813,88.99880212296512L139.53235782214574,87.67334383761454L139.63181067875453,78.21904075420196L139.83071639197212,84.06679305050818L140.02962210518973,65.30720020595527L140.22852781840731,87.1776330425597L140.3279806750161,78.80969147531988L140.42743353162496,69.81043942860072L140.52688638823375,80.30605435198356L140.62633924484254,75.66982394681918L141.62086781093052,82.18530501445304L142.01867923736572,78.7439752535322L142.41649066380091,88.49212713697386L142.51594352040973,75.7611957391781L142.61539637701853,81.96824266381088L142.81430209023614,80.68933447344182L143.11266066006252,84.51677023288528L143.41101922988892,69.89064556036385L143.6099249431065,81.98678847613951L143.80883065632412,79.69648138838397L143.9082835129329,72.19838507548832L144.1071892261505,72.96020547957642L144.5050006525857,62.99413765035684L144.60445350919449,81.2755369565541L144.70390636580333,84.53563415520239L144.90281207902092,85.92126824670788L145.0022649356297,94.91827231617509L145.30062350545612,80.01747557409703L145.4000763620649,81.57746575029068L145.4995292186737,89.52929294342755L145.59898207528252,66.52276209395086L145.7978877885001,81.5701810315544L146.2951520715441,85.83848012220488L146.5935106413705,82.31258082084554L147.09077492441452,89.40785975715687L147.2896806376321,86.93321853474106L147.6874920640673,74.64239760784625L147.88639777728488,66.37401386333568L148.28420920372008,85.57749738581936L148.38366206032887,87.58379587585625L148.4831149169377,88.18257960901309L148.5825677735465,85.80004713376286L148.78147348676407,76.87956972385865L149.0798320565905,80.45796247515102L149.1792849131993,81.08504739361666L149.3781906264169,79.50476710199086L149.4776434830257,77.53147782509234L149.5770963396345,81.32828489447792L150.17381347928728,79.42153892533713L150.3727191925049,90.27414748146316L150.47217204911368,82.39393745040036L150.67107776233127,87.63058985516227L150.77053061894009,83.0587343080008L151.06888918876646,80.10920258927644L151.16834204537525,75.02674869959907L151.66560632841927,83.7553368626165L151.7650591850281,72.41018270582106L151.86451204163689,82.33217109430302L152.16287061146326,87.54704356852005L152.36177632468087,90.95607986377661L152.46122918128967,94.87707177083325L152.56068203789846,78.93584859491955L152.66013489450728,84.2383391636314L152.75958775111607,71.05870302341248L152.85904060772486,78.83635439418799L153.45575774737767,69.12167828520114L153.95302203042166,73.29260921020978L154.05247488703048,84.67700223408474L154.15192774363928,83.01912961443452L154.64919202668327,76.94162768077877L155.04700345311846,75.12674127264592L155.24590916633605,80.98329461196687L155.34536202294484,86.32205502119905L155.74317344938007,80.99978861486977L156.14098487581526,80.11329030262846L156.83715487207684,72.73535473604954L157.03606058529445,82.6998956373244L157.33441915512083,63.506676463802485L157.53332486833844,84.83713350045451L157.63277772494723,82.24686459905786L157.93113629477367,82.31046538942212L158.03058915138246,70.92121588638963L158.22949486460004,89.26920621684292L158.32894772120886,90.05928539157469L158.62730629103524,89.7094492335724L160.31800485338485,79.09934652533411L160.41745770999364,74.00078036474002L160.51691056660243,75.98464679875565L160.61636342321123,82.43327175047642L161.01417484964642,81.59659476426486L161.31253341947283,80.17840741727116L161.41198627608162,87.98016092150749L161.71034484590803,86.30131424994988L161.80979770251682,83.32430843188678L161.9092505591256,80.0173430282685L162.30706198556084,91.18040042398934L162.40651484216963,84.88015787639699L162.50596769877842,89.70413679676471L162.70487341199603,68.2681255641005L162.90377912521362,85.06137453317012L163.10268483843123,81.11304637443641L163.30159055164881,76.87511088218673L163.8983076913016,88.97153479511888L164.0972134045192,91.81410203021545L164.59447768756323,82.85126297351144L164.69393054417202,80.25343895988829L165.5890062536512,88.33139676345911L165.68845911026,81.22450151073497L166.78244053295683,75.67506745979603L167.180251959392,76.79043000325225L167.27970481600082,88.3454943377821L167.5780633858272,85.83582390380104L167.67751624243598,83.98566439977844L167.9758748122624,75.37075814297896L168.17478052548,77.98225028244065L168.2742333820888,85.55115787877287L168.3736862386976,87.6084918146289L169.0698562349592,77.84669831451441L169.169309091568,88.11660359740148L169.2687619481768,89.13396705707203L169.3682148047856,90.46370392176772L169.666573374612,90.45237390434454L169.86547908782958,84.55121624280497L169.96493194443838,92.67629143750344L170.0643848010472,93.51442642782888L170.163837657656,87.33977900552321L170.66110194069998,87.21386046841491L170.8600076539176,80.90130176243508L171.35727193696158,81.09906544044253L171.4567247935704,60.677936409538695L171.75508336339678,76.86053084104788L172.45125335965838,82.55442924142375L172.65015907287597,87.02855079645661L173.64468763896397,85.2051019278004L173.84359335218159,95.66245352140174L173.94304620879038,71.92402581408703L174.14195192200796,81.85390863211654L174.24140477861675,85.55979986679336L174.44031049183437,86.96083578357462L174.53976334844316,87.56784265993377L175.13648048809594,95.55020841196512L175.2359333447048,91.77666578640401L175.83265048435757,82.39962101552794L175.93210334096636,87.2095447762378L176.82717905044555,83.534324646284L177.22499047688075,83.87446375147067L177.42389619009836,97.72296855714262L177.82170761653356,86.96638680287367L178.41842475618634,87.7719420285452L178.71678332601275,86.38184909536778L178.91568903923033,89.28519654559739L179.21404760905673,95.10999190440134L179.41295332227432,87.3584361563478L179.51240617888317,90.28607660603132L179.91021760531834,90.95866715834961L180.00967046192716,90.79238046370267L180.20857617514474,81.11436122905548L180.30802903175353,85.39312083649395L180.50693474497115,90.44223679937818L180.80529331479752,77.84729742165939L180.90474617140634,84.40792359849229L181.00419902801514,85.20022954314345L181.40201045445033,84.30525359970903L181.60091616766792,89.07603392633592L181.7003690242767,75.49538303280076L181.79982188088553,91.0907040109031L181.99872759410314,84.61283414757435L182.19763330732073,81.20678808620954L182.39653902053834,88.05943923247088L182.69489759036472,79.5488995610599L182.99325616019112,91.0260110429117L183.09270901679992,91.51803176210012L183.1921618734087,88.19987949055349L183.4905204432351,83.86629892843291L183.68942615645273,83.5833825083414L183.78887901306155,80.39928708777512L184.08723758288792,96.96465266476099L184.18669043949674,87.77891393912614L184.48504900932312,86.03772831349193L184.88286043575832,82.80191351063127L184.9823132923671,94.49763017656937L185.0817661489759,85.60345516087966L185.7779361452375,91.00085914648889L185.9768418584551,90.76558499900602L186.07629471506394,84.20625246945963L186.17574757167273,95.9963417653147L186.4741061414991,90.7397915807731L186.57355899810793,68.54683232867774L186.7724647113255,75.40095208271924L187.1702761377607,86.89811509751183L187.2697289943695,90.0968329738821L187.3691818509783,94.11396832312494L187.6675404208047,70.8051799662569L188.0653518472399,92.20035648006603L188.1648047038487,79.29448579593657L188.3637104170663,94.5026669180537L188.46316327367512,86.88035925832128L188.5626161302839,86.3175802740277L188.6620689868927,87.58309073204845L188.86097470011032,85.69295010430653L189.1593332699367,91.49272611251621L189.2587861265455,100.03212366171584L189.3582389831543,90.11470015156863L189.4576918397631,85.03035880929292L189.8555032661983,85.20715903905926L189.9549561228071,95.76642246930464L190.4522204058511,89.21021271947853L190.6511261190687,89.11464717710476L190.7505789756775,88.08627180999952L190.8500318322863,82.51826543756624L191.2478432587215,81.00395585571891L191.54620182854788,82.57609783347266L191.7451075417655,88.78032948470735L192.04346611159187,93.46291381702702L192.14291896820066,81.82857117153378L192.24237182480948,95.68084027873613L192.34182468141827,92.71569996324348L192.44127753802707,79.2488900309205L192.6401832512447,92.19150241871989L192.8390889644623,93.1934428457821L193.1374475342887,92.55743494213948L193.2369003908975,94.31016796035567L193.43580610411507,77.8762772416103L193.53525896072387,85.612616728548L193.6347118173327,85.67475421296524L193.93307038715906,81.30223168642107L194.13197610037668,88.70667641870699L194.23142895698547,81.46352935608195L194.33088181359426,86.69736118561264L194.43033467020305,97.6279862164144L195.12650466646468,92.60894755294134L195.22595752307348,90.43474000731624L195.52431609289988,86.30146270127784L196.02158037594387,86.67395889412649L196.41939180237907,93.4983194587453L197.01610894203188,90.39607904004913L197.11556179864067,95.21475082544231L197.31446751185825,82.67158384834931L197.71227893829345,87.70121557443889L197.81173179490227,95.27109870806913L197.91118465151106,82.68942981870327L198.11009036472865,98.570699865454L198.20954322133744,82.0287895982857L198.30899607794626,85.33234062136091L198.70680750438143,88.83085065271177L199.10461893081663,90.3856768434257L199.30352464403427,93.34510708462506L199.40297750064306,87.91263677461859L200.19860035351346,89.73292575072253L200.29805321012225,87.37602233687784L200.59641177994862,94.00629869568934L200.89477034977503,92.5410840887314L201.29258177621026,100.31796139186827L201.49148748942784,85.38200819422957L201.88929891586304,90.415271676021L202.38656319890703,85.35680327947534L202.48601605551582,95.8284221060602L202.88382748195102,90.36731129342388L202.98328033855984,89.46044864008644L203.2816389083862,87.16090045716544L203.381091764995,89.82553817203654L203.48054462160385,89.1846101672387L203.77890319143023,85.12815642341923L204.07726176125664,96.5640938690949L204.17671461786543,99.71336154775531L204.375620331083,92.82490712229009L204.57452604430063,80.84625813076104L204.67397890090942,86.66079444243638L204.7734317575182,94.04046370845253L205.4696017537798,86.76325236789398L205.66850746699743,81.50557289289327L205.76796032360622,91.48500664346233L206.36467746325903,104.11364447262787L206.46413031986782,98.57342500768868L206.5635831764766,90.44470745362207L206.6630360330854,94.24006182072691L206.76248888969423,79.38157370711724L206.9613946029118,98.25895207673955L207.25975317273821,97.01401803314059L207.95592316899982,98.60139747934272L208.0553760256086,86.49816071082387L208.15482888221743,95.59849750821701L209.0499045916966,86.25054389578781L209.348263161523,97.67928145205747L209.44771601813179,96.96825791129714L209.84552744456698,90.1424075315656L209.94498030117578,97.70312379569435L210.04443315778462,73.27009232485824L210.14388601439342,102.21862615839586L210.4422445842198,97.38279764095711L210.5416974408286,90.03647690540038L210.6411502974374,84.59590539435385L210.7406031540462,93.49980397202489L211.1384145804814,95.85252423952102L211.2378674370902,100.03969467944177L211.33732029369898,92.44610704983631L211.63567886352538,90.38343946984003L211.83458457674297,88.51166969393307L212.03349028996058,90.27644847704653L212.2323960031782,86.98255739395495L212.331848859787,96.37307942467646L212.4313017163958,97.47156093141047L212.6302074296134,87.20942283407555L212.72966028622218,77.3573550210624L213.22692456926617,93.23191824888926L213.52528313909258,86.6790698612748L213.72418885231016,86.51748059079114L214.02254742213657,94.18072900604147L214.320905991963,86.95250660370948L214.4203588485718,93.21762980857318L214.61926456178938,99.84364349353899L214.818170275007,71.7289925801474L215.41488741465977,96.12604050945282L215.51434027126857,92.6271646516152L215.71324598448618,101.87413955003325L215.91215169770376,84.6195515701645L216.80722740718298,90.58144703217198L216.90668026379177,76.25239997606275L217.00613312040056,92.9677809217846L217.10558597700938,88.664457921402L218.29902025631495,85.9598019699796L218.49792596953256,85.67038550245672L218.69683168275017,89.57211054787751L218.89573739596776,83.61461030554426L219.29354882240295,88.21068462649566L219.39300167901175,93.26937570003327L219.49245453562057,95.45877829944163L219.59190739222936,73.73876377089192L219.69136024883815,81.02205631406366L219.79081310544694,98.6512983328696L219.89026596205574,86.12622651228821L220.08917167527335,93.12222862302679L220.18862453188214,94.92617204755578L220.28807738849093,91.43187697355233L220.48698310170855,91.26127988856143L220.98424738475256,90.77989464665467L221.28260595457894,89.91693117172804L221.48151166779655,88.24292507382853L221.58096452440535,95.8659802920339L221.77987023762293,93.53050688774675L222.07822880744934,96.64940036434007L222.37658737727574,96.72401836397216L222.57549309049332,89.58739573282418L222.87385166031973,96.47557976479919L223.17221023014613,86.10967418922075L223.27166308675496,92.55932239473782L223.57002165658133,93.15846135071513L223.76892736979894,82.65399236598614L223.86838022640774,89.56298609304116L224.66400307927813,96.83481607296119L224.76345593588692,90.07641031262142L224.9623616491045,94.26512358598632L225.45962593214853,80.70994800069559L225.95689021519252,97.15596401183535L226.05634307180134,84.04898949481935L226.15579592841013,94.09086823612785L226.3547016416277,99.71529141501878L226.4541544982365,89.42713192062587L226.65306021145412,96.1844189941728L226.8519659246717,86.61215012336402L227.1503244944981,95.23869390390888L227.2497773511069,82.9810306414804L227.64758877754213,101.4037556118949L228.14485306058612,93.23658916388683L228.3437587738037,94.22050335826827L228.9404759134565,102.59333851749761L229.0399287700653,100.55635301723828L229.1393816266741,88.61212882829636L229.2388344832829,93.35635757455111L229.3382873398917,93.7260172866691L229.6366459097181,99.71795293525577L229.83555162293572,92.54534146074394L230.1339101927621,92.3349912308588L230.2333630493709,102.24135511707306L230.5317216191973,94.99154365018927L230.7306273324149,97.70750841170229L230.9295330456325,83.86775163071366L231.0289859022413,88.25809361844608L231.12843875885008,93.86249177356194L231.52625018528528,91.95193908822563L231.9240616117205,97.30172731039193L232.0235144683293,92.31367786163037L232.1229673249381,94.86911371928801L232.52077875137329,92.33711196411537L232.6202316079821,97.7161397960565L232.8191373211997,93.05757806970053L232.91859017780848,93.28059437896047L233.1174958910261,92.2200209791875L233.2169487476349,100.0499431229041L233.31640160424368,93.9034643400787L233.51530731746126,93.99128390423289L233.61476017407008,89.91520277412394L233.71421303067888,92.68438203487722L233.81366588728767,91.96843309112853L234.1120244571141,101.80709786996022L234.3109301703317,95.56901401411767L234.41038302694048,93.91079147348012L235.0071001665933,94.51803163049749L235.10655302320208,89.83695832062313L235.20600587981087,81.19113177294298L235.60381730624607,98.96271210609615L235.80272301946366,79.71447050823275L236.0016287326813,94.21435323182425L236.3994401591165,87.7655003012784L237.09561015537807,83.13236616666859L237.39396872520447,95.59016832835187L237.59287443842206,99.69009710393084L237.79178015163967,87.4869525916954L237.89123300824846,83.92573247794803L238.09013872146605,93.6685189062506L238.2890444346837,90.48674038676711L238.48795014790127,89.78717410742536L238.58740300451007,92.97370306940354L238.68685586111886,90.62517125008912L238.98521443094526,85.8777826112821L239.08466728755405,95.21001628844704L239.38302585738046,89.82024164072828L239.48247871398925,88.08081092186387L239.78083728381566,97.04782782308331L240.07919585364203,96.15882704559925L240.47700728007726,92.38320610144672L241.07372441973007,92.75709137457841L241.17317727633886,96.64674944776937L241.47153584616524,93.45267067539783L241.57098870277406,91.65440551416327L241.76989441599164,91.62197950267046L241.96880012920923,97.85953317519886L242.06825298581805,96.777741839194L242.26715869903563,91.89207609022606L242.36661155564443,98.25476893039098L242.56551726886207,91.47189521010364L242.66497012547086,97.54476864342695L242.76442298207965,91.7815434728941L242.86387583868844,98.36372690327994L243.06278155190606,88.29269338152687L243.26168726512364,95.17497117138237L243.36114012173243,91.48275336437723L243.75895154816763,88.41909968728419L243.85840440477642,90.28629928302325L244.05731011799404,95.253358774378L244.3556686878204,76.85486848325286L244.55457440103802,94.35186157617966L244.85293297086446,96.20966102175902L245.44965011051724,89.81158374720837L246.04636725017002,94.06559969937592L246.44417867660522,102.31499227757399L246.74253724643162,87.82961006762423L247.23980152947564,92.09712448696979L247.43870724269323,90.4096358273917L247.73706581251963,93.25081928403836L248.3337829521724,86.97393131143389L248.4332358087812,94.63680329653118L248.63214152199882,92.58841885501784L248.9305000918252,97.48833593146986L249.22885866165163,96.41959240682598L249.32831151826042,81.28073275303268L249.4277643748692,94.46544804940106L250.3228400843484,94.37188659995473L250.4222929409572,94.26829408220487L250.521745797566,86.8833335867136L250.6211986541748,92.46780215105093L250.8201043673924,95.3081532198944L251.01901008061,107.14478200706469L251.31736865043638,96.04119527369096L251.4168215070452,106.49386534862845L251.8146329334804,93.61930198919896L252.013538646698,100.59312653190705L252.1129915033068,87.86748636358641L252.2124443599156,98.25490677805266L252.3118972165244,95.74997088106687L253.10752006939478,98.02969020803903L254.002595778874,86.32924430693879L254.20150149209158,94.97193747123237L254.49986006191799,94.46089907656574L254.99712434496197,99.65430442839323L255.29548291478838,92.5650960910288L255.39493577139717,82.22608141314356L255.6932943412236,102.00355729701488L255.7927471978324,87.3970706144492L256.09110576765875,95.39511918891282L256.38946433748515,102.30925039228185L256.58837005070274,92.57650033411596L256.7872757639204,92.7640950961582L257.0856343337468,97.56314479709505L257.3839929035732,90.37110740595313L257.48344576018195,89.96688504358633L257.58289861679077,95.39754212665844L257.78180433000836,90.69993770104918L258.57742718287875,96.5676407954665L258.77633289609633,90.63526594039035L258.975238609314,89.26123756163139L259.17414432253156,97.09172700149412L259.67140860557555,91.51815370426237L260.16867288861954,95.97861243528985L260.56648431505477,91.32628566470817L260.96429574148993,90.13372843071312L261.06374859809875,79.95470186970283L261.1632014547076,82.88087901343931L261.56101288114274,92.84347414195128L261.66046573775157,92.0262972980338L261.75991859436033,83.80542328030333L261.85937145096915,98.59839664178469L262.15773002079555,92.05528772165098L262.65499430383954,95.97706430001256L262.95335287366595,89.74844951816056L263.15225858688353,100.3844781904603L263.55007001331876,99.28474545110492L263.6495228699275,99.87201890451178L263.74897572653634,91.99623590412205L263.84842858314516,96.12627909194418L264.04733429636275,100.68805055247071L264.24624000958033,100.99284233610365L264.54459857940674,95.21730100718332L264.84295714923314,90.91621007855326L264.9424100058419,87.76726050988134L265.14131571905955,95.20808111935042L265.34022143227713,103.05766246035535L266.03639142853876,93.83087164070662L266.3347499983651,92.04935497036575L266.43420285497393,90.7805255647985L266.6331085681915,88.89910115074105L266.8320142814091,91.37324930267471L267.03091999462674,89.31170040947126L267.1303728512355,103.71742787830459L267.3292785644531,95.56550420057806L267.62763713427955,83.51683920058366L267.82654284749714,94.28334068466017L268.12490141732354,98.64724773234957L268.3238071305411,87.61134420085898L268.42325998714995,90.33645462454092" fill="none"></path></g></g></g></g></g></g><g transform="translate(51, 177)" clip-path="url(#clip_1)"><clipPath id="clip_1"><rect width="278" height="22"></rect></clipPath><g><g><line x1="0" y1="0" x2="0" y2="5" style="visibility: inherit;" fill="rgb(0, 0, 0)" stroke="rgb(204, 204, 204)" stroke-width="1px"></line><line x1="19.890571321759904" y1="0" x2="19.890571321759904" y2="5" style="visibility: inherit;" fill="rgb(0, 0, 0)" stroke="rgb(204, 204, 204)" stroke-width="1px"></line><line x1="39.78114264351981" y1="0" x2="39.78114264351981" y2="5" style="visibility: inherit;" fill="rgb(0, 0, 0)" stroke="rgb(204, 204, 204)" stroke-width="1px"></line><line x1="59.671713965279714" y1="0" x2="59.671713965279714" y2="5" style="visibility: inherit;" fill="rgb(0, 0, 0)" stroke="rgb(204, 204, 204)" stroke-width="1px"></line><line x1="79.56228528703961" y1="0" x2="79.56228528703961" y2="5" style="visibility: inherit;" fill="rgb(0, 0, 0)" stroke="rgb(204, 204, 204)" stroke-width="1px"></line><line x1="99.45285660879952" y1="0" x2="99.45285660879952" y2="5" style="visibility: inherit;" fill="rgb(0, 0, 0)" stroke="rgb(204, 204, 204)" stroke-width="1px"></line><line x1="119.34342793055943" y1="0" x2="119.34342793055943" y2="5" style="visibility: inherit;" fill="rgb(0, 0, 0)" stroke="rgb(204, 204, 204)" stroke-width="1px"></line><line x1="139.23399925231934" y1="0" x2="139.23399925231934" y2="5" style="visibility: inherit;" fill="rgb(0, 0, 0)" stroke="rgb(204, 204, 204)" stroke-width="1px"></line><line x1="159.12457057407923" y1="0" x2="159.12457057407923" y2="5" style="visibility: inherit;" fill="rgb(0, 0, 0)" stroke="rgb(204, 204, 204)" stroke-width="1px"></line><line x1="179.01514189583915" y1="0" x2="179.01514189583915" y2="5" style="visibility: inherit;" fill="rgb(0, 0, 0)" stroke="rgb(204, 204, 204)" stroke-width="1px"></line><line x1="198.90571321759904" y1="0" x2="198.90571321759904" y2="5" style="visibility: inherit;" fill="rgb(0, 0, 0)" stroke="rgb(204, 204, 204)" stroke-width="1px"></line><line x1="218.79628453935896" y1="0" x2="218.79628453935896" y2="5" style="visibility: inherit;" fill="rgb(0, 0, 0)" stroke="rgb(204, 204, 204)" stroke-width="1px"></line><line x1="238.68685586111886" y1="0" x2="238.68685586111886" y2="5" style="visibility: inherit;" fill="rgb(0, 0, 0)" stroke="rgb(204, 204, 204)" stroke-width="1px"></line><line x1="258.57742718287875" y1="0" x2="258.57742718287875" y2="5" style="visibility: inherit;" fill="rgb(0, 0, 0)" stroke="rgb(204, 204, 204)" stroke-width="1px"></line><line x1="278.4679985046387" y1="0" x2="278.4679985046387" y2="5" style="visibility: inherit;" fill="rgb(0, 0, 0)" stroke="rgb(204, 204, 204)" stroke-width="1px"></line></g><g transform="translate(0, 8)"><text style="text-anchor: middle; visibility: hidden; font-family: Roboto, sans-serif; font-size: 12px; font-weight: 200;" x="0" y="0" dx="0em" dy="0.95em" fill="rgb(50, 49, 63)" stroke="none" stroke-width="1px">-200</text><text style="text-anchor: middle; visibility: hidden; font-family: Roboto, sans-serif; font-size: 12px; font-weight: 200;" x="19.890571321759904" y="0" dx="0em" dy="0.95em" fill="rgb(50, 49, 63)" stroke="none" stroke-width="1px">0</text><text style="text-anchor: middle; visibility: hidden; font-family: Roboto, sans-serif; font-size: 12px; font-weight: 200;" x="39.78114264351981" y="0" dx="0em" dy="0.95em" fill="rgb(50, 49, 63)" stroke="none" stroke-width="1px">200</text><text style="text-anchor: middle; visibility: hidden; font-family: Roboto, sans-serif; font-size: 12px; font-weight: 200;" x="59.671713965279714" y="0" dx="0em" dy="0.95em" fill="rgb(50, 49, 63)" stroke="none" stroke-width="1px">400</text><text style="text-anchor: middle; visibility: hidden; font-family: Roboto, sans-serif; font-size: 12px; font-weight: 200;" x="79.56228528703961" y="0" dx="0em" dy="0.95em" fill="rgb(50, 49, 63)" stroke="none" stroke-width="1px">600</text><text style="text-anchor: middle; visibility: hidden; font-family: Roboto, sans-serif; font-size: 12px; font-weight: 200;" x="99.45285660879952" y="0" dx="0em" dy="0.95em" fill="rgb(50, 49, 63)" stroke="none" stroke-width="1px">800</text><text style="text-anchor: middle; visibility: hidden; font-family: Roboto, sans-serif; font-size: 12px; font-weight: 200;" x="119.34342793055943" y="0" dx="0em" dy="0.95em" fill="rgb(50, 49, 63)" stroke="none" stroke-width="1px">1k</text><text style="text-anchor: middle; visibility: hidden; font-family: Roboto, sans-serif; font-size: 12px; font-weight: 200;" x="139.23399925231934" y="0" dx="0em" dy="0.95em" fill="rgb(50, 49, 63)" stroke="none" stroke-width="1px">1.2k</text><text style="text-anchor: middle; visibility: hidden; font-family: Roboto, sans-serif; font-size: 12px; font-weight: 200;" x="159.12457057407923" y="0" dx="0em" dy="0.95em" fill="rgb(50, 49, 63)" stroke="none" stroke-width="1px">1.4k</text><text style="text-anchor: middle; visibility: hidden; font-family: Roboto, sans-serif; font-size: 12px; font-weight: 200;" x="179.01514189583915" y="0" dx="0em" dy="0.95em" fill="rgb(50, 49, 63)" stroke="none" stroke-width="1px">1.6k</text><text style="text-anchor: middle; visibility: hidden; font-family: Roboto, sans-serif; font-size: 12px; font-weight: 200;" x="198.90571321759904" y="0" dx="0em" dy="0.95em" fill="rgb(50, 49, 63)" stroke="none" stroke-width="1px">1.8k</text><text style="text-anchor: middle; visibility: hidden; font-family: Roboto, sans-serif; font-size: 12px; font-weight: 200;" x="218.79628453935896" y="0" dx="0em" dy="0.95em" fill="rgb(50, 49, 63)" stroke="none" stroke-width="1px">2k</text><text style="text-anchor: middle; visibility: hidden; font-family: Roboto, sans-serif; font-size: 12px; font-weight: 200;" x="238.68685586111886" y="0" dx="0em" dy="0.95em" fill="rgb(50, 49, 63)" stroke="none" stroke-width="1px">2.2k</text><text style="text-anchor: middle; visibility: hidden; font-family: Roboto, sans-serif; font-size: 12px; font-weight: 200;" x="258.57742718287875" y="0" dx="0em" dy="0.95em" fill="rgb(50, 49, 63)" stroke="none" stroke-width="1px">2.4k</text><text style="text-anchor: middle; visibility: hidden; font-family: Roboto, sans-serif; font-size: 12px; font-weight: 200;" x="278.4679985046387" y="0" dx="0em" dy="0.95em" fill="rgb(50, 49, 63)" stroke="none" stroke-width="1px">2.6k</text></g><line x1="0" y1="0" x2="278.4679985046387" y2="0" fill="rgb(0, 0, 0)" stroke="rgb(204, 204, 204)" stroke-width="1px"></line></g></g></g></g></svg>